<svg width="95" height="79" viewBox="0 0 95 79" fill="none" xmlns="http://www.w3.org/2000/svg">
<g clip-path="url(#clip0_502_5438)">
<path d="M94.2237 78.3166C81.0187 78.3166 68.0863 78.3166 54.9383 78.3166C54.8433 77.6308 54.6657 76.945 54.6657 76.2654C54.6404 63.5557 54.558 50.8396 54.6531 38.1298C54.7989 18.159 72.619 0.189129 92.3409 0.000369326C92.8608 -0.00592265 93.3806 0.0695811 94.1477 0.119917C94.1477 4.26633 94.1477 8.38129 94.1477 12.8108C85.1457 13.4463 77.4877 16.951 72.2957 24.7404C69.4556 29.0001 67.8454 33.6499 67.9785 39.2497C76.7396 39.2497 85.3929 39.2497 94.2174 39.2497C94.2237 52.444 94.2237 65.2104 94.2237 78.3166Z" fill="#DEE0E3"/>
<path d="M0.0250436 78.1725C0.0250436 75.0014 0.0250436 71.9057 0.0250436 68.8038C0.0250436 58.6926 -0.0320112 48.5814 0.031383 38.4701C0.158171 18.2351 17.8705 0.189742 37.7256 0.00727424C38.2518 0.00098226 38.7716 0.0639021 39.5387 0.101654C39.5387 4.32357 39.5387 8.51403 39.5387 12.6919C22.3715 16.0204 12.856 25.5716 13.4456 39.2126C22.0736 39.2126 30.7395 39.2126 39.5894 39.2126C39.5894 52.3817 39.5894 65.1607 39.5894 78.1725C26.5175 78.1725 13.4393 78.1725 0.0250436 78.1725Z" fill="#DEE0E3"/>
</g>
<defs>
<clipPath id="clip0_502_5438">
<rect width="94.2243" height="78.3163" fill="white"/>
</clipPath>
</defs>
</svg>
