<svg width="174" height="174" viewBox="0 0 174 174" fill="none" xmlns="http://www.w3.org/2000/svg">
<g clip-path="url(#clip0_1852_3934)">
<path d="M50.5018 105.942C50.9285 108.033 51.0102 110.134 51.8589 111.858C52.2992 112.756 54.0874 113.45 55.272 113.459C71.6567 113.564 88.0414 113.527 104.426 113.532C117.892 113.532 131.359 113.532 144.83 113.541C145.837 113.541 147.103 113.228 147.802 113.709C149.128 114.625 150.798 115.864 151.107 117.239C151.583 119.362 149.881 120.678 147.725 121.009C146.954 121.127 146.159 121.072 145.374 121.072C115.296 121.077 85.2229 121.086 55.1449 121.081C48.3868 121.081 45.7544 118.999 44.3519 112.511C37.4985 80.8479 30.6405 49.1938 23.8869 17.5125C23.3423 14.9627 22.1214 13.647 19.7113 12.903C14.3647 11.247 9.08622 9.36417 3.74871 7.65829C1.19797 6.84164 -0.69467 5.50325 0.240302 2.59508C1.19343 -0.362988 3.63071 -0.240491 6.08614 0.576155C11.8321 2.4862 17.5827 4.39171 23.315 6.35166C27.4725 7.77171 30.0459 10.6436 30.9627 14.9718C31.8705 19.2456 32.8917 23.4967 33.6905 27.7931C34.04 29.676 34.8025 30.3883 36.7859 30.3837C59.0073 30.3202 81.2243 30.2839 103.446 30.3973C106.264 30.4109 106.364 28.755 106.809 26.8903C110.798 10.1309 125.195 -0.862049 141.916 0.0498717C167.913 1.46539 182.614 30.5017 168.562 52.4513C165.385 57.4147 162.726 62.7184 160.07 67.9903C157.906 72.2913 156.145 76.7964 154.125 81.1746C151.474 86.9183 146.904 90.1713 140.708 91.1694C111.484 95.8742 82.2545 100.561 53.0299 105.261C52.2855 105.388 51.5639 105.656 50.5018 105.942ZM48.8134 98.1472C49.4761 98.2289 49.703 98.3105 49.9163 98.2788C79.5903 93.5558 109.278 88.8783 138.925 83.9829C141.394 83.5746 144.489 82.2317 145.765 80.308C148.597 76.0252 150.453 71.1026 153.067 65.6991C151.424 66.0848 150.789 66.2118 150.167 66.3842C129.911 72.0372 111.298 60.9762 106.718 40.4149C106.196 38.0738 105.125 37.7018 103.055 37.7109C81.7326 37.7698 60.4053 37.7426 39.0825 37.7562C38.1157 37.7562 37.149 37.8923 35.86 37.9921C40.2171 58.2268 44.5062 78.1394 48.8134 98.1472ZM140.073 7.49042C125.39 7.4632 113.463 19.2365 113.363 33.8454C113.267 48.4906 125.422 60.6722 140.109 60.6405C154.538 60.6087 166.493 48.7038 166.538 34.3172C166.579 19.291 154.974 7.51764 140.073 7.49042Z" fill="#085E9B"/>
<path d="M37.8296 155.008C37.8478 144.732 46.4849 136.203 56.756 136.316C67.1814 136.434 75.5053 144.796 75.5235 155.176C75.5416 165.516 67.1088 173.977 56.756 174C46.1763 174.027 37.8115 165.634 37.8296 155.008ZM68.0982 155.063C68.0392 148.911 62.856 143.73 56.7378 143.702C50.4608 143.675 45.1642 149.011 45.2368 155.281C45.3139 161.696 50.4699 166.655 56.9466 166.546C63.1465 166.441 68.1572 161.283 68.0982 155.063Z" fill="#085E9B"/>
<path d="M139.801 174C129.434 173.927 121.092 165.384 121.21 154.963C121.328 144.533 129.87 136.153 140.223 136.307C150.603 136.462 158.977 145.041 158.841 155.385C158.704 165.811 150.253 174.073 139.801 174ZM140.164 166.541C146.405 166.5 151.52 161.383 151.501 155.194C151.483 148.92 146.091 143.598 139.864 143.712C133.506 143.825 128.522 149.047 128.631 155.489C128.735 161.75 133.778 166.582 140.164 166.541Z" fill="#085E9B"/>
<path d="M144.321 33.9679C146.831 36.0867 148.606 37.4568 150.23 38.9858C152.041 40.6871 152.405 42.7378 150.589 44.5979C148.715 46.517 146.718 45.9817 145.006 44.2078C143.454 42.6017 141.997 40.9049 140.136 38.8542C138.207 40.8822 136.71 42.4973 135.171 44.0716C133.369 45.9091 131.372 46.6123 129.339 44.5072C127.442 42.5427 128.1 40.6236 129.856 38.9313C131.454 37.3933 133.111 35.9097 135.543 33.6639C133.283 31.8265 131.381 30.4246 129.657 28.8321C127.941 27.2487 127.569 25.2843 129.312 23.5103C131.136 21.6547 133.179 21.9224 134.926 23.6963C136.496 25.2888 137.908 27.0355 140.422 29.8847C142.247 27.4574 143.536 25.493 145.088 23.7598C146.754 21.8997 148.869 21.6184 150.675 23.4831C152.355 25.2162 152.041 27.2306 150.349 28.8412C148.66 30.4473 146.799 31.8764 144.321 33.9679Z" fill="#D80000"/>
</g>
<defs>
<clipPath id="clip0_1852_3934">
<rect width="174" height="174" fill="white"/>
</clipPath>
</defs>
</svg>
