<svg width="81" height="80" viewBox="0 0 81 80" fill="none" xmlns="http://www.w3.org/2000/svg">
<path d="M38.8459 60.5355C37.0327 62.119 34.8106 64.0958 32.5422 66.0225C31.381 67.0091 30.4745 67.0233 29.3634 66.0761C20.2243 58.3013 11.7101 50.019 5.27914 40.0924C2.91431 36.4463 1.04713 32.6072 0.263994 28.3606C-1.6842 17.7833 7.53595 7.83167 19.0939 8.06759C23.1639 8.1498 26.8404 9.64041 30.949 12.904C33.1865 10.9273 35.7596 9.41164 38.7842 8.65025C47.7266 6.39825 56.993 10.9416 60.5345 19.299C60.7968 19.9174 60.9241 20.5107 61.9696 20.3928C73.0878 19.1167 83.3572 29.5008 78.9632 41.4829C77.3043 46.0083 74.654 50.0262 71.6256 53.8438C66.7069 60.0457 61.0167 65.6078 54.9059 70.8088C53.112 72.3352 52.4446 72.3102 50.6469 70.7552C46.7389 67.3772 42.8426 63.9957 38.8459 60.5355ZM31.0647 62.5623C35.2157 58.4979 39.3628 54.6445 43.2476 50.5802C48.2975 45.297 52.923 39.7027 55.9282 33.1326C57.3132 30.105 58.2468 26.9772 57.6218 23.6385C56.5648 18.0121 53.2123 14.0658 47.2906 12.3678C41.473 10.7021 36.6161 12.4179 32.7043 16.6466C31.5122 17.937 30.2931 17.862 28.9738 16.4679C24.9694 12.2356 19.553 10.7557 14.1521 12.4214C8.70873 14.1015 4.58473 19.0201 4.11794 24.2641C3.73987 28.5393 5.24056 32.3605 7.36621 36.003C13.3072 46.1978 21.8986 54.3657 31.0647 62.5623ZM52.7185 67.6561C59.3385 61.8473 65.538 55.9814 70.3256 49.0217C72.32 46.1191 74.1178 42.9842 75.2828 39.7349C77.6245 33.2113 74.002 26.5947 67.4168 24.5643C65.5843 23.9995 63.7133 23.7601 61.7728 24.1819C62.066 28.8753 60.5576 33.0254 58.3857 37.0075C54.4661 44.1996 48.9958 50.3479 43.1936 56.271C42.8503 56.6213 42.5185 56.9859 42.0594 57.4756C45.6626 60.9108 49.1655 64.2638 52.7185 67.6561Z" fill="#3FA9F5"/>
</svg>
