<svg width="80" height="80" viewBox="0 0 80 80" fill="none" xmlns="http://www.w3.org/2000/svg">
<g clip-path="url(#clip0_502_5500)">
<path d="M38.5187 59.3712C38.4872 58.8652 38.4387 58.4173 38.4358 57.9694C38.4215 55.9455 38.4339 53.9216 38.4101 51.8986C38.3844 49.7022 37.4908 47.8833 35.5942 46.515C34.9246 46.0319 34.414 45.4432 34.2978 44.6362C34.153 43.6305 34.5521 42.8147 35.4161 42.2128C36.3001 41.5977 37.2956 41.4877 38.2929 41.9136C38.9064 42.1759 39.4589 42.5631 40.0323 42.9036C40.6067 43.2441 41.1602 43.6155 41.746 43.9367C42.4319 44.3133 43.1063 44.3089 43.7922 43.8672C44.7676 43.238 45.7498 42.6097 46.7785 42.0606C48.5627 41.1076 50.7556 42.0439 51.0938 43.8654C51.2624 44.777 50.9375 45.5435 50.225 46.1735C49.9278 46.4375 49.6058 46.6778 49.2981 46.9312C47.7826 48.1746 47.0681 49.7726 47.0119 51.6055C46.9548 53.4649 46.9995 55.3269 46.9995 57.2215C47.1205 57.2083 47.2425 57.2091 47.3558 57.1819C48.7494 56.8369 50.144 56.492 51.5338 56.1338C51.6682 56.0995 51.8358 56.0054 51.8892 55.8971C52.7027 54.2463 53.9591 52.8868 55.2032 51.5123C56.8417 49.7031 58.5449 47.9326 60.0347 46.0222C61.9408 43.5759 63.1801 40.8287 63.4764 37.7884C63.8022 34.4489 63.0335 31.2767 61.5255 28.261C59.166 23.5418 55.369 20.1583 50.1612 18.1863C47.4387 17.155 44.5447 16.9729 41.6403 17.1225C40.0285 17.2052 38.4091 17.3733 36.825 17.6557C34.1806 18.1265 31.8877 19.3497 29.8216 20.8905C24.2108 25.0712 21.4093 30.5217 21.5265 37.183C21.5789 40.1652 22.842 42.8314 24.5109 45.3376C26.0084 47.5868 27.9583 49.5051 29.834 51.4753C31.2447 52.9572 32.5288 54.5129 33.3957 56.3362C33.7834 57.152 34.0387 57.9906 34.0549 58.8846C34.0692 59.644 33.6071 60.1535 32.8908 60.1799C32.1735 60.2063 31.6458 59.7399 31.6067 58.9867C31.5315 57.5383 30.7818 56.3292 29.893 55.2292C28.709 53.7632 27.3953 52.3834 26.097 50.9993C24.0089 48.7738 22.1228 46.4331 20.7939 43.7325C18.5249 39.1224 18.5182 34.4357 20.2605 29.7165C22.6219 23.32 27.1324 18.7178 33.912 16.0824C35.6409 15.4101 37.4842 15.1778 39.3341 14.9894C42.2881 14.6885 45.2296 14.7202 48.1493 15.2684C51.8587 15.9644 55.0517 17.6135 57.8238 19.9375C63.2268 24.4666 66.0027 30.1248 65.9846 36.8794C65.975 40.4124 64.5824 43.5812 62.6115 46.5528C61.0511 48.9049 59.0383 50.9253 57.0722 52.98C55.9015 54.2023 54.8069 55.4721 54.0277 56.9522C53.6457 57.6782 53.0256 58.1138 52.1626 58.3267C45.7431 59.9142 39.3293 61.5227 32.9137 63.1234C32.1221 63.3205 31.4743 63.0283 31.2724 62.3939C31.0628 61.7357 31.4505 61.1584 32.2678 60.9516C34.2101 60.4588 36.1553 59.9757 38.0986 59.4874C38.2596 59.4451 38.4215 59.3985 38.5187 59.3712ZM40.8849 58.7764C41.9985 58.5009 43.033 58.2317 44.0761 57.995C44.4142 57.9184 44.5304 57.7864 44.5276 57.4591C44.5085 55.788 44.5323 54.117 44.5152 52.4459C44.4828 49.2992 45.6021 46.6443 48.3532 44.6732C48.416 44.6283 48.5046 44.5852 48.5237 44.5245C48.5685 44.3872 48.6466 44.1971 48.5827 44.11C48.5094 44.0115 48.2941 43.9648 48.1426 43.9684C48.015 43.971 47.8845 44.0696 47.7654 44.1417C46.9024 44.6626 46.0289 45.1713 45.183 45.7151C43.6283 46.7147 42.0413 46.7138 40.4505 45.84C39.5103 45.3235 38.6196 44.7322 37.7042 44.1778C37.5728 44.0977 37.4318 43.9851 37.2889 43.978C37.126 43.9692 36.9117 44.022 36.8078 44.1241C36.745 44.1857 36.8031 44.4268 36.8898 44.5271C37.045 44.7084 37.2594 44.8466 37.4527 44.9979C39.2388 46.4023 40.3924 48.1535 40.6934 50.3111C40.8487 51.4252 40.8582 52.5594 40.8773 53.6849C40.9059 55.3542 40.8849 57.0244 40.8849 58.7764Z" fill="#3FA9F5"/>
<path d="M54.6012 68.9558C54.6078 69.5233 54.2373 69.929 53.5095 70.1129C51.9339 70.5116 50.3555 70.9005 48.778 71.2912C43.5388 72.59 38.3005 73.8897 33.0603 75.1833C32.8041 75.2467 32.5278 75.3082 32.2697 75.2854C31.6791 75.2326 31.2532 74.7864 31.2209 74.2558C31.1847 73.6715 31.5276 73.228 32.1858 73.0591C33.348 72.7616 34.5159 72.4853 35.6799 72.1958C41.3773 70.7808 47.0738 69.3606 52.7751 67.9579C53.1094 67.8761 53.5019 67.8699 53.8372 67.9456C54.3068 68.0503 54.5955 68.5043 54.6012 68.9558Z" fill="#3FA9F5"/>
<path d="M32.531 69.2266C31.8518 69.231 31.3231 68.8271 31.2297 68.2992C31.1249 67.7052 31.4517 67.1878 32.1032 67.0118C33.1825 66.7197 34.2723 66.4583 35.3582 66.1882C41.1585 64.7468 46.9578 63.3037 52.7619 61.8738C53.0725 61.7972 53.4268 61.7664 53.7383 61.8227C54.2489 61.916 54.588 62.378 54.6004 62.8602C54.6137 63.36 54.2975 63.7982 53.7498 63.9575C53.0858 64.1502 52.4095 64.3086 51.736 64.4758C45.508 66.0245 39.2791 67.5723 33.0501 69.1184C32.851 69.1677 32.6491 69.2029 32.531 69.2266Z" fill="#3FA9F5"/>
<path d="M43.0816 80C40.2677 79.9235 38.1587 78.8693 36.4983 77.0073C36.0087 76.4582 36.0649 75.7674 36.5898 75.3556C37.1461 74.9191 37.8682 74.9895 38.3921 75.572C39.3132 76.5954 40.4192 77.3575 41.8538 77.6039C44.2676 78.0192 46.128 77.1252 47.5826 75.4031C47.9398 74.9798 48.2123 74.4905 48.4885 74.0145C48.8743 73.3492 49.524 73.087 50.1765 73.3712C50.8261 73.6537 51.049 74.3049 50.7014 74.9789C49.3925 77.5124 47.3854 79.2776 44.3276 79.8592C43.8637 79.9463 43.3855 79.9666 43.0816 80Z" fill="#3FA9F5"/>
<path d="M41.2325 5.70739C41.2325 4.19738 41.2248 2.68648 41.2363 1.17647C41.241 0.600094 41.5716 0.204992 42.1155 0.0509982C42.5975 -0.0853958 43.152 0.0518782 43.4206 0.454021C43.5778 0.68985 43.6721 0.996077 43.6826 1.27502C43.715 2.16819 43.6949 3.06399 43.6949 3.95803C43.6949 5.95202 43.6959 7.94689 43.6959 9.94089C43.6959 10.0878 43.7016 10.2348 43.6883 10.3809C43.6292 11.032 43.1081 11.4808 42.4356 11.4667C41.7821 11.4535 41.2658 11.0083 41.2487 10.3712C41.2191 9.31611 41.2344 8.26016 41.2315 7.20421C41.2306 6.70527 41.2315 6.20721 41.2315 5.70827C41.2306 5.70739 41.2315 5.70739 41.2325 5.70739Z" fill="#3FA9F5"/>
<path d="M16.7425 8.85632C16.8902 8.92848 17.2303 9.0156 17.4503 9.21535C19.7099 11.2745 21.9551 13.3476 24.1899 15.4296C24.7186 15.9224 24.6957 16.5894 24.2004 17.0435C23.7145 17.4896 22.9839 17.4914 22.4533 17.0048C20.2119 14.9492 17.98 12.8848 15.749 10.8195C15.3518 10.4517 15.2403 10.0073 15.4708 9.52685C15.6757 9.10271 16.0519 8.8836 16.7425 8.85632Z" fill="#3FA9F5"/>
<path d="M68.4301 10.196C68.3406 10.343 68.2301 10.665 68.0015 10.8789C65.8172 12.9213 63.6157 14.9487 61.4114 16.9726C60.8551 17.4839 60.1312 17.5015 59.6311 17.0465C59.109 16.5722 59.1195 15.9035 59.6949 15.3693C61.8877 13.334 64.0882 11.3065 66.2887 9.27911C66.6821 8.91744 67.147 8.77929 67.6776 8.99224C68.1586 9.18583 68.4025 9.54133 68.4301 10.196Z" fill="#3FA9F5"/>
<path d="M74.1405 32.8885C75.6951 32.8885 77.2488 32.877 78.8034 32.8937C79.4864 32.9017 79.9808 33.3795 79.9998 33.9787C80.0189 34.5674 79.5369 35.0611 78.8682 35.1306C78.7272 35.1456 78.5833 35.1464 78.4405 35.1464C76.7115 35.1464 74.9826 35.1456 73.2546 35.1456C72.0972 35.1456 70.9388 35.1535 69.7815 35.1429C69.5166 35.1403 69.2347 35.1209 68.9908 35.0347C68.4469 34.8429 68.1716 34.3122 68.2849 33.7781C68.3964 33.2563 68.8536 32.8955 69.4776 32.8911C71.0322 32.8797 72.5859 32.8876 74.1405 32.8876V32.8885Z" fill="#3FA9F5"/>
<path d="M9.72306 32.8712C11.1338 32.8712 12.5446 32.8703 13.9554 32.8721C14.145 32.8721 14.3374 32.873 14.525 32.8958C15.1242 32.9689 15.5481 33.4212 15.5576 33.9826C15.5672 34.5431 15.1576 35.0174 14.5689 35.1072C14.3669 35.138 14.1583 35.1388 13.9525 35.1388C11.1157 35.1406 8.27799 35.1406 5.44119 35.1397C4.40478 35.1397 3.81036 34.7094 3.82751 33.9791C3.84466 33.2628 4.41144 32.873 5.44405 32.8721C6.87007 32.8703 8.29704 32.8712 9.72306 32.8712Z" fill="#3FA9F5"/>
<path d="M22.5029 53.8366C22.4124 53.9862 22.3029 54.3065 22.0752 54.5204C20.3882 56.1078 18.6821 57.6786 16.9713 59.2449C16.4111 59.7571 15.6957 59.765 15.1899 59.303C14.6974 58.8533 14.7031 58.1546 15.2395 57.6566C16.937 56.0788 18.6459 54.5098 20.352 52.9399C20.7444 52.5783 21.2074 52.4304 21.738 52.6399C22.2181 52.8282 22.4648 53.1837 22.5029 53.8366Z" fill="#3FA9F5"/>
<path d="M69.0938 58.4537C68.9909 58.9711 68.707 59.3759 68.2536 59.5483C67.7411 59.7437 67.282 59.6363 66.899 59.2896C66.0055 58.4801 65.1234 57.6582 64.2384 56.8407C63.4316 56.0953 62.6229 55.3518 61.8198 54.6029C61.2273 54.0503 61.1797 53.3657 61.6912 52.8949C62.2209 52.4065 62.9305 52.4382 63.5402 52.997C65.2034 54.5246 66.8676 56.0522 68.5118 57.5974C68.7604 57.8324 68.9023 58.1659 69.0938 58.4537Z" fill="#3FA9F5"/>
</g>
<defs>
<clipPath id="clip0_502_5500">
<rect width="80" height="80" fill="white"/>
</clipPath>
</defs>
</svg>
