<svg width="81" height="80" viewBox="0 0 81 80" fill="none" xmlns="http://www.w3.org/2000/svg">
<path d="M40.1011 65.684C39.6247 66.1835 39.2869 66.5762 38.9078 66.9278C36.7592 68.9087 34.1027 69.1294 31.682 67.4831C30.9529 66.986 30.2432 66.4162 29.6501 65.7664C28.5467 64.5565 27.5089 63.3976 25.9315 62.6435C24.1184 61.7779 23.4427 59.9522 23.5545 57.9446C23.5959 57.2148 23.3577 56.7881 22.7695 56.3516C20.0182 54.315 19.1433 51.4418 19.1627 48.1564C19.1651 47.6303 18.9342 46.9563 18.5672 46.5998C14.941 43.0744 14.1487 38.9308 16.2024 34.2173C16.5281 33.473 16.6059 32.6122 16.7347 31.7951C17.0458 29.853 17.1065 27.8406 17.6558 25.9712C18.5235 23.0059 20.5335 20.9838 23.5861 20.0867C23.9629 19.9751 24.359 19.6624 24.5753 19.3326C25.7006 17.6087 27.1759 16.4958 29.2953 16.314C29.7036 16.28 30.1411 16.0521 30.4765 15.7975C33.3031 13.6323 36.2853 13.1086 39.5494 14.7865C39.8338 14.9319 40.332 14.8956 40.6334 14.7477C43.7079 13.2105 46.5588 13.5814 49.3004 15.5769C49.8229 15.9576 50.4938 16.2364 51.133 16.3382C52.9339 16.6243 54.2342 17.5748 55.3036 19.0004C55.6804 19.5023 56.2539 19.9727 56.8373 20.1788C60.2812 21.396 62.2183 23.9588 62.8405 27.3581C63.4578 30.738 63.854 34.1325 64.7435 37.4906C65.6623 40.9675 64.3061 44.1025 61.5669 46.5029C60.9812 47.0144 60.8208 47.5115 60.8524 48.2704C60.9885 51.6115 59.9555 54.4556 57.1605 56.5286C56.8445 56.7614 56.5942 57.2997 56.5894 57.6997C56.5553 60.4492 55.4883 62.4374 52.7517 63.3733C52.3385 63.514 52.0225 63.9649 51.6871 64.2971C50.6858 65.2888 49.7914 66.4138 48.6831 67.2648C46.1141 69.2385 43.3458 68.9984 41.0052 66.746C40.6893 66.4405 40.4316 66.0768 40.1011 65.684ZM52.8173 20.4795C52.2534 19.4902 51.4052 19.0368 50.3844 19.1096C49.4365 19.1774 48.7803 18.8259 48.1192 18.2173C46.8845 17.0826 45.4457 16.4037 43.7006 16.6243C41.8462 16.8595 41.4208 17.3153 41.4208 19.1508C41.416 27.6709 41.4184 36.1934 41.4184 44.7135C41.4184 50.4065 41.416 56.1019 41.4233 61.7949C41.4257 63.594 42.5632 64.6996 43.9704 65.4852C45.2926 66.2222 46.5224 65.604 47.5067 64.685C48.4157 63.8364 49.1497 62.8084 50.015 61.9064C50.4136 61.4918 50.8826 61.0384 51.4076 60.8711C53.3593 60.248 54.0811 59.3266 53.6801 57.2657C53.4079 55.874 53.77 55.1199 55.0436 54.4798C57.1484 53.4203 58.332 50.9787 57.9164 49.0148C53.8454 50.0622 51.0771 48.6826 49.3466 44.7741C48.9601 43.9037 49.0233 43.1423 49.9104 42.7132C50.7392 42.3131 51.376 42.6865 51.8062 43.4866C52.1489 44.1243 52.4843 44.7886 52.9461 45.3366C53.7579 46.3016 54.7981 47.0969 56.1154 46.5926C60.4878 44.9147 63.6498 41.3457 61.5523 36.0576C60.8451 34.2779 60.3833 32.5807 60.5291 30.6992C60.551 30.4204 60.5316 30.1319 60.4927 29.853C60.1475 27.3678 59.6007 24.9771 57.3088 23.4617C55.7922 22.4604 54.8418 22.4628 53.4006 23.4739C52.0857 24.3976 51.2034 25.6027 51.0406 27.2514C50.9458 28.1994 50.433 28.8056 49.4584 28.6819C48.4692 28.5559 48.1921 27.8139 48.3015 26.8829C48.5372 24.8632 49.4438 23.1975 50.9677 21.8688C51.5389 21.3741 52.1805 20.9547 52.8173 20.4795ZM22.0404 48.942C22.072 51.4612 22.8716 53.3863 24.9812 54.458C26.3058 55.1321 26.6898 55.9128 26.3666 57.3506C25.9485 59.2006 26.7433 60.2407 28.5102 60.8348C29.1081 61.0336 29.6501 61.5112 30.1119 61.9671C31.0817 62.9296 31.9177 64.0328 32.9312 64.9421C33.85 65.7664 35.0482 66.1447 36.1881 65.4537C37.4398 64.6947 38.6112 63.7007 38.6161 62.0689C38.6428 47.4897 38.6428 32.9105 38.6039 18.3312C38.6039 17.9045 38.1883 17.2741 37.7995 17.085C35.6266 16.0279 33.6968 16.6728 32.0077 18.1979C31.3101 18.8283 30.6272 19.2138 29.6331 19.1192C28.5929 19.0198 27.7957 19.5484 27.2148 20.5134C27.6523 20.8092 28.0582 21.0638 28.4422 21.3475C30.3258 22.7344 31.4705 24.5746 31.7841 26.895C31.9056 27.7994 31.5921 28.5486 30.6029 28.7013C29.6526 28.8492 29.2151 28.231 29.0474 27.3775C29.0012 27.1399 28.9599 26.8998 28.8991 26.6671C28.3741 24.6571 27.0933 23.1514 25.11 22.8192C23.1511 22.4919 21.8629 23.9515 20.864 25.513C20.7109 25.7506 20.5238 25.9979 20.4776 26.2646C20.1397 28.1994 19.8481 30.1416 19.5127 32.0764C19.3401 33.0802 19.2842 34.1519 18.8759 35.0587C16.4454 40.4437 18.6401 43.9788 23.0757 46.2822C25.008 47.286 27.7058 45.9646 27.978 43.8455C28.1894 42.204 28.0193 40.5116 28.0193 38.795C27.6644 38.7659 27.3047 38.7392 26.9475 38.7101C24.3687 38.4968 22.3879 37.1705 20.7182 35.3108C20.1592 34.6877 20.1252 33.9846 20.7546 33.3663C21.389 32.7407 22.0525 32.8086 22.6844 33.3978C23.0684 33.7567 23.4257 34.1494 23.8316 34.4768C25.7249 36.0067 27.7714 36.5522 29.9904 35.209C31.2664 34.438 32.484 33.5651 33.709 32.7116C34.776 31.9697 35.9256 31.5672 37.0971 32.2825C37.5005 32.5298 37.8821 33.3057 37.7897 33.7348C37.6974 34.1713 37.0217 34.7653 36.5696 34.792C34.4236 34.9205 33.0042 36.4407 31.75 37.7064C29.7036 39.7697 30.4449 44.2431 32.7465 46.1222C33.4757 46.7162 33.7989 47.366 33.2569 48.2098C32.8024 48.9178 31.8667 48.9469 31.0112 48.2922C30.4789 47.8849 29.9953 47.4145 29.4362 46.9247C27.4627 49.2475 25.1027 50.0889 22.0404 48.942Z" fill="#3FA9F5"/>
<path d="M4.82345 41.4038C3.77593 41.4038 2.72597 41.4014 1.67844 41.4038C0.754864 41.4062 0.0330169 41.0522 0.00385138 40.0654C-0.0253141 39.0883 0.640632 38.6397 1.58365 38.6325C3.72246 38.6179 5.85883 38.6179 7.99763 38.6203C8.94065 38.6203 9.60903 39.0568 9.60417 40.0315C9.60174 41.0231 8.90906 41.4038 7.9709 41.399C6.92337 41.3941 5.87341 41.399 4.82588 41.399C4.82345 41.4014 4.82345 41.4038 4.82345 41.4038Z" fill="#3FA9F5"/>
<path d="M75.3308 38.6254C76.3784 38.6254 77.4259 38.6108 78.4734 38.6302C79.346 38.6448 79.9827 39.0012 80.0022 39.9637C80.0216 40.9118 79.4262 41.3676 78.5488 41.3797C76.3322 41.4137 74.1156 41.4185 71.899 41.387C71.0265 41.3749 70.4189 40.9336 70.4359 39.9807C70.4529 39.0278 71.0532 38.6399 71.9428 38.6326C73.0705 38.6229 74.2007 38.6302 75.3284 38.6302C75.3308 38.6278 75.3308 38.6278 75.3308 38.6254Z" fill="#3FA9F5"/>
<path d="M62.3623 60.8877C62.8848 61.215 63.3417 61.4041 63.6698 61.7242C65.1767 63.1862 66.6496 64.6822 68.1346 66.1685C68.7957 66.8304 69.0047 67.5675 68.2901 68.29C67.5659 69.0247 66.8367 68.7919 66.1781 68.13C64.6372 66.5855 63.0647 65.075 61.5869 63.4748C61.2758 63.1377 61.1349 62.4225 61.254 61.9715C61.3585 61.5666 61.9296 61.2829 62.3623 60.8877Z" fill="#3FA9F5"/>
<path d="M62.3112 19.0212C61.9904 18.7763 61.4533 18.5678 61.3099 18.2065C61.147 17.7895 61.1349 17.0524 61.3974 16.7712C63.0452 15.006 64.7466 13.2821 66.5378 11.6673C66.8538 11.3812 67.8916 11.4491 68.2245 11.7546C68.5502 12.0529 68.6766 13.1173 68.4093 13.4131C66.7687 15.2364 64.9969 16.9433 63.247 18.6648C63.0695 18.8418 62.7414 18.866 62.3112 19.0212Z" fill="#3FA9F5"/>
<path d="M12.6055 11.1201C13.1402 11.4596 13.5923 11.6511 13.9179 11.9663C15.3908 13.3968 16.8272 14.8686 18.283 16.3185C18.9684 17.0022 19.2722 17.7757 18.4969 18.5273C17.724 19.2789 16.9682 18.9468 16.2876 18.2606C14.8148 16.7695 13.286 15.3341 11.8739 13.7872C11.5385 13.4187 11.3975 12.6791 11.4972 12.1724C11.5701 11.7942 12.168 11.5129 12.6055 11.1201Z" fill="#3FA9F5"/>
<path d="M19.0949 62.391C18.7911 62.9001 18.6307 63.3269 18.339 63.6275C16.8783 65.1284 15.3787 66.5928 13.901 68.0767C13.2569 68.7216 12.5205 69.0441 11.7841 68.3458C11.0087 67.6112 11.2615 66.8159 11.9445 66.1273C13.4514 64.6143 14.9291 63.0674 16.504 61.6296C16.8637 61.2999 17.6099 61.1665 18.1033 61.2781C18.4848 61.3629 18.7473 61.9739 19.0949 62.391Z" fill="#3FA9F5"/>
<path d="M38.6337 75.1733C38.6337 74.0847 38.6265 72.996 38.6362 71.9074C38.6435 71.0709 39.0299 70.4744 39.8976 70.4187C40.8187 70.358 41.3704 70.9012 41.385 71.8007C41.4215 74.0968 41.4142 76.3953 41.368 78.6914C41.351 79.5449 40.7993 80.0298 39.9389 79.9983C39.0542 79.9668 38.6556 79.3849 38.6337 78.5557C38.607 77.4282 38.6265 76.2984 38.6265 75.1709C38.6313 75.1733 38.6337 75.1733 38.6337 75.1733Z" fill="#3FA9F5"/>
<path d="M41.407 4.82098C41.407 5.90963 41.4143 6.99829 41.4045 8.08694C41.3973 8.98162 40.9792 9.59747 40.0459 9.60232C39.1272 9.60717 38.646 9.02284 38.6387 8.12331C38.6217 5.90478 38.6168 3.68869 38.646 1.47016C38.6581 0.580329 39.1491 -0.0258244 40.0654 0.000846338C40.9816 0.0275171 41.3973 0.667616 41.407 1.5526C41.4167 2.64368 41.407 3.73233 41.407 4.82098Z" fill="#3FA9F5"/>
<path d="M54.8595 40.3074C51.8457 40.2032 49.5052 38.986 47.9788 36.4014C47.3056 35.2618 46.8487 33.9937 46.1997 32.8372C45.8303 32.1777 45.213 31.6588 44.8241 31.0066C44.5422 30.5362 44.2286 29.8913 44.3477 29.4355C44.4474 29.0548 45.1425 28.6111 45.6019 28.5796C47.0188 28.485 47.7747 29.4621 48.3118 30.6187C48.8538 31.7873 49.2767 33.0166 49.8892 34.1465C51.4884 37.0924 53.3234 37.8974 56.6167 37.2185C56.8938 37.1603 57.166 37.0779 57.4455 37.0342C58.2816 36.8984 58.9135 37.187 59.1103 38.0404C59.3048 38.8866 58.8697 39.4831 58.0677 39.6867C57.0104 39.9534 55.9289 40.1038 54.8595 40.3074Z" fill="#3FA9F5"/>
<path d="M46.2241 54.7463C46.297 53.3303 45.6481 51.9677 44.7075 50.7117C44.4426 50.3577 44.1217 50.0425 43.8544 49.691C43.3246 48.9927 43.3562 48.1925 44.0756 47.8046C44.5422 47.5549 45.5314 47.5767 45.8741 47.9064C48.0081 49.9504 49.1722 52.455 48.9511 55.4834C48.883 56.4314 48.5184 57.2073 47.4393 57.1394C46.3602 57.0715 46.0734 56.2883 46.1828 55.3161C46.1974 55.1924 46.1998 55.0712 46.2241 54.7463Z" fill="#3FA9F5"/>
<path d="M29.7773 58.6231C29.9329 55.8323 31.012 53.6429 32.8397 51.8002C33.4789 51.1553 34.2105 51.0825 34.8692 51.7323C35.4889 52.3409 35.4282 53.0416 34.8497 53.6672C33.2748 55.3692 32.3585 57.2774 32.587 59.685C32.6234 60.0803 31.9623 60.8561 31.5686 60.8949C31.0801 60.9434 30.3825 60.5167 30.0593 60.0851C29.7603 59.6899 29.8381 59.0134 29.7773 58.6231Z" fill="#3FA9F5"/>
</svg>
