<svg width="32" height="33" viewBox="0 0 32 33" fill="none" xmlns="http://www.w3.org/2000/svg">
<path d="M32 16.3174C32 7.47992 24.8375 0.317383 16 0.317383C7.16253 0.317383 0 7.47992 0 16.3174C0 24.3049 5.85 30.9237 13.5 32.1236V20.9424H9.43747V16.3174H13.5V12.7924C13.5 8.78298 15.8875 6.56738 19.5437 6.56738C21.2937 6.56738 23.125 6.87988 23.125 6.87988V10.8174H21.1063C19.1187 10.8174 18.5 12.0518 18.5 13.3174V16.3174H22.9375L22.2281 20.9424H18.5V32.1236C26.15 30.9237 32 24.3049 32 16.3174Z" fill="#090A0B"/>
<path d="M22.2282 20.9424L22.9375 16.3174H18.5V13.3174C18.5 12.0518 19.1188 10.8174 21.1063 10.8174H23.125V6.87988C23.125 6.87988 21.2938 6.56738 19.5438 6.56738C15.8876 6.56738 13.5 8.78298 13.5 12.7924V16.3174H9.4375V20.9424H13.5V32.1236C14.3156 32.2518 15.15 32.3174 16 32.3174C16.85 32.3174 17.6844 32.2518 18.5 32.1236V20.9424H22.2282Z" fill="white"/>
</svg>
