<svg width="9" height="13" viewBox="0 0 9 13" fill="none" xmlns="http://www.w3.org/2000/svg">
<path d="M1.34441 1.18497L0.897667 1.57805C0.758149 1.70176 0.681287 1.86634 0.681287 2.04224C0.681287 2.21805 0.758149 2.38283 0.897667 2.50654L5.95886 6.99048L0.892051 11.4796C0.752533 11.6031 0.675781 11.7679 0.675781 11.9437C0.675781 12.1195 0.752533 12.2844 0.892051 12.408L1.33604 12.8012C1.62477 13.0572 2.09508 13.0572 2.38381 12.8012L8.43815 7.45634C8.57756 7.33282 8.67578 7.16824 8.67578 6.99087L8.67578 6.98882C8.67578 6.81292 8.57745 6.64833 8.43815 6.52482L2.40021 1.18497C2.26081 1.06126 2.06942 0.993359 1.87099 0.993164C1.67245 0.993163 1.48371 1.06126 1.34441 1.18497Z" fill="white"/>
</svg>
