<svg width="132" height="42" viewBox="0 0 132 42" fill="none" xmlns="http://www.w3.org/2000/svg">
<path d="M16.6022 0.808369C16.5384 0.925752 16.4878 1.017 16.4394 1.10954C15.2085 3.44735 15.1584 5.81387 16.259 8.21209C16.3383 8.38517 16.4385 8.42544 16.621 8.41559C18.8535 8.29949 21.068 8.44386 23.2054 9.12674C26.6006 10.2115 29.1305 12.3629 30.7979 15.5151C32.0304 17.8452 32.3929 20.339 32.1907 22.9429C31.9417 26.1495 31.0121 29.1393 29.3777 31.9086C28.7594 32.9556 28.0496 33.9383 27.251 34.8551C27.092 35.0376 26.8958 35.1889 26.7497 35.3799C26.2802 35.9926 26.1315 36.6861 26.2913 37.441C26.3183 37.5682 26.2922 37.6471 26.1932 37.7345C24.2465 39.4545 22.062 40.7826 19.6174 41.6617C19.1706 41.8223 18.6676 41.848 18.1869 41.89C17.5409 41.9465 16.8905 41.9585 16.2419 41.9881C16.1738 41.9911 16.1052 41.9825 16.0217 41.9783C16.1811 41.6604 16.3464 41.3699 16.4767 41.0645C17.4021 38.8933 17.3609 36.7367 16.3666 34.5955C16.2839 34.4173 16.1918 34.3518 15.9818 34.3633C13.8804 34.4799 11.791 34.3505 9.76634 33.7636C6.16033 32.7187 3.48999 30.4905 1.76132 27.1609C0.747682 25.2087 0.317121 23.1134 0.373244 20.9165C0.430224 18.6875 0.816229 16.5198 1.56982 14.4188C2.42751 12.0279 3.69135 9.87388 5.34291 7.94605C5.56483 7.68687 5.83173 7.45938 6.01595 7.17663C6.37754 6.62099 6.46665 5.9968 6.32442 5.34819C6.29614 5.21967 6.3167 5.1417 6.41567 5.05431C8.22445 3.45635 10.2483 2.21269 12.4838 1.30018C13.5034 0.883768 14.5715 0.878628 15.6365 0.811368C15.9459 0.791661 16.2577 0.808369 16.6022 0.808369Z" fill="#3F4248"/>
<path d="M67.1037 14.7509C67.1037 14.8422 67.1037 14.933 67.1037 15.0242C67.1037 18.3444 67.1037 21.6645 67.1037 24.9847C67.1037 25.6367 66.8565 25.9409 66.2087 26.0017C65.9097 26.03 65.5948 25.9992 65.3005 25.9345C64.9517 25.8582 64.7709 25.593 64.7311 25.2383C64.7238 25.1745 64.7225 25.1102 64.7225 25.046C64.7221 20.5832 64.7225 16.121 64.7217 11.6582C64.7217 11.2354 64.8296 10.855 65.2628 10.705C65.9118 10.4806 66.7138 10.5332 67.2117 11.1694C67.7964 11.917 68.3752 12.6693 68.954 13.4216C70.2166 15.0615 71.477 16.7027 72.7387 18.3435C74.0004 19.9839 75.2621 21.6247 76.5242 23.2646C76.5628 23.3152 76.6052 23.3623 76.6639 23.4326C76.9526 23.0611 77.2324 22.7034 77.5104 22.344C79.7262 19.4835 81.9416 16.623 84.1569 13.7626C84.7816 12.9559 85.4195 12.1586 86.0253 11.3378C86.4854 10.7145 87.0818 10.5045 87.8238 10.6219C88.3392 10.7033 88.6335 11.0366 88.6339 11.5623C88.6356 16.082 88.6352 20.6017 88.6339 25.1214C88.6339 25.5755 88.4321 25.8428 87.9909 25.9602C87.5894 26.0664 87.185 26.066 86.7904 25.9212C86.4618 25.8004 86.287 25.56 86.2665 25.2105C86.2609 25.1179 86.2609 25.025 86.2609 24.932C86.2605 21.6118 86.2605 18.2917 86.2605 14.9715C86.2605 14.8889 86.2605 14.8062 86.2605 14.7239C86.2438 14.7175 86.2271 14.7111 86.2099 14.7046C86.0146 14.9527 85.8175 15.1995 85.6243 15.4492C83.0773 18.7389 80.5282 22.0274 77.9877 25.3218C77.6252 25.7922 77.1883 26.0566 76.5829 26.0287C76.1361 26.0082 75.7573 25.8514 75.4819 25.4992C74.6644 24.4535 73.8564 23.4004 73.0454 22.35C71.1266 19.8644 69.2081 17.3788 67.2888 14.8931C67.2468 14.8387 67.1997 14.7878 67.1551 14.7351C67.138 14.7398 67.1208 14.7453 67.1037 14.7509Z" fill="#3B9ADF"/>
<path d="M92.913 16.6791C92.913 14.9942 92.9125 13.3097 92.913 11.6248C92.913 10.9633 93.1996 10.6523 93.8619 10.6112C94.0744 10.5979 94.2916 10.5988 94.5024 10.6253C95.0264 10.6909 95.298 11.0105 95.2984 11.5383C95.2997 12.7378 95.2988 13.9369 95.2988 15.1365C95.2988 17.2211 95.3147 19.3057 95.2933 21.3899C95.2791 22.7501 95.9997 23.4553 97.1372 23.8143C97.8681 24.0447 98.6217 24.1021 99.3787 24.1056C101.127 24.1133 102.877 24.112 104.626 24.0962C105.449 24.0889 106.263 23.9869 107.028 23.6433C107.951 23.2282 108.411 22.5183 108.409 21.503C108.406 18.2261 108.408 14.9497 108.408 11.6728C108.408 10.9462 108.689 10.6429 109.418 10.6095C109.658 10.5983 109.906 10.6056 110.141 10.6545C110.573 10.7449 110.814 11.0353 110.814 11.4744C110.819 14.9154 110.846 18.3568 110.802 21.7969C110.778 23.6339 109.776 24.8407 107.983 25.4298C106.983 25.7584 105.951 25.8972 104.906 25.9049C102.829 25.9207 100.751 25.9242 98.6739 25.898C97.5352 25.8839 96.4119 25.7185 95.3477 25.2756C93.7158 24.5965 92.9185 23.361 92.9134 21.6054C92.9091 19.9633 92.913 18.3212 92.913 16.6791Z" fill="#3B9ADF"/>
<path d="M43.8724 25.9104C42.1378 25.9104 40.4027 25.9109 38.668 25.9096C38.5613 25.9096 38.4529 25.9066 38.3488 25.8877C37.7088 25.7712 37.4221 25.2923 37.6222 24.6706C37.7456 24.2881 38.0648 24.1737 38.4174 24.1197C38.5223 24.1034 38.6311 24.109 38.7378 24.109C41.7076 24.1086 44.6779 24.1133 47.6477 24.106C48.5688 24.1039 49.4933 24.0777 50.3818 23.7988C50.7109 23.6956 51.0343 23.5439 51.3261 23.3601C51.7194 23.1125 51.9049 22.7244 51.9019 22.2523C51.8989 21.781 51.8899 21.3098 51.904 20.839C51.9233 20.2075 51.6212 19.7804 51.0861 19.4963C50.5412 19.2067 49.9457 19.0902 49.3395 19.0311C48.9351 18.9917 48.5281 18.9634 48.1219 18.9613C46.6229 18.9531 45.1234 18.9677 43.6244 18.9548C42.4017 18.9446 41.1837 18.8713 40.0085 18.487C39.3209 18.2621 38.6894 17.9412 38.2254 17.3599C37.8741 16.9199 37.7006 16.4122 37.6908 15.8545C37.6792 15.2123 37.6719 14.5688 37.6916 13.9271C37.7259 12.8141 38.3004 12.0386 39.2605 11.5275C40.0214 11.1227 40.8491 10.9453 41.6948 10.8284C42.9312 10.6575 44.174 10.714 45.4152 10.7046C45.772 10.702 46.1298 10.6939 46.4858 10.7097C47.0616 10.735 47.3867 11.0413 47.4035 11.5498C47.4232 12.1517 47.0911 12.491 46.4524 12.503C45.9601 12.5125 45.467 12.4957 44.9748 12.5073C44.1333 12.527 43.2911 12.5394 42.4518 12.5934C41.867 12.6311 41.2933 12.7584 40.7728 13.0548C40.2977 13.3256 40.0466 13.7184 40.0664 14.2792C40.0805 14.6926 40.0719 15.1073 40.0685 15.5212C40.0646 15.9825 40.2669 16.3291 40.6464 16.5789C41.1378 16.9023 41.6973 17.0227 42.2671 17.0793C42.7988 17.1324 43.3348 17.1542 43.869 17.1611C45.6032 17.1838 47.3383 17.1697 49.0717 17.2164C50.2323 17.2476 51.3732 17.446 52.4425 17.9327C53.1854 18.2707 53.7993 18.7569 54.1022 19.5448C54.1956 19.7877 54.2693 20.0537 54.277 20.3116C54.301 21.1097 54.3203 21.9104 54.2826 22.7077C54.2355 23.711 53.6871 24.4234 52.8431 24.9251C52.0681 25.3852 51.213 25.617 50.3313 25.7267C49.5537 25.8235 48.7688 25.8869 47.9857 25.9027C46.6143 25.9306 45.2429 25.9104 43.8724 25.9104Z" fill="#3B9ADF"/>
<path d="M120.936 25.9105C119.201 25.9105 117.466 25.9109 115.731 25.9092C115.611 25.9092 115.488 25.9019 115.37 25.8788C114.728 25.7541 114.435 25.1723 114.715 24.5773C114.867 24.2538 115.169 24.1643 115.488 24.118C115.593 24.103 115.702 24.1086 115.809 24.1086C118.771 24.1082 121.734 24.1129 124.697 24.1056C125.61 24.1035 126.524 24.067 127.412 23.8121C127.848 23.687 128.264 23.5217 128.59 23.1884C128.831 22.9421 128.951 22.6465 128.95 22.3007C128.949 21.8081 128.937 21.315 128.953 20.8232C128.974 20.1874 128.663 19.7688 128.127 19.4882C127.574 19.1986 126.971 19.0834 126.358 19.0264C125.939 18.9874 125.517 18.9643 125.097 18.96C123.277 18.942 121.456 18.9544 119.637 18.9133C118.621 18.8906 117.617 18.7317 116.667 18.3397C116.021 18.0728 115.456 17.6996 115.09 17.081C114.855 16.6847 114.744 16.2533 114.741 15.7949C114.737 15.2312 114.744 14.667 114.739 14.1032C114.73 12.9383 115.268 12.1021 116.273 11.5507C117.042 11.1287 117.883 10.9432 118.744 10.8293C120.337 10.6189 121.938 10.7183 123.535 10.711C124.113 10.7085 124.44 11.0362 124.454 11.5426C124.47 12.1651 124.147 12.4949 123.491 12.5018C122.735 12.5099 121.978 12.4936 121.221 12.5074C120.651 12.5176 120.08 12.5399 119.512 12.59C118.913 12.6432 118.324 12.7588 117.796 13.0729C117.341 13.3427 117.102 13.7317 117.119 14.2732C117.131 14.6442 117.137 15.0165 117.118 15.3867C117.083 16.0786 117.437 16.4984 118.034 16.761C118.584 17.0031 119.171 17.111 119.763 17.1226C121.383 17.1539 123.003 17.1444 124.623 17.1676C125.35 17.1783 126.08 17.1967 126.804 17.2682C127.857 17.3728 128.893 17.5754 129.834 18.1062C130.76 18.628 131.315 19.3927 131.351 20.4757C131.374 21.1672 131.374 21.8608 131.354 22.5526C131.319 23.7582 130.664 24.5563 129.623 25.0764C128.688 25.5429 127.678 25.7323 126.65 25.8231C126.026 25.8783 125.397 25.9011 124.769 25.9071C123.491 25.9195 122.213 25.9105 120.936 25.9105Z" fill="#3B9ADF"/>
<path d="M60.3987 18.3139C60.3987 20.5549 60.3987 22.7959 60.3987 25.0369C60.3987 25.6212 60.1485 25.9348 59.5612 25.9922C59.2416 26.0235 58.9048 25.9987 58.5904 25.931C58.2446 25.8564 58.0591 25.5908 58.0313 25.231C58.0249 25.1457 58.0214 25.06 58.0214 24.9743C58.021 20.5352 58.021 16.096 58.021 11.6569C58.021 10.9582 58.3012 10.657 59.0047 10.6099C59.182 10.5979 59.362 10.5987 59.5389 10.6133C60.1108 10.6591 60.3983 10.9749 60.3987 11.5481C60.3992 13.8032 60.3987 16.0588 60.3987 18.3139Z" fill="#3B9ADF"/>
<path d="M22.2394 30.5062C22.299 31.168 22.35 31.7867 22.4129 32.404C22.4305 32.5779 22.3782 32.6846 22.2231 32.766C21.084 33.3623 19.8853 33.7843 18.6223 34.0259C18.4826 34.0529 18.3974 34.0071 18.3224 33.8876C17.9839 33.3503 17.6335 32.8204 17.2972 32.2815C17.1991 32.1242 17.0868 32.0737 16.8988 32.0664C16.1375 32.0381 15.3762 31.9949 14.617 31.9323C14.3411 31.9096 14.141 31.9653 13.9654 32.1902C13.6226 32.6285 13.2529 33.0453 12.905 33.4797C12.7786 33.6374 12.6514 33.6687 12.4599 33.6065C11.2642 33.2184 10.1507 32.6662 9.11224 31.9585C8.96486 31.8578 8.93616 31.734 8.97129 31.5699C9.10495 30.9496 9.22877 30.3271 9.36672 29.7076C9.39928 29.5624 9.36843 29.4626 9.26175 29.3662C8.63455 28.799 8.08746 28.1606 7.60334 27.4683C7.51937 27.3479 7.42255 27.315 7.27603 27.3308C6.63083 27.3998 5.98349 27.4533 5.33786 27.5184C5.20462 27.5317 5.12237 27.4859 5.06196 27.3698C4.45232 26.2045 4.03247 24.9746 3.78913 23.6825C3.75828 23.5188 3.85253 23.4494 3.96392 23.377C4.48402 23.0382 4.99984 22.6933 5.52423 22.3617C5.69045 22.2568 5.73672 22.1299 5.744 21.9385C5.77314 21.1699 5.80741 20.4005 5.87553 19.6349C5.89824 19.377 5.85368 19.2056 5.65061 19.0437C5.2042 18.6881 4.77535 18.3111 4.33536 17.947C4.1927 17.8287 4.14343 17.7041 4.20341 17.5169C4.59498 16.2916 5.15921 15.1516 5.87167 14.0828C5.96378 13.9448 6.07389 13.9495 6.20584 13.9782C6.81891 14.1115 7.43369 14.2387 8.04504 14.3801C8.2117 14.4186 8.32266 14.3904 8.43962 14.2601C8.9987 13.6368 9.62677 13.0889 10.3032 12.5949C10.3816 12.5379 10.4438 12.3936 10.4369 12.295C10.3898 11.6404 10.3161 10.9875 10.2685 10.3329C10.2621 10.2442 10.3307 10.1046 10.4061 10.063C11.5581 9.42555 12.7911 9.013 14.081 8.76281C14.2198 8.73582 14.291 8.79922 14.3587 8.90504C14.7112 9.45854 15.0698 10.0086 15.4211 10.563C15.488 10.6684 15.5569 10.7279 15.6928 10.7245C16.5573 10.7018 17.418 10.7322 18.2744 10.8753C18.3717 10.8916 18.5212 10.8046 18.5944 10.7206C18.9924 10.2631 19.378 9.79484 19.7585 9.3223C19.8891 9.15994 20.0181 9.12224 20.2207 9.18821C21.41 9.57421 22.517 10.123 23.5525 10.8226C23.7025 10.9241 23.7526 11.0346 23.7102 11.2184C23.5684 11.8371 23.4471 12.4604 23.3092 13.0799C23.2796 13.2127 23.2938 13.3056 23.3979 13.4024C24.0264 13.9877 24.591 14.6307 25.0846 15.3337C25.1647 15.4481 25.2504 15.4738 25.3904 15.4588C26.0502 15.389 26.7108 15.3303 27.3727 15.2836C27.4477 15.2784 27.5655 15.3521 27.6024 15.422C28.2142 16.5692 28.6392 17.7833 28.8804 19.0626C28.9146 19.2455 28.8559 19.3513 28.7008 19.4477C28.1679 19.7789 27.6448 20.1267 27.1131 20.4604C26.988 20.5388 26.9525 20.6322 26.9452 20.7753C26.9019 21.6077 26.8526 22.4397 26.791 23.2708C26.7772 23.4546 26.8201 23.5793 26.964 23.6962C27.4344 24.0788 27.8933 24.4755 28.362 24.8602C28.4961 24.9703 28.5316 25.083 28.4794 25.2522C28.1019 26.4757 27.5355 27.6063 26.8325 28.673C26.707 28.8636 26.5485 28.8332 26.3805 28.7977C25.7944 28.6734 25.2084 28.5505 24.6257 28.4112C24.4646 28.3727 24.373 28.4121 24.253 28.5218C23.6545 29.0706 23.0474 29.6104 22.4305 30.1377C22.2908 30.2577 22.1949 30.3609 22.2394 30.5062Z" fill="white"/>
<path d="M16.3367 29.3851C20.7495 29.3851 24.3267 25.8079 24.3267 21.3953C24.3267 16.9827 20.7495 13.4055 16.3367 13.4055C11.9239 13.4055 8.34668 16.9827 8.34668 21.3953C8.34668 25.8079 11.9239 29.3851 16.3367 29.3851Z" fill="#3FA9F5"/>
</svg>
