<svg width="49" height="48" viewBox="0 0 49 48" fill="none" xmlns="http://www.w3.org/2000/svg">
<path d="M24.75 30C28.0637 30 30.75 27.3137 30.75 24C30.75 20.6863 28.0637 18 24.75 18C21.4363 18 18.75 20.6863 18.75 24C18.75 27.3137 21.4363 30 24.75 30Z" stroke="#00355B" stroke-width="3" stroke-linecap="round" stroke-linejoin="round"/>
<path d="M15.2064 33.544C13.9745 32.3136 12.9938 30.8552 12.3189 29.2503C11.6134 27.5899 11.2498 25.8044 11.2498 24.0003C11.2498 22.1962 11.6134 20.4107 12.3189 18.7503C12.9938 17.1453 13.9745 15.687 15.2064 14.4565" stroke="#00355B" stroke-width="3" stroke-linecap="round" stroke-linejoin="round"/>
<path d="M34.2937 14.4565C35.5255 15.687 36.5062 17.1453 37.1812 18.7503C37.8867 20.4107 38.2503 22.1962 38.2503 24.0003C38.2503 25.8044 37.8867 27.5899 37.1812 29.2503C36.5062 30.8552 35.5255 32.3136 34.2937 33.544" stroke="#00355B" stroke-width="3" stroke-linecap="round" stroke-linejoin="round"/>
<path d="M9.90015 38.8501C7.98699 36.9335 6.45937 34.6675 5.40014 32.1751C4.31103 29.5873 3.75 26.8079 3.75 24.0001C3.75 21.1924 4.31103 18.413 5.40014 15.8251C6.45937 13.3328 7.98699 11.0668 9.90015 9.15015" stroke="#00355B" stroke-width="3" stroke-linecap="round" stroke-linejoin="round"/>
<path d="M39.5999 9.15015C41.513 11.0668 43.0406 13.3328 44.0999 15.8251C45.189 18.413 45.75 21.1924 45.75 24.0001C45.75 26.8079 45.189 29.5873 44.0999 32.1751C43.0406 34.6675 41.513 36.9335 39.5999 38.8501" stroke="#00355B" stroke-width="3" stroke-linecap="round" stroke-linejoin="round"/>
</svg>
