<svg width="49" height="48" viewBox="0 0 49 48" fill="none" xmlns="http://www.w3.org/2000/svg">
<path d="M0.25 24.7467C0.25 24.2496 0.25 23.7504 0.25 23.2533C0.619067 21.9115 1.48947 20.9195 2.45373 19.9595C8.38653 14.0565 14.3065 8.13867 20.2095 2.208C21.1695 1.24373 22.1508 0.356267 23.5033 0C24.0004 0 24.4996 0 24.9967 0C26.3471 0.362667 27.3284 1.24587 28.2884 2.21013C34.1935 8.1408 40.1092 14.0608 46.0463 19.9595C47.0127 20.9195 47.8767 21.9136 48.25 23.2533C48.25 23.7504 48.25 24.2496 48.25 24.7467C47.5353 25.8155 46.97 27.0315 46.0825 27.9317C40.186 33.9221 34.2148 39.8357 28.2884 45.7941C27.3284 46.7584 26.3428 47.6373 24.9967 48C24.4996 48 24.0004 48 23.5033 48C22.4345 47.2853 21.2228 46.7157 20.3225 45.8304C14.3321 39.9339 8.4164 33.9627 2.45373 28.0384C1.48733 27.0784 0.612667 26.0928 0.25 24.7467ZM24.2265 45.2117C24.7129 44.9003 25.1716 44.7061 25.5001 44.3819C31.898 38.0096 38.2831 31.6245 44.6617 25.2352C45.5449 24.3499 45.5428 23.648 44.6575 22.7605C38.2788 16.3712 31.8916 9.98613 25.5044 3.60747C24.6127 2.71787 23.9023 2.70507 23.0319 3.57333C16.6169 9.9776 10.2063 16.3861 3.802 22.8011C2.97853 23.6267 2.98067 24.3755 3.80627 25.2032C10.2105 31.6181 16.6212 38.0267 23.0425 44.4245C23.3433 44.7296 23.7679 44.9131 24.2265 45.2117Z" fill="#00355B"/>
<path d="M26.9465 14.897C26.5732 18.5429 26.2276 22.0714 25.8414 25.5957C25.7412 26.5088 25.1118 26.961 24.2222 26.9568C23.3796 26.9525 22.7588 26.5173 22.667 25.6533C22.2788 22.0224 21.8948 18.3893 21.5982 14.7498C21.4809 13.3141 22.4622 12.273 23.9001 12.0234C25.099 11.8165 26.3876 12.6186 26.7886 13.8602C26.9038 14.225 26.906 14.624 26.9465 14.897Z" fill="#00355B"/>
<path d="M27.2025 32.9537C27.2238 34.5963 25.931 35.951 24.3011 35.9873C22.6905 36.0235 21.3337 34.6838 21.3187 33.0433C21.3038 31.3281 22.5198 30.0715 24.2073 30.0587C25.9203 30.0438 27.1811 31.2641 27.2025 32.9537Z" fill="#00355B"/>
</svg>
