<svg width="49" height="48" viewBox="0 0 49 48" fill="none" xmlns="http://www.w3.org/2000/svg">
<path d="M24.25 13.5V16.5" stroke="#00355B" stroke-width="3" stroke-linecap="round" stroke-linejoin="round"/>
<path d="M24.25 31.5V34.5" stroke="#00355B" stroke-width="3" stroke-linecap="round" stroke-linejoin="round"/>
<path d="M24.25 42C34.1911 42 42.25 33.9411 42.25 24C42.25 14.0589 34.1911 6 24.25 6C14.3089 6 6.25 14.0589 6.25 24C6.25 33.9411 14.3089 42 24.25 42Z" stroke="#00355B" stroke-width="3" stroke-linecap="round" stroke-linejoin="round"/>
<path d="M19.75 31.5H26.5C27.4946 31.5 28.4484 31.1049 29.1517 30.4017C29.8549 29.6984 30.25 28.7446 30.25 27.75C30.25 26.7554 29.8549 25.8016 29.1517 25.0983C28.4484 24.3951 27.4946 24 26.5 24H22C21.0054 24 20.0516 23.6049 19.3483 22.9017C18.6451 22.1984 18.25 21.2446 18.25 20.25C18.25 19.2554 18.6451 18.3016 19.3483 17.5983C20.0516 16.8951 21.0054 16.5 22 16.5H28.75" stroke="#00355B" stroke-width="3" stroke-linecap="round" stroke-linejoin="round"/>
</svg>
