<svg width="49" height="48" viewBox="0 0 49 48" fill="none" xmlns="http://www.w3.org/2000/svg">
<path d="M17.25 30C22.6348 30 27 25.6348 27 20.25C27 14.8652 22.6348 10.5 17.25 10.5C11.8652 10.5 7.5 14.8652 7.5 20.25C7.5 25.6348 11.8652 30 17.25 30Z" stroke="#00355B" stroke-width="3"/>
<path d="M29.8872 10.8563C30.7491 10.6225 31.6379 10.5027 32.531 10.5C35.1168 10.5 37.5968 11.5272 39.4252 13.3557C41.2537 15.1842 42.281 17.6641 42.281 20.25C42.281 22.8359 41.2537 25.3158 39.4252 27.1443C37.5968 28.9728 35.1168 30 32.531 30" stroke="#00355B" stroke-width="3" stroke-linecap="round" stroke-linejoin="round"/>
<path d="M3.75 37.0124C5.2724 34.846 7.29382 33.0778 9.64351 31.8572C11.9932 30.6365 14.6022 29.9993 17.25 29.9993C19.8978 29.9993 22.5068 30.6365 24.8565 31.8572C27.2062 33.0778 29.2276 34.846 30.75 37.0124" stroke="#00355B" stroke-width="3" stroke-linecap="round" stroke-linejoin="round"/>
<path d="M32.5312 30C35.1793 29.9984 37.7888 30.6348 40.1387 31.8555C42.4887 33.0761 44.5099 34.8451 46.0312 37.0125" stroke="#00355B" stroke-width="3" stroke-linecap="round" stroke-linejoin="round"/>
</svg>
