<svg width="52" height="50" viewBox="0 0 52 50" fill="none" xmlns="http://www.w3.org/2000/svg">
<path d="M25.9524 49.1413C19.3398 49.1413 12.7286 49.1471 6.116 49.1399C1.03344 49.1342 -1.5521 44.5351 0.989176 39.9676C7.65018 27.9995 14.3236 16.0385 21.0178 4.09047C23.4263 -0.207334 28.5462 -0.224548 30.9464 4.05891C37.6627 16.0457 44.3625 28.044 51.0387 40.0537C53.5371 44.548 50.9322 49.1327 45.9202 49.1385C39.2647 49.1471 32.6078 49.1413 25.9524 49.1413ZM25.9289 45.3184C32.4999 45.3184 39.071 45.3212 45.6407 45.3169C48.218 45.3155 48.9788 43.9527 47.6895 41.6431C41.124 29.8816 34.557 18.12 27.986 6.3613C26.7368 4.12633 25.2482 4.12776 23.9976 6.3656C17.4266 18.1243 10.8582 29.8844 4.2927 41.6474C3.00339 43.957 3.76563 45.3155 6.34841 45.3169C12.8752 45.3198 19.402 45.3184 25.9289 45.3184Z" fill="#1697F3"/>
<path d="M27.7771 24.082C27.7771 25.9569 27.7757 27.8318 27.7771 29.7067C27.7785 30.9074 27.2223 31.6074 26.0506 31.6763C24.9273 31.7408 24.2218 30.9963 24.2135 29.6923C24.1927 25.9425 24.1941 22.1913 24.2121 18.4415C24.219 17.1346 24.9121 16.3743 25.9966 16.3772C27.0771 16.3815 27.7549 17.1432 27.7702 18.4558C27.7937 20.3307 27.7771 22.2056 27.7771 24.082Z" fill="#1697F3"/>
<path d="M26.0468 35.6943C27.5865 35.7144 28.8053 37.004 28.7652 38.5719C28.7264 40.137 27.4357 41.4209 25.9389 41.385C24.4269 41.3477 23.1929 40.0208 23.2192 38.4615C23.2468 36.885 24.4836 35.6743 26.0468 35.6943Z" fill="#1697F3"/>
</svg>
