<svg width="60" height="60" viewBox="0 0 60 60" fill="none" xmlns="http://www.w3.org/2000/svg">
<path d="M46.6262 35.638C43.074 31.9735 43.2026 26.4941 43.2043 26.4392H43.2027L43.2011 26.3574L42.0064 26.3983L40.8117 26.3574L40.8101 26.4392H40.8085C40.8101 26.4941 40.9387 31.9735 37.3865 35.638C35.2036 37.8902 32.0493 39.0324 28.0117 39.0324V41.4261C32.0497 41.4261 35.2036 42.5682 37.3865 44.8204C40.9388 48.4849 40.8101 53.9656 40.8085 54.0205H40.8101L40.8117 54.1023L42.0232 54.061L43.201 54.1023L43.2026 54.0205H43.2042C43.2026 53.9656 43.0739 48.4849 46.6261 44.8204C48.809 42.5682 51.9633 41.4261 56.0009 41.4261V39.0324C51.9634 39.0324 48.809 37.8906 46.6261 35.638H46.6262ZM44.8897 43.1725C43.637 44.4906 42.6571 46.0434 42.0064 47.7414C41.356 46.0434 40.3757 44.4905 39.123 43.1725C37.8747 41.8905 36.3686 40.8875 34.7048 40.2293C36.3691 39.5713 37.8751 38.5683 39.1234 37.2862C40.3762 35.9681 41.3561 34.4156 42.0065 32.7176C42.6573 34.4156 43.6368 35.9682 44.8895 37.2862C46.1383 38.5682 47.6439 39.5712 49.3082 40.2293C47.6443 40.8874 46.1386 41.8904 44.89 43.1725H44.8897Z" fill="#1697F3"/>
<path d="M16.8777 9.72677H16.8757L16.8741 9.64502L15.6964 9.6863L14.4853 9.64502L14.4837 9.72918H14.4817C14.4905 12.4903 13.5002 15.1609 11.6932 17.2485C9.62688 19.2049 6.83965 20.2136 4 20.0329V22.4266C6.83288 22.2471 9.61334 23.2502 11.6792 25.197C13.4874 27.2909 14.4821 29.9655 14.4817 32.7323H14.4837L14.4853 32.8141L15.6968 32.7728L16.8745 32.8141L16.8761 32.7323H16.8781H16.8777C16.8773 29.9655 17.872 27.2909 19.6802 25.197C21.7461 23.2498 24.5268 22.2467 27.3601 22.4266V20.0329C24.5268 20.2125 21.746 19.2094 19.6802 17.2625C17.872 15.1682 16.8773 12.4936 16.8777 9.72682L16.8777 9.72677ZM17.9438 23.549C16.9884 24.5521 16.2213 25.7195 15.6796 26.9947C15.1381 25.7195 14.3711 24.5521 13.4158 23.549C12.4632 22.5704 11.3319 21.7833 10.0836 21.2299C11.3319 20.6765 12.4632 19.8895 13.4158 18.9111C14.3711 17.9077 15.1382 16.7407 15.6796 15.4655C16.2214 16.7407 16.9884 17.9077 17.9438 18.9111C18.8964 19.8894 20.0276 20.6769 21.276 21.2299C20.0276 21.7834 18.8963 22.5704 17.9438 23.549Z" fill="#1697F3"/>
<path d="M42.7608 17.2882H45.1544V12.7902H49.6525V10.3965H45.1544V5.89844H42.7608V10.3965H38.2627V12.7902H42.7608V17.2882Z" fill="#1697F3"/>
<path d="M15.379 42.6697H12.9854V47.1677H8.4873V49.5618H12.9854V54.0599H15.379V49.5618H19.8771V47.1677H15.379V42.6697Z" fill="#1697F3"/>
</svg>
