<svg width="52" height="52" viewBox="0 0 52 52" fill="none" xmlns="http://www.w3.org/2000/svg">
<path d="M7.4461 32.7159C7.97513 32.159 8.50127 31.5999 9.03319 31.046C11.0994 28.8932 13.167 26.7419 15.2346 24.5891C15.6175 24.1899 15.9873 23.7764 16.3846 23.3938C17.9666 21.8726 20.4352 22.1744 21.6525 24.0284C21.7473 24.1726 21.8406 24.3182 21.9579 24.5C22.7366 23.5976 23.6448 22.9894 24.8368 22.9894C25.6206 22.9894 26.324 23.2339 26.9565 23.7183C28.3381 24.7762 28.6471 26.268 27.927 28.5046C29.2145 29.186 29.9491 30.2643 30.0033 31.7999C30.0576 33.3339 29.1783 34.3541 28.1485 35.2966C29.0162 35.7856 29.6458 36.4179 29.944 37.349C30.413 38.8129 30.1691 40.1372 29.1211 41.2374C26.3587 44.1388 23.5768 47.019 20.8021 49.9083C20.4041 50.3233 19.9966 50.7293 19.6123 51.1579C19.1434 51.68 18.3545 51.6438 17.9312 51.1873C17.4789 50.6998 17.5085 49.94 17.9934 49.4344C21.1582 46.1361 24.3237 42.8379 27.4885 39.5396C27.9574 39.0514 27.9806 38.247 27.542 37.7724C27.0723 37.2638 26.3291 37.2396 25.829 37.7558C24.2723 39.3615 22.7279 40.9808 21.1792 42.5941C20.6002 43.197 20.027 43.806 19.4401 44.3998C18.9422 44.9039 18.2388 44.9137 17.785 44.4436C17.3131 43.9539 17.3146 43.2197 17.8147 42.6968C20.1522 40.2519 22.4956 37.8139 24.8361 35.372C25.6785 34.493 26.523 33.6154 27.3553 32.7265C27.8025 32.2488 27.812 31.5041 27.4031 31.0573C26.9269 30.5374 26.2133 30.4597 25.7219 30.9442C24.8556 31.7991 24.0233 32.6925 23.1795 33.5724C21.3811 35.4467 19.5848 37.3241 17.7857 39.1978C17.3088 39.695 16.5525 39.689 16.1031 39.1932C15.6747 38.7201 15.7174 37.9512 16.1812 37.4683C19.1564 34.3692 22.1287 31.2664 25.1017 28.165C25.2804 27.9787 25.457 27.7893 25.6394 27.6066C26.151 27.095 26.1908 26.3148 25.7277 25.7881C25.2848 25.284 24.5582 25.2478 24.048 25.7647C22.7265 27.1041 21.4245 28.4639 20.1197 29.8213C18.073 31.9508 16.03 34.0847 13.9862 36.2179C13.5093 36.716 12.7965 36.7492 12.3318 36.2934C11.8737 35.8444 11.8651 35.0242 12.3355 34.5322C14.249 32.5318 16.1689 30.5382 18.086 28.5416C18.563 28.0443 19.0406 27.5478 19.5146 27.0467C20.0661 26.465 20.0987 25.7293 19.6008 25.2048C19.113 24.6917 18.3734 24.7181 17.8328 25.2795C16.7515 26.4031 15.6768 27.5335 14.5963 28.6585C12.8848 30.4401 11.1703 32.2179 9.45873 33.9995C8.67568 34.8144 7.89842 35.6346 7.11754 36.4511C6.72456 36.8616 6.21363 36.9974 5.76855 36.7869C5.27643 36.5545 5.06365 36.1229 5.06221 35.5773C5.05642 33.1905 5.05859 30.8046 5.05352 28.4178C5.05208 27.7508 4.63305 27.1826 4.0425 27.0218C3.43025 26.8551 2.79917 27.1064 2.50897 27.71C2.37581 27.9877 2.32732 28.3348 2.32659 28.651C2.31357 32.4601 2.31284 36.2692 2.32008 40.0784C2.32153 40.6805 2.12251 41.1295 1.58479 41.3785C0.976156 41.6607 0.198894 41.2502 0.050534 40.5681C0.0136249 40.3983 0.00711151 40.2187 0.00711151 40.0444C0.0056641 36.1991 0.028099 32.3515 0.00204556 28.5046C-0.013876 26.0801 2.02915 24.1205 4.51726 24.6532C6.05152 24.9815 7.29919 26.5072 7.34478 28.2164C7.38097 29.5482 7.35853 30.8815 7.36215 32.2149C7.36287 32.365 7.36215 32.5144 7.36215 32.6646C7.39037 32.682 7.41788 32.6993 7.4461 32.7159Z" fill="#1697F3"/>
<path d="M43.1017 19.1958C42.2752 16.9011 41.393 14.7294 39.6901 13.0761C37.9901 11.4259 35.8523 10.6517 33.6016 9.90388C34.2406 9.63826 34.8022 9.41415 35.3558 9.17193C36.4783 8.68145 37.5682 8.12759 38.5336 7.33755C39.7618 6.3332 40.5759 5.00966 41.1846 3.54276C41.6231 2.48559 41.9958 1.39899 42.3989 0.325979C42.4322 0.238448 42.4728 0.15318 42.5393 0C43.3969 2.26525 44.3312 4.40524 46.0291 6.05551C47.7189 7.69824 49.8198 8.52601 52.0011 9.28663C51.197 9.65486 50.4227 9.98763 49.6657 10.3612C47.7812 11.29 46.1195 12.523 45.0781 14.4563C44.51 15.5112 44.0765 16.6461 43.6032 17.7553C43.4158 18.1937 43.2862 18.66 43.1017 19.1958ZM42.9149 12.9607C43.7523 11.5647 44.7698 10.4328 45.9878 9.52659C45.3806 9.01649 44.772 8.56525 44.2335 8.03629C43.6857 7.49827 43.2066 6.88329 42.6848 6.28792C41.8945 7.60693 40.8821 8.76144 39.5729 9.70467C40.8994 10.5762 41.9625 11.6681 42.9149 12.9607Z" fill="#1697F3"/>
<path d="M4.53613 5.47337C4.8618 5.2319 5.16214 4.93384 5.51893 4.76029C6.17533 4.43959 6.8795 4.27208 7.61551 4.27283C11.8724 4.27585 16.1299 4.27358 20.3868 4.27358C24.847 4.27358 29.3065 4.27358 33.7667 4.27434C34.3695 4.27434 34.7958 4.61239 34.9564 5.21379C35.0867 5.69974 34.8761 6.25889 34.4028 6.51771C34.1915 6.63316 33.9208 6.67391 33.6769 6.67466C29.0112 6.68296 24.3455 6.67994 19.679 6.67919C15.8448 6.67919 12.0113 6.689 8.1771 6.6724C7.4505 6.66938 6.76588 6.76597 6.12612 7.13269C5.59636 6.57958 5.06589 6.02648 4.53613 5.47337Z" fill="#1697F3"/>
<path d="M45.5723 48.2491C46.0101 47.4432 45.9515 46.5596 45.9515 45.6813C45.9486 37.8502 45.95 30.02 45.95 22.1889C45.95 21.2721 45.9486 20.3553 45.9522 19.4392C45.9544 18.8137 46.3184 18.3043 46.8438 18.1776C47.4192 18.0387 47.9207 18.2764 48.1754 18.8695C48.2731 19.0982 48.2854 19.3804 48.2854 19.6377C48.2898 23.2816 48.2833 26.9247 48.2826 30.5685C48.2818 35.9095 48.2811 41.2504 48.2883 46.592C48.2898 47.7624 47.9482 48.809 47.3193 49.7651C47.2802 49.8247 47.2202 49.8699 47.1702 49.922C46.6368 49.3636 46.1042 48.8067 45.5723 48.2491Z" fill="#1697F3"/>
<path d="M45.572 48.2491C46.1047 48.8068 46.6366 49.3637 47.1692 49.9213C46.1604 51.3112 44.7861 51.9775 43.1476 51.9866C38.7945 52.0122 34.4421 51.9949 30.089 51.9949C28.4621 51.9949 26.8352 51.9949 25.2083 52.0009C24.6533 52.0032 24.2212 51.7904 23.9795 51.2531C23.6683 50.5619 24.0765 49.75 24.8016 49.6074C24.9659 49.5749 25.1367 49.5682 25.3046 49.5674C30.9828 49.5651 36.661 49.541 42.3385 49.5817C43.6303 49.5923 44.7499 49.3712 45.572 48.2491Z" fill="#1697F3"/>
<path d="M4.53423 5.47302C5.06399 6.02613 5.59446 6.57924 6.12422 7.13234C5.16748 7.8424 4.82154 8.83015 4.82806 10.0284C4.84832 13.5221 4.83602 17.0158 4.83457 20.5095C4.83457 21.0566 4.55594 21.4973 4.12027 21.6693C3.62815 21.8633 3.14327 21.7667 2.82339 21.3222C2.66128 21.0974 2.53897 20.7789 2.53752 20.5012C2.51943 16.8068 2.50423 13.1116 2.53608 9.41721C2.54983 7.87108 3.20913 6.59357 4.31423 5.56885C4.36995 5.51679 4.45969 5.50396 4.53423 5.47302Z" fill="#1697F3"/>
</svg>
