<svg width="881" height="472" viewBox="0 0 881 472" fill="none" xmlns="http://www.w3.org/2000/svg">
<line x1="1657.39" y1="394.508" x2="624.63" y2="-563.19" stroke="white"/>
<line x1="1624.63" y1="396.578" x2="591.872" y2="-561.12" stroke="white"/>
<line x1="1591.87" y1="398.649" x2="559.115" y2="-559.049" stroke="white"/>
<line x1="1559.11" y1="400.718" x2="526.358" y2="-556.979" stroke="white"/>
<line x1="1526.36" y1="402.788" x2="493.6" y2="-554.91" stroke="white"/>
<line x1="1493.6" y1="404.859" x2="460.843" y2="-552.839" stroke="white"/>
<line x1="1460.84" y1="406.929" x2="428.086" y2="-550.769" stroke="white"/>
<line x1="1428.09" y1="408.998" x2="395.329" y2="-548.7" stroke="white"/>
<line x1="1395.33" y1="411.069" x2="362.571" y2="-546.629" stroke="white"/>
<line x1="1362.57" y1="413.139" x2="329.814" y2="-544.559" stroke="white"/>
<line x1="1329.81" y1="415.209" x2="297.057" y2="-542.489" stroke="white"/>
<line x1="1297.06" y1="417.279" x2="264.3" y2="-540.419" stroke="white"/>
<line x1="1264.3" y1="419.349" x2="231.542" y2="-538.349" stroke="white"/>
<line x1="1231.54" y1="421.419" x2="198.785" y2="-536.279" stroke="white"/>
<line x1="1198.78" y1="423.49" x2="166.028" y2="-534.208" stroke="white"/>
<line x1="1166.03" y1="425.561" x2="133.27" y2="-532.137" stroke="white"/>
<line x1="1133.27" y1="427.63" x2="100.513" y2="-530.068" stroke="white"/>
<line x1="1100.51" y1="429.7" x2="67.756" y2="-527.998" stroke="white"/>
<line x1="1067.76" y1="431.77" x2="34.9985" y2="-525.928" stroke="white"/>
<line x1="1035" y1="433.839" x2="2.24144" y2="-523.859" stroke="white"/>
<line x1="1912.3" y1="377.812" x2="879.547" y2="-579.886" stroke="white"/>
<line x1="1879.55" y1="379.883" x2="846.79" y2="-577.815" stroke="white"/>
<line x1="1846.79" y1="381.952" x2="814.032" y2="-575.746" stroke="white"/>
<line x1="1814.03" y1="384.023" x2="781.275" y2="-573.675" stroke="white"/>
<line x1="1781.28" y1="386.093" x2="748.518" y2="-571.605" stroke="white"/>
<line x1="1748.52" y1="388.163" x2="715.761" y2="-569.535" stroke="white"/>
<line x1="1715.76" y1="390.233" x2="683.003" y2="-567.464" stroke="white"/>
<line x1="1683" y1="392.302" x2="650.246" y2="-565.395" stroke="white"/>
</svg>
