<svg width="588" height="678" viewBox="0 0 588 678" fill="none" xmlns="http://www.w3.org/2000/svg">
<line x1="586.255" y1="996.163" x2="-446.502" y2="38.4646" stroke="white"/>
<line x1="553.498" y1="998.232" x2="-479.259" y2="40.5345" stroke="white"/>
<line x1="520.741" y1="1000.3" x2="-512.017" y2="42.6052" stroke="white"/>
<line x1="487.983" y1="1002.37" x2="-544.774" y2="44.675" stroke="white"/>
<line x1="455.226" y1="1004.44" x2="-577.531" y2="46.7444" stroke="white"/>
<line x1="422.469" y1="1006.51" x2="-610.288" y2="48.8153" stroke="white"/>
<line x1="389.712" y1="1008.58" x2="-643.046" y2="50.8855" stroke="white"/>
<line x1="356.954" y1="1010.65" x2="-675.803" y2="52.9548" stroke="white"/>
<line x1="324.197" y1="1012.72" x2="-708.56" y2="55.0258" stroke="white"/>
<line x1="291.44" y1="1014.79" x2="-741.318" y2="57.0955" stroke="white"/>
<line x1="258.682" y1="1016.86" x2="-774.075" y2="59.1658" stroke="white"/>
<line x1="225.925" y1="1018.93" x2="-806.832" y2="61.2356" stroke="white"/>
<line x1="193.168" y1="1021" x2="-839.589" y2="63.3054" stroke="white"/>
<line x1="160.411" y1="1023.07" x2="-872.347" y2="65.3757" stroke="white"/>
<line x1="127.653" y1="1025.14" x2="-905.104" y2="67.446" stroke="white"/>
<line x1="94.8961" y1="1027.21" x2="-937.861" y2="69.517" stroke="white"/>
<line x1="62.139" y1="1029.28" x2="-970.618" y2="71.5862" stroke="white"/>
<line x1="29.3817" y1="1031.35" x2="-1003.38" y2="73.6565" stroke="white"/>
</svg>
