<svg width="79" height="60" viewBox="0 0 79 60" fill="none" xmlns="http://www.w3.org/2000/svg">
<path d="M40.0823 0.464672C40.0204 0.578673 39.9713 0.667294 39.9242 0.757163C38.7289 3.0276 38.6802 5.32592 39.7491 7.65503C39.826 7.82312 39.9234 7.86223 40.1007 7.85266C42.2688 7.7399 44.4195 7.88012 46.4953 8.54332C49.7926 9.59678 52.2496 11.6862 53.8689 14.7476C55.066 17.0106 55.418 19.4325 55.2216 21.9613C54.9798 25.0755 54.0769 27.9792 52.4896 30.6686C51.8892 31.6854 51.1998 32.6399 50.4242 33.5302C50.2699 33.7075 50.0793 33.8544 49.9374 34.0399C49.4814 34.6349 49.337 35.3085 49.4922 36.0416C49.5185 36.1651 49.4931 36.2417 49.397 36.3266C47.5063 37.9971 45.3848 39.2869 43.0107 40.1406C42.5767 40.2966 42.0882 40.3216 41.6214 40.3624C40.994 40.4173 40.3624 40.4289 39.7324 40.4576C39.6663 40.4606 39.5997 40.4522 39.5186 40.4481C39.6733 40.1394 39.834 39.8573 39.9604 39.5606C40.8592 37.452 40.8192 35.3576 39.8535 33.2781C39.7732 33.105 39.6838 33.0414 39.4799 33.0526C37.439 33.1658 35.4099 33.0401 33.4435 32.4701C29.9414 31.4553 27.348 29.2914 25.6692 26.0578C24.6847 24.1618 24.2666 22.1269 24.3211 19.9933C24.3764 17.8285 24.7513 15.7233 25.4832 13.6829C26.3162 11.3609 27.5436 9.26893 29.1475 7.39665C29.3631 7.14494 29.6223 6.92401 29.8012 6.64941C30.1524 6.10978 30.2389 5.50358 30.1008 4.87366C30.0733 4.74885 30.0933 4.67312 30.1894 4.58825C31.946 3.03634 33.9116 1.82852 36.0826 0.94231C37.0729 0.537899 38.1102 0.532906 39.1445 0.467585C39.4449 0.448446 39.7478 0.464672 40.0823 0.464672Z" fill="#3F4248"/>
<path d="M45.5571 29.3066C45.615 29.9494 45.6645 30.5502 45.7257 31.1497C45.7427 31.3187 45.692 31.4223 45.5413 31.5013C44.435 32.0805 43.2708 32.4903 42.0442 32.725C41.9086 32.7512 41.8258 32.7066 41.753 32.5906C41.4243 32.0688 41.084 31.5542 40.7573 31.0308C40.6621 30.8781 40.553 30.829 40.3704 30.8219C39.631 30.7944 38.8917 30.7524 38.1544 30.6917C37.8864 30.6696 37.6921 30.7237 37.5215 30.9421C37.1887 31.3678 36.8296 31.7726 36.4918 32.1945C36.369 32.3476 36.2454 32.378 36.0595 32.3176C34.8982 31.9407 33.8168 31.4044 32.8083 30.717C32.6651 30.6193 32.6373 30.499 32.6714 30.3397C32.8012 29.7372 32.9214 29.1327 33.0554 28.5311C33.087 28.39 33.0571 28.2931 32.9535 28.1995C32.3443 27.6486 31.813 27.0287 31.3429 26.3563C31.2613 26.2394 31.1673 26.2074 31.025 26.2228C30.3984 26.2897 29.7697 26.3418 29.1427 26.405C29.0133 26.4179 28.9334 26.3734 28.8747 26.2606C28.2826 25.1289 27.8749 23.9344 27.6386 22.6796C27.6086 22.5207 27.7001 22.4533 27.8083 22.3829C28.3134 22.0538 28.8144 21.7189 29.3237 21.3969C29.4851 21.2949 29.53 21.1718 29.5371 20.9858C29.5654 20.2394 29.5987 19.4922 29.6648 18.7487C29.6869 18.4982 29.6436 18.3318 29.4464 18.1745C29.0129 17.8292 28.5964 17.463 28.1691 17.1094C28.0305 16.9945 27.9827 16.8735 28.0409 16.6917C28.4212 15.5017 28.9692 14.3946 29.6611 13.3565C29.7506 13.2225 29.8575 13.2271 29.9856 13.255C30.581 13.3844 31.1781 13.508 31.7718 13.6453C31.9337 13.6827 32.0414 13.6552 32.155 13.5288C32.698 12.9234 33.308 12.3913 33.9649 11.9115C34.0411 11.8562 34.1014 11.716 34.0948 11.6203C34.049 10.9846 33.9774 10.3505 33.9312 9.71473C33.925 9.62861 33.9916 9.49297 34.0648 9.45262C35.1836 8.83352 36.3811 8.43285 37.6339 8.18987C37.7687 8.16366 37.8378 8.22524 37.9035 8.32801C38.2459 8.86556 38.5942 9.39978 38.9354 9.93816C39.0003 10.0405 39.0672 10.0983 39.1991 10.095C40.0388 10.073 40.8747 10.1025 41.7064 10.2415C41.8008 10.2573 41.9461 10.1728 42.0172 10.0913C42.4037 9.64692 42.7782 9.19216 43.1477 8.73325C43.2746 8.57556 43.3998 8.53895 43.5966 8.60302C44.7516 8.97789 45.8268 9.51086 46.8324 10.1903C46.978 10.2889 47.0267 10.3962 46.9855 10.5747C46.8478 11.1755 46.7301 11.7809 46.5961 12.3825C46.5674 12.5115 46.5811 12.6018 46.6822 12.6958C47.2926 13.2641 47.841 13.8887 48.3203 14.5714C48.3981 14.6825 48.4813 14.7075 48.6174 14.6929C49.2581 14.6251 49.8997 14.5681 50.5425 14.5227C50.6153 14.5177 50.7298 14.5893 50.7655 14.6571C51.3597 15.7713 51.7724 16.9504 52.0067 18.1928C52.04 18.3705 51.983 18.4732 51.8323 18.5668C51.3148 18.8884 50.8067 19.2263 50.2904 19.5504C50.1689 19.6265 50.1344 19.7172 50.1273 19.8562C50.0853 20.6646 50.0374 21.4726 49.9775 22.2798C49.9642 22.4582 50.0058 22.5793 50.1456 22.6929C50.6024 23.0644 51.0481 23.4497 51.5032 23.8233C51.6335 23.9303 51.668 24.0397 51.6172 24.204C51.2507 25.3923 50.7006 26.4903 50.0179 27.5263C49.8959 27.7114 49.742 27.6819 49.5789 27.6474C49.0097 27.5267 48.4405 27.4073 47.8747 27.2721C47.7182 27.2346 47.6292 27.2729 47.5127 27.3794C46.9314 27.9124 46.3419 28.4366 45.7427 28.9488C45.6071 29.0653 45.5139 29.1656 45.5571 29.3066Z" fill="white"/>
<path d="M39.8245 28.2178C44.11 28.2178 47.5842 24.7437 47.5842 20.4583C47.5842 16.1728 44.11 12.6987 39.8245 12.6987C35.5389 12.6987 32.0647 16.1728 32.0647 20.4583C32.0647 24.7437 35.5389 28.2178 39.8245 28.2178Z" fill="#3FA9F5"/>
<g clip-path="url(#clip0_1149_3215)">
<path d="M26.1484 50.8298C26.1484 50.9029 26.1484 50.9748 26.1484 51.0479C26.1484 53.6736 26.1473 56.298 26.1496 58.9237C26.1496 59.1534 26.138 59.3785 25.9152 59.5084C25.7969 59.578 25.6646 59.6453 25.5312 59.6639C25.3386 59.6906 25.139 59.6802 24.9441 59.6709C24.6192 59.6569 24.2746 59.3947 24.2781 58.9968C24.2955 57.0638 24.2862 55.1308 24.2862 53.199C24.2862 51.5491 24.2885 49.8993 24.2839 48.2482C24.2827 48.0057 24.3048 47.776 24.5264 47.6356C24.6436 47.5602 24.784 47.501 24.9209 47.4802C25.0961 47.4535 25.2782 47.4755 25.4569 47.4709C25.7447 47.4627 25.9663 47.6159 26.1345 47.8108C26.4443 48.167 26.7181 48.5557 27.0116 48.9258C27.2042 49.1695 27.4131 49.4004 27.6045 49.6452C27.767 49.8517 27.9132 50.071 28.0698 50.2821C28.2578 50.5351 28.448 50.7869 28.6395 51.0375C28.8123 51.2614 28.9887 51.483 29.1627 51.7058C29.476 52.1061 29.7928 52.5052 30.1025 52.9089C30.2615 53.1155 30.4042 53.3336 30.5608 53.5424C30.7558 53.8023 30.96 54.0541 31.1549 54.314C31.3997 54.6412 31.6352 54.9765 31.8835 55.3002C32.0726 55.5462 32.2826 55.7759 32.4718 56.0231C32.6435 56.2481 32.7897 56.4918 32.9602 56.7169C33.1447 56.9594 33.3443 57.1903 33.5357 57.427C33.5705 57.4699 33.6007 57.5186 33.6622 57.6079C33.7898 57.4455 33.9058 57.2947 34.0253 57.1473C34.1913 56.942 34.3641 56.7412 34.5266 56.5324C34.682 56.3328 34.8247 56.124 34.9791 55.9233C35.1879 55.6541 35.4072 55.3919 35.6149 55.1215C35.7762 54.9115 35.9247 54.6922 36.0848 54.4822C36.2785 54.2281 36.4793 53.981 36.6742 53.7281C36.8355 53.5192 36.9921 53.3058 37.1534 53.0969C37.3529 52.8382 37.5595 52.5841 37.7567 52.3219C37.9261 52.0956 38.0816 51.8578 38.2533 51.6338C38.4401 51.389 38.6408 51.1558 38.8322 50.9133C38.9947 50.708 39.1513 50.4968 39.3126 50.2903C39.5179 50.0292 39.728 49.774 39.931 49.5117C40.0865 49.3122 40.2338 49.1057 40.3835 48.9015C40.467 48.7878 40.5471 48.6706 40.6329 48.558C40.8116 48.3225 40.9833 48.0812 41.1771 47.8596C41.2769 47.7458 41.4092 47.6542 41.5426 47.5788C41.8558 47.4024 42.2016 47.4651 42.5334 47.4848C42.8258 47.5022 43.0915 47.8201 43.1031 48.1136C43.1054 48.1717 43.1043 48.2285 43.1043 48.2865C43.1043 51.8404 43.1031 55.3942 43.1078 58.948C43.1078 59.1836 43.0358 59.3785 42.8676 59.5212C42.7701 59.6036 42.6228 59.65 42.494 59.6639C42.277 59.6871 42.0554 59.6767 41.8373 59.6697C41.5519 59.6604 41.2838 59.4191 41.2514 59.1383C41.2235 58.8935 41.1968 58.6475 41.1968 58.4016C41.1933 55.9732 41.1945 53.5436 41.1922 51.1152C41.1922 51.0224 41.1667 50.9284 41.1481 50.7915C40.9462 51.0526 40.7861 51.2626 40.6213 51.4702C40.416 51.7278 40.2025 51.9784 40.0018 52.2395C39.837 52.4541 39.6908 52.6839 39.5272 52.8997C39.3335 53.1538 39.1258 53.3963 38.932 53.6492C38.7626 53.8708 38.606 54.104 38.4389 54.3268C38.2626 54.5611 38.0758 54.7885 37.8982 55.0229C37.7161 55.2631 37.542 55.5102 37.3587 55.7504C37.216 55.9384 37.064 56.1182 36.9178 56.3038C36.7798 56.479 36.6475 56.6589 36.5071 56.8317C36.2298 57.1752 35.9432 57.5128 35.6706 57.8597C35.4733 58.1115 35.297 58.3795 35.102 58.6324C34.8955 58.8993 34.6913 59.1685 34.4593 59.4121C34.3154 59.563 34.124 59.6697 33.8977 59.6732C33.7887 59.6743 33.6784 59.6732 33.5694 59.6743C33.1656 59.6802 32.8744 59.4829 32.64 59.1708C32.4346 58.897 32.2142 58.6348 32.0088 58.3621C31.8418 58.1405 31.6909 57.9073 31.5238 57.6868C31.3405 57.4432 31.1444 57.2077 30.9576 56.9675C30.7859 56.747 30.6177 56.5231 30.4495 56.3004C30.3752 56.2029 30.3033 56.1054 30.229 56.008C30.0561 55.7829 29.8809 55.5578 29.7081 55.3327C29.5189 55.0856 29.3321 54.8373 29.1419 54.5901C28.969 54.3662 28.7938 54.1435 28.6197 53.9195C28.4306 53.6759 28.2392 53.4334 28.0524 53.1862C27.8772 52.9554 27.7124 52.7163 27.5349 52.4866C27.347 52.243 27.1474 52.0086 26.9594 51.7649C26.7541 51.4992 26.558 51.2254 26.3538 50.9586C26.312 50.904 26.2505 50.8634 26.1983 50.8159C26.1797 50.8205 26.1635 50.8251 26.1484 50.8298Z" fill="#1C1E21"/>
<path d="M60.4917 52.3372C60.4917 53.7155 60.5021 55.0951 60.4836 56.4735C60.4801 56.7484 60.3815 57.0257 60.3002 57.2938C60.2399 57.4933 60.1622 57.6975 60.0485 57.8704C59.8675 58.1465 59.6911 58.4343 59.3836 58.6048C59.1725 58.722 58.9776 58.867 58.771 58.9924C58.6863 59.0434 58.5935 59.0863 58.4995 59.1177C58.3394 59.1699 58.1758 59.2082 58.0146 59.2557C57.815 59.3149 57.6201 59.3926 57.417 59.4356C57.2674 59.4681 57.1049 59.4414 56.9529 59.4704C55.8681 59.6792 54.7751 59.5365 53.6857 59.562C52.5904 59.5876 51.494 59.5713 50.3975 59.5562C50.0935 59.5516 49.7872 59.5029 49.4867 59.446C49.2152 59.395 48.9391 59.3346 48.6862 59.2302C48.301 59.0712 47.903 58.9135 47.5665 58.6768C47.208 58.425 46.8901 58.0943 46.7033 57.6848C46.5734 57.3993 46.4771 57.1 46.4364 56.7774C46.3251 55.898 46.3947 55.0185 46.3877 54.139C46.3726 52.184 46.3819 50.2278 46.3842 48.2717C46.3842 48.0257 46.4214 47.7855 46.6476 47.6301C46.7253 47.5767 46.8112 47.5036 46.8971 47.4978C47.2196 47.4769 47.541 47.4177 47.8636 47.543C48.2081 47.6776 48.287 47.9375 48.287 48.2635C48.2859 50.917 48.287 53.5705 48.2859 56.2252C48.2859 56.7345 48.4959 57.1592 48.8648 57.4771C49.0609 57.6453 49.3139 57.7637 49.5772 57.8565C49.9682 57.9957 50.3627 58.063 50.77 58.092C51.031 58.1106 51.2921 58.1477 51.5531 58.1489C52.9489 58.1547 54.3459 58.1593 55.7416 58.1465C56.0781 58.1431 56.4169 58.0908 56.7499 58.0305C56.9831 57.9887 57.2198 57.9226 57.4309 57.8193C57.7535 57.6616 58.0784 57.4852 58.2756 57.165C58.4183 56.9318 58.5575 56.6893 58.5587 56.4027C58.5622 53.6564 58.5657 50.9112 58.5657 48.1649C58.5657 47.9514 58.6527 47.7809 58.8 47.6405C58.8546 47.5883 58.9346 47.5523 59.0089 47.5326C59.3558 47.4398 59.7027 47.434 60.0519 47.5338C60.2573 47.5929 60.3687 47.7426 60.4615 47.9166C60.4789 47.9503 60.4894 47.9909 60.4917 48.0292C60.4986 48.115 60.4998 48.2021 60.4998 48.2879C60.4998 49.6373 60.4998 50.9878 60.4998 52.3372C60.4963 52.3372 60.494 52.3372 60.4917 52.3372Z" fill="#1C1E21"/>
<path d="M68.4327 59.5679C67.0416 59.5679 65.6516 59.5667 64.2605 59.569C63.9727 59.569 63.7465 59.4681 63.5771 59.2279C63.3821 58.9518 63.5562 58.3995 63.8555 58.2533C64.0829 58.1419 64.3104 58.1535 64.5401 58.1535C66.9812 58.1489 69.4212 58.1559 71.8624 58.1466C72.2685 58.1454 72.6757 58.0955 73.0783 58.0364C73.3429 57.9981 73.6074 57.9238 73.8557 57.8263C74.1481 57.7103 74.4254 57.5456 74.618 57.288C74.6969 57.1824 74.7526 57.0339 74.7572 56.9016C74.7746 56.4004 74.763 55.898 74.77 55.3956C74.7758 55.0336 74.5507 54.8004 74.2989 54.609C74.0413 54.4141 73.7304 54.3282 73.4113 54.2458C73.1503 54.1785 72.8857 54.2122 72.6398 54.1391C72.1907 54.0057 71.7371 54.0706 71.2881 54.0648C69.9375 54.0474 68.587 54.0729 67.2377 54.0428C66.8606 54.0347 66.4707 53.9894 66.1006 53.8664C65.915 53.8038 65.7108 53.798 65.5263 53.7353C65.2873 53.6541 65.0517 53.5555 64.8267 53.4395C64.6201 53.3339 64.4194 53.212 64.2384 53.0693C64.1224 52.9777 64.0423 52.8396 63.9541 52.7166C63.7117 52.3801 63.6026 52.0065 63.6142 51.5877C63.6293 51.0575 63.6188 50.5261 63.6177 49.9958C63.6177 49.6454 63.7337 49.3415 63.917 49.041C64.0806 48.7729 64.2929 48.5641 64.5401 48.3901C64.7048 48.274 64.8916 48.1859 65.0773 48.1058C65.3302 47.9956 65.5901 47.9051 65.8477 47.8053C65.8535 47.803 65.8593 47.8041 65.8651 47.803C66.1343 47.7624 66.4034 47.7229 66.6715 47.68C67.9605 47.4711 69.2588 47.622 70.5525 47.5744C70.7694 47.5663 70.947 47.6417 71.099 47.7914C71.2718 47.9608 71.3264 48.2613 71.2231 48.4794C71.179 48.5734 71.1581 48.6836 71.0943 48.7613C70.9829 48.8982 70.8275 48.9737 70.6465 48.9748C69.7751 48.9783 68.9038 48.9621 68.0336 48.9922C67.6101 49.0073 67.1912 49.1175 66.7677 49.1697C66.5183 49.1999 66.3013 49.2985 66.0844 49.4122C65.8419 49.5399 65.6307 49.6953 65.5657 49.9784C65.5274 50.1478 65.4926 50.3219 65.4845 50.4947C65.4706 50.7709 65.4834 51.0482 65.4799 51.3255C65.4752 51.7002 65.662 51.9915 65.9417 52.1933C66.1261 52.3268 66.3779 52.3778 66.6076 52.437C66.9139 52.5159 67.2272 52.5693 67.5382 52.6273C67.6229 52.6435 67.711 52.6412 67.7969 52.6424C69.0372 52.6435 70.2787 52.6389 71.519 52.6447C72.0028 52.647 72.4889 52.6528 72.9704 52.6957C73.3951 52.7329 73.8174 52.8141 74.2374 52.8965C74.4706 52.9429 74.7062 53.0078 74.922 53.1053C75.4011 53.3188 75.8896 53.5381 76.218 53.9697C76.4001 54.2087 76.544 54.4698 76.6159 54.7842C76.7934 55.5604 76.6925 56.3389 76.6855 57.114C76.6821 57.44 76.5637 57.7846 76.3433 58.0596C76.2156 58.2185 76.0857 58.3798 75.9372 58.5179C75.8119 58.6339 75.6634 58.7267 75.5149 58.8114C75.342 58.9089 75.1575 58.9878 74.9765 59.0713C74.8558 59.1258 74.734 59.1815 74.6075 59.2221C74.4416 59.2743 74.2722 59.3265 74.1005 59.3521C73.764 59.4031 73.4125 59.3904 73.0923 59.4878C72.7488 59.5922 72.41 59.5644 72.0701 59.5667C70.8565 59.5737 69.6452 59.5679 68.4327 59.5679Z" fill="#1C1E21"/>
<path d="M7.81536 59.5677C6.41378 59.5677 5.01105 59.5666 3.60947 59.5689C3.31709 59.5689 3.0978 59.4389 2.94117 59.2069C2.75785 58.9354 2.95857 58.397 3.24863 58.2508C3.47488 58.136 3.70345 58.1557 3.93202 58.1557C6.36737 58.1511 8.80157 58.158 11.2369 58.1476C11.6488 58.1464 12.0619 58.0965 12.4703 58.0374C12.7337 57.9991 12.997 57.9248 13.2453 57.8262C13.5377 57.7102 13.8115 57.5408 14.003 57.2844C14.0807 57.1799 14.1306 57.0303 14.1352 56.9003C14.1526 56.4223 14.1317 55.9419 14.1503 55.4639C14.1654 55.0694 13.9426 54.8211 13.6688 54.603C13.5203 54.4835 13.3416 54.4174 13.1537 54.3559C12.8207 54.2468 12.4854 54.1981 12.1408 54.1505C10.8274 53.9707 9.50932 54.1041 8.1936 54.0635C7.66917 54.0473 7.14358 54.0705 6.61915 54.0507C6.2908 54.038 5.95781 54.0055 5.63642 53.9359C5.25238 53.8535 4.8695 53.7479 4.50518 53.6029C4.23716 53.4961 3.98539 53.3326 3.7545 53.1562C3.56422 53.0112 3.3809 52.8302 3.26139 52.6271C3.13725 52.416 3.03747 52.1607 3.0247 51.9205C2.99222 51.258 3.00614 50.5932 3.00962 49.9295C3.01078 49.6035 3.13957 49.3239 3.30432 49.0408C3.4598 48.7751 3.66632 48.5802 3.90301 48.4096C4.07357 48.2866 4.27545 48.2066 4.46109 48.1022C4.66529 47.9885 4.88922 47.942 5.10967 47.8771C5.45658 47.7738 5.80581 47.7251 6.16085 47.6694C7.41276 47.4745 8.6693 47.6276 9.92237 47.5742C10.144 47.565 10.3261 47.6357 10.4839 47.7935C10.6359 47.9444 10.7079 48.282 10.6046 48.4642C10.5489 48.5628 10.6058 48.6916 10.4723 48.7797C10.3331 48.8726 10.2101 48.9735 10.0349 48.9747C9.14037 48.9781 8.24581 48.9712 7.35242 48.9886C7.00435 48.9955 6.65164 49.0315 6.31284 49.1058C6.0077 49.1731 5.70603 49.2856 5.42525 49.4248C5.06094 49.6047 4.86718 49.9226 4.86021 50.338C4.85557 50.6211 4.87298 50.9042 4.85557 51.1861C4.83005 51.6015 4.99828 51.9217 5.29879 52.1862C5.36144 52.2419 5.44266 52.2837 5.52271 52.3115C5.66078 52.3614 5.80349 52.4055 5.94737 52.4357C6.26759 52.503 6.59014 52.5633 6.91269 52.6213C6.99739 52.6364 7.08441 52.6399 7.17027 52.6399C8.41057 52.641 9.65203 52.6364 10.8923 52.6422C11.3704 52.6445 11.8507 52.6492 12.3264 52.6921C12.7569 52.7304 13.1861 52.8093 13.6108 52.8928C13.844 52.9381 14.0772 53.0077 14.2953 53.1017C14.7896 53.3128 15.2665 53.5623 15.6238 53.9776C15.7364 54.1088 15.7909 54.2898 15.8768 54.4441C16.1123 54.8676 16.0868 55.3305 16.0856 55.79C16.0844 56.1879 16.0844 56.5859 16.0786 56.9838C16.0752 57.2507 15.9754 57.492 15.8872 57.7415C15.77 58.0733 15.538 58.3112 15.3024 58.5444C15.1853 58.6604 15.0228 58.7335 14.8731 58.8136C14.7084 58.9017 14.539 58.9853 14.365 59.0549C14.1793 59.1291 13.989 59.1918 13.7964 59.2487C13.5679 59.3171 13.3358 59.374 13.1049 59.4366C13.0829 59.4424 13.0608 59.4505 13.0376 59.4529C12.526 59.4911 12.0155 59.5561 11.5026 59.5619C10.2739 59.5782 9.04522 59.5677 7.81536 59.5677Z" fill="#1C1E21"/>
<path d="M20.8508 53.5752C20.8508 55.3516 20.8519 57.1279 20.8484 58.9054C20.8484 59.0701 20.8751 59.2395 20.7394 59.3904C20.5978 59.547 20.4354 59.6479 20.2358 59.6677C20.0305 59.6886 19.8193 59.6886 19.6139 59.67C19.325 59.6433 18.977 59.4136 18.9886 59.0342C19.0071 58.4343 18.9932 57.8345 18.9932 57.2346C18.9932 54.218 18.9944 51.2013 18.9909 48.1847C18.9909 47.9596 19.0257 47.7589 19.2299 47.6347C19.3413 47.5675 19.4666 47.4978 19.5919 47.4839C19.8147 47.4596 20.0444 47.4526 20.2648 47.4804C20.5479 47.5164 20.8589 47.731 20.8566 48.1418C20.8438 49.9529 20.8508 51.7641 20.8508 53.5752Z" fill="#1C1E21"/>
</g>
<defs>
<clipPath id="clip0_1149_3215">
<rect width="73.8486" height="12.2244" fill="white" transform="translate(2.87036 47.4583)"/>
</clipPath>
</defs>
</svg>
