<svg width="74" height="13" viewBox="0 0 74 13" fill="none" xmlns="http://www.w3.org/2000/svg">
<path d="M23.2781 4.05073C23.2781 4.12383 23.2781 4.19576 23.2781 4.26886C23.2781 6.8945 23.2769 9.51898 23.2792 12.1446C23.2792 12.3743 23.2676 12.5994 23.0448 12.7294C22.9265 12.799 22.7942 12.8663 22.6608 12.8849C22.4682 12.9115 22.2686 12.9011 22.0737 12.8918C21.7489 12.8779 21.4043 12.6157 21.4077 12.2177C21.4251 10.2847 21.4159 8.35177 21.4159 6.41996C21.4159 4.77009 21.4182 3.12021 21.4135 1.46918C21.4124 1.22669 21.4344 0.996963 21.656 0.856573C21.7732 0.781157 21.9136 0.721984 22.0505 0.7011C22.2257 0.674414 22.4079 0.696459 22.5866 0.691818C22.8743 0.683696 23.0959 0.836848 23.2641 1.03177C23.5739 1.38797 23.8477 1.77665 24.1413 2.14677C24.3339 2.39042 24.5427 2.62131 24.7342 2.86612C24.8966 3.07264 25.0428 3.29193 25.1994 3.5031C25.3874 3.75603 25.5777 4.0078 25.7691 4.25842C25.942 4.48234 26.1183 4.70395 26.2924 4.92672C26.6056 5.327 26.9224 5.72613 27.2322 6.1299C27.3911 6.33642 27.5338 6.55455 27.6905 6.76339C27.8854 7.02329 28.0896 7.27506 28.2845 7.53495C28.5293 7.86214 28.7649 8.19746 29.0132 8.52116C29.2023 8.76714 29.4123 8.99687 29.6014 9.244C29.7731 9.46909 29.9193 9.71274 30.0899 9.93783C30.2743 10.1803 30.4739 10.4112 30.6654 10.6479C30.7002 10.6908 30.7303 10.7396 30.7918 10.8289C30.9194 10.6665 31.0355 10.5156 31.155 10.3683C31.3209 10.1629 31.4938 9.96219 31.6562 9.75335C31.8117 9.55378 31.9544 9.34494 32.1087 9.14422C32.3175 8.87504 32.5368 8.61282 32.7445 8.34249C32.9058 8.13248 33.0543 7.9132 33.2144 7.70319C33.4082 7.4491 33.6089 7.20196 33.8038 6.94903C33.9651 6.74019 34.1217 6.5267 34.283 6.31786C34.4826 6.05912 34.6891 5.80503 34.8863 5.54281C35.0557 5.31656 35.2112 5.07871 35.3829 4.85478C35.5697 4.60997 35.7704 4.37676 35.9619 4.13427C36.1243 3.92891 36.2809 3.71774 36.4422 3.51122C36.6476 3.25016 36.8576 2.99491 37.0606 2.73269C37.2161 2.53313 37.3635 2.32661 37.5131 2.1224C37.5967 2.0087 37.6767 1.89151 37.7626 1.77897C37.9413 1.54344 38.113 1.30211 38.3067 1.0805C38.4065 0.966796 38.5388 0.875137 38.6722 0.799721C38.9855 0.623363 39.3312 0.686016 39.6631 0.705741C39.9555 0.723144 40.2211 1.04105 40.2328 1.33459C40.2351 1.39261 40.2339 1.44946 40.2339 1.50747C40.2339 5.06131 40.2327 8.61514 40.2374 12.169C40.2374 12.4045 40.1655 12.5994 39.9972 12.7421C39.8998 12.8245 39.7524 12.8709 39.6236 12.8849C39.4067 12.9081 39.185 12.8976 38.9669 12.8907C38.6815 12.8814 38.4135 12.64 38.381 12.3593C38.3531 12.1144 38.3265 11.8685 38.3265 11.6225C38.323 9.19411 38.3241 6.76455 38.3218 4.33615C38.3218 4.24333 38.2963 4.14935 38.2777 4.01244C38.0759 4.2735 37.9157 4.48351 37.751 4.69119C37.5456 4.94876 37.3321 5.19938 37.1314 5.46043C36.9667 5.67508 36.8205 5.90481 36.6569 6.12061C36.4631 6.37471 36.2554 6.6172 36.0617 6.87013C35.8923 7.09174 35.7356 7.32495 35.5686 7.54772C35.3922 7.78209 35.2054 8.0095 35.0279 8.24387C34.8457 8.48404 34.6717 8.73117 34.4884 8.97134C34.3457 9.1593 34.1937 9.33914 34.0475 9.52478C33.9094 9.69998 33.7771 9.87981 33.6367 10.0527C33.3594 10.3961 33.0729 10.7338 32.8002 11.0807C32.603 11.3324 32.4266 11.6005 32.2317 11.8534C32.0252 12.1203 31.821 12.3894 31.5889 12.6331C31.445 12.7839 31.2536 12.8907 31.0274 12.8941C30.9183 12.8953 30.8081 12.8941 30.699 12.8953C30.2952 12.9011 30.004 12.7039 29.7696 12.3917C29.5643 12.1179 29.3438 11.8557 29.1385 11.5831C28.9714 11.3614 28.8206 11.1282 28.6535 10.9078C28.4702 10.6641 28.2741 10.4286 28.0873 10.1884C27.9156 9.96799 27.7473 9.74406 27.5791 9.5213C27.5048 9.42384 27.4329 9.32638 27.3586 9.22892C27.1858 9.00383 27.0106 8.77874 26.8377 8.55365C26.6486 8.30652 26.4618 8.05823 26.2715 7.81109C26.0986 7.58717 25.9234 7.3644 25.7494 7.14047C25.5603 6.89682 25.3688 6.65433 25.182 6.40719C25.0068 6.17631 24.8421 5.93729 24.6646 5.70757C24.4766 5.46391 24.277 5.22954 24.0891 4.98589C23.8837 4.7202 23.6876 4.44638 23.4834 4.17952C23.4417 4.12499 23.3802 4.08438 23.328 4.03681C23.3094 4.04145 23.2931 4.04609 23.2781 4.05073Z" fill="#1C1E21"/>
<path d="M57.6213 5.55812C57.6213 6.9365 57.6318 8.31603 57.6132 9.6944C57.6097 9.96938 57.5111 10.2467 57.4299 10.5147C57.3695 10.7143 57.2918 10.9185 57.1781 11.0913C56.9971 11.3675 56.8207 11.6552 56.5133 11.8258C56.3021 11.943 56.1072 12.088 55.9007 12.2133C55.816 12.2644 55.7232 12.3073 55.6292 12.3386C55.4691 12.3908 55.3055 12.4291 55.1442 12.4767C54.9446 12.5358 54.7497 12.6136 54.5467 12.6565C54.397 12.689 54.2346 12.6623 54.0826 12.6913C52.9977 12.9002 51.9048 12.7575 50.8153 12.783C49.72 12.8085 48.6236 12.7923 47.5272 12.7772C47.2232 12.7725 46.9169 12.7238 46.6164 12.667C46.3449 12.6159 46.0687 12.5556 45.8158 12.4512C45.4306 12.2922 45.0326 12.1344 44.6962 11.8977C44.3377 11.6459 44.0197 11.3153 43.8329 10.9057C43.703 10.6203 43.6067 10.3209 43.5661 9.99839C43.4547 9.11892 43.5243 8.23945 43.5174 7.35999C43.5023 5.40497 43.5116 3.44879 43.5139 1.49262C43.5139 1.24665 43.551 1.00647 43.7772 0.851001C43.855 0.79763 43.9408 0.724534 44.0267 0.718733C44.3493 0.697849 44.6706 0.638676 44.9932 0.763983C45.3378 0.898571 45.4167 1.15847 45.4167 1.4845C45.4155 4.13798 45.4167 6.79147 45.4155 9.44611C45.4155 9.95546 45.6255 10.3801 45.9945 10.698C46.1906 10.8663 46.4435 10.9846 46.7069 11.0774C47.0979 11.2166 47.4924 11.2839 47.8996 11.3129C48.1607 11.3315 48.4217 11.3686 48.6828 11.3698C50.0786 11.3756 51.4755 11.3802 52.8713 11.3675C53.2077 11.364 53.5465 11.3118 53.8795 11.2515C54.1127 11.2097 54.3494 11.1436 54.5606 11.0403C54.8831 10.8825 55.208 10.7061 55.4052 10.3859C55.548 10.1527 55.6872 9.91021 55.6883 9.62363C55.6918 6.87732 55.6953 4.13218 55.6953 1.38588C55.6953 1.17239 55.7823 1.00183 55.9297 0.861443C55.9842 0.809232 56.0643 0.773265 56.1385 0.753541C56.4854 0.660721 56.8323 0.65492 57.1816 0.754701C57.3869 0.813873 57.4983 0.963545 57.5912 1.13758C57.6086 1.17123 57.619 1.21184 57.6213 1.25013C57.6283 1.33598 57.6294 1.423 57.6294 1.50886C57.6294 2.85823 57.6294 4.20876 57.6294 5.55812C57.626 5.55812 57.6236 5.55812 57.6213 5.55812Z" fill="#1C1E21"/>
<path d="M65.5623 12.7888C64.1712 12.7888 62.7812 12.7877 61.3901 12.79C61.1024 12.79 60.8761 12.689 60.7067 12.4489C60.5118 12.1727 60.6858 11.6205 60.9852 11.4743C61.2126 11.3629 61.44 11.3745 61.6697 11.3745C64.1109 11.3698 66.5509 11.3768 68.992 11.3675C69.3981 11.3664 69.8054 11.3165 70.208 11.2573C70.4725 11.219 70.737 11.1448 70.9853 11.0473C71.2777 10.9313 71.555 10.7665 71.7476 10.5089C71.8265 10.4034 71.8822 10.2548 71.8869 10.1226C71.9043 9.62135 71.8927 9.11897 71.8996 8.61658C71.9054 8.25458 71.6803 8.02137 71.4286 7.82993C71.171 7.63501 70.86 7.54915 70.541 7.46677C70.2799 7.39948 70.0154 7.43313 69.7694 7.36003C69.3204 7.2266 68.8667 7.29158 68.4177 7.28578C67.0672 7.26837 65.7167 7.2939 64.3673 7.26373C63.9902 7.25561 63.6004 7.21036 63.2302 7.08737C63.0446 7.02472 62.8404 7.01892 62.6559 6.95627C62.4169 6.87505 62.1814 6.77643 61.9563 6.6604C61.7498 6.55482 61.549 6.43299 61.3681 6.29028C61.252 6.19862 61.172 6.06055 61.0838 5.93757C60.8413 5.6011 60.7322 5.2275 60.7438 4.80865C60.7589 4.27842 60.7485 3.74702 60.7473 3.21679C60.7473 2.86639 60.8633 2.56241 61.0467 2.26191C61.2103 1.99389 61.4226 1.78504 61.6697 1.61101C61.8345 1.49498 62.0213 1.4068 62.2069 1.32675C62.4598 1.21652 62.7197 1.12602 62.9773 1.02624C62.9831 1.02392 62.9889 1.02508 62.9947 1.02392C63.2639 0.983313 63.5331 0.943865 63.8011 0.900936C65.0901 0.692091 66.3884 0.842924 67.6821 0.795353C67.8991 0.787232 68.0766 0.862648 68.2286 1.01232C68.4015 1.18172 68.456 1.48222 68.3527 1.70035C68.3086 1.79433 68.2878 1.90455 68.224 1.98229C68.1126 2.1192 67.9571 2.19461 67.7761 2.19577C66.9048 2.19925 66.0334 2.18301 65.1632 2.21318C64.7397 2.22826 64.3209 2.33848 63.8974 2.39069C63.6479 2.42086 63.431 2.51948 63.214 2.63318C62.9715 2.76081 62.7603 2.91628 62.6954 3.19939C62.6571 3.36878 62.6223 3.54282 62.6142 3.7157C62.6002 3.99183 62.613 4.26913 62.6095 4.54643C62.6049 4.92119 62.7917 5.21241 63.0713 5.4143C63.2558 5.54773 63.5076 5.59878 63.7373 5.65795C64.0436 5.73685 64.3568 5.79022 64.6678 5.84823C64.7525 5.86447 64.8407 5.86215 64.9265 5.86331C66.1668 5.86447 67.4083 5.85983 68.6486 5.86563C69.1324 5.86795 69.6186 5.87375 70.1001 5.91668C70.5247 5.95381 70.947 6.03503 71.3671 6.11741C71.6003 6.16382 71.8358 6.22879 72.0516 6.32625C72.5308 6.53974 73.0192 6.75902 73.3476 7.19064C73.5298 7.42965 73.6736 7.6907 73.7456 8.00513C73.9231 8.78133 73.8221 9.55986 73.8152 10.3349C73.8117 10.6609 73.6934 11.0055 73.4729 11.2805C73.3453 11.4395 73.2153 11.6007 73.0668 11.7388C72.9415 11.8548 72.793 11.9476 72.6445 12.0323C72.4716 12.1298 72.2871 12.2087 72.1061 12.2922C71.9855 12.3468 71.8636 12.4025 71.7372 12.4431C71.5713 12.4953 71.4019 12.5475 71.2301 12.573C70.8937 12.6241 70.5421 12.6113 70.2219 12.7088C69.8785 12.8132 69.5397 12.7853 69.1997 12.7877C67.9861 12.7946 66.7748 12.7888 65.5623 12.7888Z" fill="#1C1E21"/>
<path d="M4.945 12.7887C3.54342 12.7887 2.14068 12.7875 0.739106 12.7898C0.446724 12.7898 0.227437 12.6599 0.0708038 12.4278C-0.112515 12.1563 0.0882075 11.618 0.378269 11.4718C0.604517 11.3569 0.833086 11.3766 1.06165 11.3766C3.49701 11.372 5.93121 11.379 8.36657 11.3685C8.77846 11.3674 9.19151 11.3175 9.59991 11.2583C9.86329 11.22 10.1267 11.1458 10.375 11.0471C10.6673 10.9311 10.9412 10.7617 11.1326 10.5053C11.2103 10.4009 11.2602 10.2512 11.2649 10.1213C11.2823 9.64324 11.2614 9.16289 11.28 8.68487C11.295 8.29039 11.0723 8.04209 10.7984 7.82397C10.6499 7.70446 10.4713 7.63833 10.2833 7.57684C9.95031 7.46777 9.615 7.41904 9.2704 7.37147C7.957 7.19163 6.63896 7.32506 5.32324 7.28445C4.79881 7.26821 4.27322 7.29141 3.74879 7.27169C3.42044 7.25893 3.08745 7.22644 2.76606 7.15683C2.38202 7.07445 1.99913 6.96887 1.63482 6.82384C1.3668 6.71709 1.11503 6.5535 0.884137 6.37714C0.693856 6.23211 0.510537 6.05111 0.391032 5.84807C0.266885 5.6369 0.167104 5.38165 0.154342 5.14148C0.121855 4.47898 0.135778 3.81415 0.139258 3.15049C0.140419 2.82446 0.269206 2.54484 0.433961 2.26174C0.589434 1.99605 0.795958 1.80113 1.03265 1.63057C1.2032 1.50758 1.40509 1.42753 1.59073 1.3231C1.79493 1.2094 2.01886 1.16299 2.23931 1.09802C2.58622 0.994754 2.93545 0.946024 3.29049 0.890332C4.5424 0.695411 5.79894 0.848563 7.05201 0.795192C7.27362 0.78591 7.45578 0.856685 7.61357 1.01448C7.76556 1.16531 7.8375 1.50294 7.73424 1.6851C7.67854 1.78372 7.7354 1.91251 7.60197 2.00069C7.46274 2.09351 7.33975 2.19445 7.16455 2.19561C6.27 2.19909 5.37545 2.19213 4.48206 2.20953C4.13399 2.21649 3.78127 2.25246 3.44248 2.32672C3.13734 2.39401 2.83567 2.50656 2.55489 2.64579C2.19058 2.82562 1.99681 3.14353 1.98985 3.5589C1.98521 3.842 2.00262 4.1251 1.98521 4.40704C1.95969 4.82241 2.12792 5.14264 2.42843 5.40717C2.49108 5.46287 2.5723 5.50463 2.65235 5.53248C2.79042 5.58237 2.93313 5.62646 3.077 5.65663C3.39723 5.72392 3.71978 5.78425 4.04233 5.84227C4.12703 5.85735 4.21405 5.86083 4.2999 5.86083C5.54021 5.86199 6.78167 5.85735 8.02198 5.86315C8.5 5.86547 8.98034 5.87011 9.45604 5.91304C9.88649 5.95133 10.3158 6.03023 10.7404 6.11376C10.9736 6.15901 11.2069 6.22863 11.425 6.32261C11.9192 6.53377 12.3961 6.78323 12.7535 7.19859C12.866 7.3297 12.9205 7.5107 13.0064 7.66501C13.2419 8.0885 13.2164 8.55144 13.2152 9.0109C13.2141 9.40887 13.2141 9.80683 13.2083 10.2048C13.2048 10.4717 13.105 10.713 13.0168 10.9624C12.8997 11.2943 12.6676 11.5321 12.4321 11.7653C12.3149 11.8814 12.1525 11.9544 12.0028 12.0345C11.838 12.1227 11.6686 12.2062 11.4946 12.2758C11.309 12.3501 11.1187 12.4127 10.9261 12.4696C10.6975 12.5381 10.4655 12.5949 10.2346 12.6576C10.2125 12.6634 10.1905 12.6715 10.1673 12.6738C9.6556 12.7121 9.1451 12.7771 8.63227 12.7829C7.40357 12.7991 6.17486 12.7887 4.945 12.7887Z" fill="#1C1E21"/>
<path d="M17.9804 6.79616C17.9804 8.5725 17.9816 10.3488 17.9781 12.1263C17.9781 12.2911 18.0048 12.4605 17.869 12.6113C17.7275 12.768 17.565 12.8689 17.3655 12.8886C17.1601 12.9095 16.9489 12.9095 16.7436 12.8909C16.4547 12.8643 16.1066 12.6345 16.1182 12.2551C16.1368 11.6553 16.1228 11.0554 16.1228 10.4556C16.1228 7.43894 16.124 4.42229 16.1205 1.40565C16.1205 1.18056 16.1553 0.979841 16.3595 0.855695C16.4709 0.788401 16.5962 0.718786 16.7215 0.704863C16.9443 0.680498 17.174 0.673536 17.3945 0.701382C17.6776 0.73735 17.9885 0.951995 17.9862 1.36272C17.9734 3.17387 17.9804 4.98501 17.9804 6.79616Z" fill="#1C1E21"/>
</svg>
