<svg width="61" height="60" viewBox="0 0 61 60" fill="none" xmlns="http://www.w3.org/2000/svg">
<g clip-path="url(#clip0_879_2358)">
<path d="M43.7631 55.1223C42.9269 54.1319 42.135 53.0857 41.215 52.1697C40.9635 51.9186 40.2298 51.8744 39.8735 52.0511C36.0561 53.9273 32.4762 53.4972 29.1899 50.9188C23.0783 46.1248 18.5971 40.0497 15.6368 32.9121C14.3372 29.7781 13.2937 26.5161 12.4296 23.2333C11.9755 21.5129 11.9918 19.6134 12.0919 17.8139C12.2945 14.1381 15.6461 9.33942 20.5489 9.46032C22.6311 9.51146 23.3298 10.0253 23.7351 12.0503C24.145 14.1009 24.5177 16.1585 24.909 18.2138C25.1326 19.3855 24.8135 20.3016 23.8283 21.0618C20.8144 23.3937 19.9224 26.4511 21.5271 29.9269C22.7382 32.5494 24.1706 35.1045 25.787 37.4992C27.9601 40.7262 31.2861 41.705 35.001 40.4961C36.112 40.1357 36.9458 40.3473 37.6957 41.2261C39.1794 42.9675 40.7073 44.6717 42.1956 46.4107C43.1063 47.4756 43.2111 48.3033 42.4029 49.4704C41.7577 50.4027 41.9347 51.0676 42.6521 51.8163C43.3764 52.5695 44.0216 53.3995 44.6877 54.2086C45.6613 55.3897 45.5658 55.9523 44.1986 56.6266C35.5669 60.8905 26.8002 61.1649 18.0404 57.1613C6.24354 51.7698 -0.655264 39.5986 0.65835 26.8347C1.97196 14.0823 11.4631 3.54099 24.1916 0.697579C40.9938 -3.05489 57.9915 8.7698 60.2065 25.8931C61.604 36.6925 57.9915 45.6947 49.8397 52.8997C49.665 53.0531 49.4973 53.281 49.297 53.3205C49.0012 53.3809 48.9313 53.2136 48.759 52.9834C48.5727 52.709 48.391 52.5951 48.4841 52.2743C48.5284 52.1208 48.766 52.0232 48.9127 51.8953C57.9217 43.8649 61.243 33.8839 58.0009 22.3173C54.782 10.8413 46.8119 3.85021 35.0429 1.82053C19.4449 -0.871763 4.77853 9.86021 2.23748 25.4188C-0.345493 41.2215 10.8598 56.2523 26.7303 58.2959C32.2596 59.0073 37.556 58.2238 42.6265 55.9128C42.9083 55.785 43.1831 55.6408 43.451 55.485C43.5418 55.4316 43.5977 55.3176 43.7631 55.1223Z" fill="#393C41"/>
<path d="M46.0249 33.3028C45.9038 34.614 45.8246 35.6951 45.6942 36.7716C45.6034 37.5226 45.4613 38.3084 44.3946 38.148C43.3535 37.9922 43.1299 37.3459 43.2859 36.3787C43.8961 32.603 43.3698 28.9667 41.7464 25.5095C39.5687 20.8689 36.0121 17.6954 31.2724 15.7726C30.8089 15.5843 30.2173 15.1217 30.1335 14.6962C29.9006 13.5384 30.7414 13.0501 32.027 13.5546C39.2612 16.3841 43.7261 21.6222 45.4729 29.1504C45.806 30.5733 45.8666 32.0589 46.0249 33.3028Z" fill="#393C41"/>
<path d="M49.9981 33.484C49.8258 34.9812 49.6581 36.4785 49.4811 37.9735C49.3996 38.6523 49.1387 39.2429 48.3305 39.1104C47.5223 38.9778 47.5037 38.3617 47.6155 37.6735C48.5587 31.8821 47.6574 26.4138 44.5783 21.3803C41.7089 16.6885 37.6539 13.4104 32.481 11.5155C32.1898 11.4086 31.7985 11.3737 31.6402 11.1645C31.4166 10.8669 31.2116 10.4019 31.2908 10.0787C31.3513 9.82761 31.8451 9.56024 32.1689 9.52769C32.5252 9.49049 32.9142 9.69276 33.2775 9.82063C43.0877 13.3197 49.891 22.9985 49.9981 33.484Z" fill="#393C41"/>
<path d="M38.8904 33.8351C39.0534 27.9762 35.59 22.6962 30.0654 20.276C29.5879 20.0667 28.9847 19.5087 28.9404 19.0647C28.8217 17.8208 29.6159 17.3651 30.813 17.8231C37.9471 20.555 42.4446 28.2227 41.3406 35.7625C41.2381 36.4646 41.0494 37.1202 40.1621 37.0156C39.284 36.9133 38.5829 36.5808 38.7809 35.4556C38.8741 34.9255 38.8578 34.3768 38.8904 33.8351Z" fill="#393C41"/>
<path d="M36.8414 33.4258C36.8414 33.6583 36.8763 33.8954 36.8344 34.1209C36.697 34.8696 36.8926 35.9995 35.6349 35.8065C33.9719 35.5508 33.5527 35.402 33.583 33.8419C33.6528 30.1313 31.9689 27.3018 28.6802 25.493C27.511 24.849 27.157 23.4238 28.1072 22.4915C28.3914 22.2125 29.2136 22.187 29.6281 22.3846C34.2724 24.5886 36.5852 28.3527 36.8414 33.4258Z" fill="#393C41"/>
</g>
<defs>
<clipPath id="clip0_879_2358">
<rect width="60" height="60" fill="white" transform="translate(0.5)"/>
</clipPath>
</defs>
</svg>
