<svg width="60" height="61" viewBox="0 0 60 61" fill="none" xmlns="http://www.w3.org/2000/svg">
<path d="M46.875 9.78467H38.4375C37.402 9.78467 36.5625 10.6241 36.5625 11.6597V49.1597C36.5625 50.1952 37.402 51.0347 38.4375 51.0347H46.875C47.9105 51.0347 48.75 50.1952 48.75 49.1597V11.6597C48.75 10.6241 47.9105 9.78467 46.875 9.78467Z" stroke="white" stroke-width="2" stroke-linecap="round" stroke-linejoin="round"/>
<path d="M21.5625 9.78467H13.125C12.0895 9.78467 11.25 10.6241 11.25 11.6597V49.1597C11.25 50.1952 12.0895 51.0347 13.125 51.0347H21.5625C22.598 51.0347 23.4375 50.1952 23.4375 49.1597V11.6597C23.4375 10.6241 22.598 9.78467 21.5625 9.78467Z" stroke="white" stroke-width="2" stroke-linecap="round" stroke-linejoin="round"/>
</svg>
