<svg width="32" height="33" viewBox="0 0 32 33" fill="none" xmlns="http://www.w3.org/2000/svg">
<path d="M0 16.3174C0 7.48083 7.16344 0.317383 16 0.317383C24.8366 0.317383 32 7.48083 32 16.3174C32 25.1539 24.8366 32.3174 16 32.3174C7.16344 32.3174 0 25.1539 0 16.3174Z" fill="#090A0B"/>
<path d="M23.3438 18.6923L19.6797 17.1298C19.4906 17.0451 19.2831 17.01 19.0767 17.0277C18.8703 17.0455 18.6718 17.1156 18.5 17.2314L16.5391 18.5361C15.3439 17.9556 14.3763 16.9935 13.7891 15.8017L15.0859 13.8173C15.201 13.6454 15.2712 13.4474 15.2903 13.2414C15.3094 13.0354 15.2768 12.8278 15.1953 12.6376L13.625 8.97358C13.5154 8.72617 13.3299 8.52009 13.0953 8.38524C12.8607 8.25038 12.5893 8.19376 12.3203 8.22358C11.2653 8.36178 10.2964 8.8784 9.59369 9.67737C8.891 10.4763 8.50235 11.5033 8.5 12.5673C8.5 18.7705 13.5469 23.8173 19.75 23.8173C20.814 23.815 21.841 23.4263 22.64 22.7236C23.4389 22.0209 23.9555 21.052 24.0938 19.997C24.1236 19.7281 24.0669 19.4566 23.9321 19.222C23.7972 18.9874 23.5912 18.8019 23.3438 18.6923Z" fill="white"/>
</svg>
