<svg width="41" height="48" viewBox="0 0 41 48" fill="none" xmlns="http://www.w3.org/2000/svg">
<path d="M38.2405 22.3241L4.51392 1.69911C4.23 1.52397 3.9045 1.42776 3.571 1.42038C3.2375 1.413 2.90806 1.49474 2.61668 1.65715C2.3253 1.81955 2.08252 2.05676 1.91339 2.34429C1.74426 2.63182 1.65491 2.95927 1.65454 3.29286V44.5429C1.65491 44.8764 1.74426 45.2039 1.91339 45.4914C2.08252 45.779 2.3253 46.0162 2.61668 46.1786C2.90806 46.341 3.2375 46.4227 3.571 46.4153C3.9045 46.408 4.23 46.3117 4.51392 46.1366L38.2405 25.5116C38.5174 25.3478 38.7469 25.1147 38.9063 24.8353C39.0657 24.5558 39.1496 24.2396 39.1496 23.9179C39.1496 23.5961 39.0657 23.2799 38.9063 23.0005C38.7469 22.721 38.5174 22.4879 38.2405 22.3241V22.3241Z" stroke="white" stroke-width="2" stroke-linecap="round" stroke-linejoin="round"/>
</svg>
