<svg width="33" height="32" viewBox="0 0 33 32" fill="none" xmlns="http://www.w3.org/2000/svg">
<path fill-rule="evenodd" clip-rule="evenodd" d="M7.16667 14.6667C7.16667 10.2547 10.7547 6.66667 15.1667 6.66667C19.5787 6.66667 23.1667 10.2547 23.1667 14.6667C23.1667 19.0787 19.5787 22.6667 15.1667 22.6667C10.7547 22.6667 7.16667 19.0787 7.16667 14.6667ZM28.1093 25.724L23.5827 21.196C24.9867 19.3907 25.8333 17.128 25.8333 14.6667C25.8333 8.78533 21.048 4 15.1667 4C9.28533 4 4.5 8.78533 4.5 14.6667C4.5 20.548 9.28533 25.3333 15.1667 25.3333C17.628 25.3333 19.8907 24.4867 21.696 23.0827L26.224 27.6093C26.484 27.8693 26.8253 28 27.1667 28C27.508 28 27.8493 27.8693 28.1093 27.6093C28.6307 27.088 28.6307 26.2453 28.1093 25.724Z" fill="currentColor"/>
</svg>
