<svg width="239" height="238" viewBox="0 0 239 238" fill="none" xmlns="http://www.w3.org/2000/svg">
<path d="M238.529 119.007C238.529 184.719 185.248 238 119.522 238C53.7969 238 0.529297 184.719 0.529297 119.007C0.529297 89.9431 10.9474 63.3161 28.2652 42.6442C30.4556 40.0294 32.7555 37.4968 35.1923 35.0737C42.7902 27.4073 51.456 20.7814 60.9294 15.4149C67.1994 11.8555 73.8254 8.85741 80.7388 6.47535C92.8955 2.28622 105.942 0 119.522 0C133.103 0 146.163 2.28622 158.306 6.47535C165.233 8.85741 171.859 11.8555 178.129 15.4149C183.537 18.4814 188.684 21.945 193.503 25.7919C203.373 33.6362 211.957 43.0002 218.912 53.5551C231.315 72.3241 238.529 94.8167 238.529 119.007Z" fill="#E5F4FF"/>
<path d="M103.865 130.068L100.574 143.469L111.768 146.218L115.059 132.817L103.865 130.068Z" fill="#426263"/>
<path d="M129.75 48.8731C105.395 42.8906 80.8079 57.7853 74.8254 82.1397C68.8429 106.467 83.7375 131.054 108.092 137.036C132.446 143.019 157.034 128.138 163.002 103.797C168.985 79.4428 154.104 54.8556 129.75 48.8731ZM110.762 126.194C92.417 121.69 81.1912 103.154 85.6952 84.8093C90.1992 66.451 108.735 55.2116 127.08 59.7293C145.438 64.2333 156.65 82.7831 152.133 101.141C147.642 119.472 129.106 130.698 110.762 126.194Z" fill="#085E9B"/>
<path d="M79.3148 210.976C78.3565 214.85 82.0665 219.094 87.5973 220.449C93.128 221.805 98.3713 219.765 99.3296 215.891L115.005 152.109C115.963 148.235 112.253 143.991 106.722 142.636C101.191 141.28 95.9481 143.32 94.9898 147.194L79.3148 210.976Z" fill="#090A0B"/>
<path opacity="0.6" d="M85.6947 84.7956C90.1987 66.4374 108.735 55.2253 127.093 59.7293C145.451 64.2333 156.663 82.7695 152.159 101.128C147.655 119.486 129.119 130.698 110.761 126.194C92.4027 121.676 81.177 103.14 85.6947 84.7956Z" fill="white"/>
<path d="M147.89 99.8546C147.684 100.69 147.452 101.497 147.178 102.278C149.601 87.1366 140.045 72.4199 124.877 68.6962C109.722 64.9726 94.4303 73.5835 89.5566 88.1223C89.6799 87.3146 89.8441 86.4795 90.0495 85.6581C93.9785 69.6819 110.105 59.9073 126.068 63.8363C142.044 67.7516 151.805 83.8921 147.89 99.8546Z" fill="#8BCBF9"/>
<path opacity="0.2" d="M74.8253 82.1397C69.3082 104.578 81.5471 127.221 102.589 135.298L100.823 142.471C97.8518 143.074 95.5793 144.785 94.9906 147.208L79.3156 210.99C78.3573 214.864 82.0673 219.108 87.598 220.463L129.749 48.8731C105.395 42.8906 80.8078 57.7853 74.8253 82.1397Z" fill="#E5F4FF"/>
</svg>
