<svg width="40" height="41" viewBox="0 0 40 41" fill="none" xmlns="http://www.w3.org/2000/svg">
<g clip-path="url(#clip0_192_340)">
<path d="M29.4471 20.0032C29.4466 20.3782 29.4486 20.7533 29.4461 21.1283C29.4436 21.4953 29.2866 21.6564 28.9111 21.6629C28.528 21.6694 28.1445 21.6714 27.7614 21.6619C27.6079 21.6579 27.5409 21.7119 27.5059 21.8614C27.3319 22.6045 27.0444 23.305 26.6608 23.9621C26.5538 24.1451 26.5778 24.2491 26.7248 24.3841C26.9824 24.6207 27.2264 24.8727 27.4694 25.1242C27.7374 25.4023 27.7429 25.6368 27.4784 25.9058C26.9464 26.4459 26.4103 26.9824 25.8698 27.5135C25.6202 27.7585 25.3772 27.7545 25.1257 27.512C24.8496 27.2459 24.5786 26.9749 24.3121 26.6994C24.2166 26.6009 24.1431 26.5744 24.0156 26.6569C23.316 27.1084 22.5549 27.4175 21.7438 27.5995C21.5913 27.6335 21.5413 27.7045 21.5433 27.8555C21.5503 28.3221 21.5493 28.7891 21.5443 29.2556C21.5408 29.6317 21.3883 29.7877 21.0087 29.7902C20.2337 29.7957 19.4591 29.7952 18.684 29.7902C18.3585 29.7882 18.196 29.6247 18.1905 29.2912C18.1819 28.7911 18.1849 28.291 18.1884 27.791C18.1895 27.6605 18.1679 27.5745 18.0174 27.5375C17.3084 27.364 16.6493 27.0649 16.0247 26.6919C15.8922 26.6129 15.8097 26.6209 15.7037 26.7319C15.4157 27.0329 15.1186 27.3255 14.8216 27.617C14.5441 27.8895 14.301 27.889 14.022 27.613C13.495 27.0909 12.9704 26.5669 12.4489 26.0398C12.1683 25.7563 12.1733 25.5333 12.4604 25.2422C12.7529 24.9457 13.0454 24.6492 13.3459 24.3606C13.449 24.2616 13.4605 24.1836 13.3839 24.0606C12.9544 23.368 12.6584 22.619 12.4709 21.8279C12.4339 21.6724 12.3648 21.6284 12.2168 21.6299C11.6838 21.6354 11.1502 21.6354 10.6172 21.6304C10.2041 21.6269 10.0601 21.4848 10.0571 21.0688C10.0516 20.3272 10.0531 19.5851 10.0566 18.8436C10.0586 18.4555 10.2361 18.276 10.6207 18.273C11.1707 18.269 11.7208 18.265 12.2703 18.2755C12.4354 18.2785 12.5039 18.2175 12.5469 18.066C12.7469 17.3574 13.0214 16.6793 13.4175 16.0563C13.498 15.9298 13.4735 15.8543 13.3744 15.7583C13.0629 15.4572 12.7569 15.1502 12.4534 14.8412C12.1698 14.5531 12.1703 14.3331 12.4559 14.0446C12.9719 13.5235 13.49 13.005 14.01 12.4879C14.313 12.1869 14.5346 12.1894 14.8451 12.4959C15.1476 12.7944 15.4512 13.092 15.7437 13.4C15.8602 13.5225 15.9442 13.5295 16.1042 13.4575C16.7243 13.1775 17.3534 12.917 17.9869 12.6699C18.1429 12.6094 18.2175 12.5559 18.2135 12.3794C18.2025 11.8879 18.2075 11.3963 18.2105 10.9042C18.2135 10.4782 18.397 10.2952 18.8225 10.2937C19.5476 10.2917 20.2722 10.2912 20.9972 10.2937C21.4203 10.2952 21.5688 10.4427 21.5728 10.8682C21.5773 11.3518 21.5803 11.8348 21.5708 12.3184C21.5673 12.4829 21.6253 12.5529 21.7833 12.5899C22.5594 12.7719 23.288 13.076 23.9671 13.4925C24.1031 13.576 24.1821 13.5565 24.2856 13.4485C24.5741 13.148 24.8706 12.855 25.1682 12.5634C25.4397 12.2974 25.6822 12.2954 25.9493 12.5599C26.4753 13.0825 26.9994 13.607 27.5214 14.1341C27.81 14.4251 27.8075 14.6541 27.5164 14.9497C27.2359 15.2347 26.9564 15.5212 26.6653 15.7958C26.5413 15.9128 26.5203 15.9998 26.6178 16.1538C26.9989 16.7559 27.2739 17.4074 27.4419 18.1005C27.4794 18.255 27.5519 18.3005 27.7004 18.2975C28.0755 18.29 28.4505 18.295 28.8251 18.2955C29.2991 18.296 29.4456 18.445 29.4471 18.9276C29.4481 19.2866 29.4471 19.6452 29.4471 20.0032ZM24.7086 20.1372C24.7126 17.4999 22.6314 15.3892 20.0231 15.3852C17.3984 15.3812 15.2636 17.4829 15.2616 20.0732C15.2596 22.7055 17.3639 24.8377 19.9716 24.8462C22.5794 24.8547 24.7046 22.742 24.7086 20.1372Z" fill="#3FA9F5"/>
<path d="M9.11011 35.3354C9.84386 34.768 10.5538 34.2193 11.2811 33.6564C13.4798 36.0859 16.1775 37.4212 19.4433 37.5198C21.4389 37.5804 23.3145 37.1143 25.1089 36.122C24.6821 35.6378 24.2752 35.1761 23.8039 34.6409C25.7189 34.5004 27.5571 34.365 29.4476 34.2264C29.0898 36.073 28.741 37.8699 28.3773 39.7475C28.044 39.3877 27.757 39.0782 27.4707 38.7675C26.9891 38.2446 26.9897 38.2446 26.3759 38.5837C20.7328 41.7005 13.7757 40.5367 9.46473 35.7538C9.35125 35.6274 9.24487 35.4946 9.11011 35.3354Z" fill="#3FA9F5"/>
<path d="M39.4371 12.0963C38.978 12.5193 38.6072 12.8888 38.2055 13.2221C37.9586 13.4272 37.9495 13.5819 38.114 13.8579C41.4804 19.519 40.2353 26.9307 35.2086 31.2152C35.1602 31.2565 35.1067 31.2907 35.0113 31.3616C34.4574 30.6459 33.9087 29.9373 33.3394 29.2023C35.8656 26.9056 37.2119 24.0808 37.2029 20.659C37.1984 18.7988 36.7361 17.0515 35.8063 15.3725C35.3214 15.7967 34.8591 16.201 34.3194 16.673C34.1795 14.7541 34.046 12.9242 33.9081 11.028C35.7612 11.3858 37.5466 11.7314 39.4371 12.0963Z" fill="#3FA9F5"/>
<path d="M4.94683 8.52557C5.48974 9.22774 6.01845 9.90282 6.52847 10.5914C6.56264 10.6372 6.47947 10.8203 6.40467 10.8893C5.47813 11.7398 4.68699 12.6992 4.10476 13.8147C2.32775 17.2204 2.28004 20.6616 3.94098 24.1253C4.0003 24.2491 4.07639 24.3645 4.16021 24.5115C4.64701 24.0834 5.11125 23.6753 5.6361 23.2136C5.77602 25.1266 5.91077 26.961 6.0494 28.8554C4.21566 28.5111 2.43027 28.1758 0.568801 27.8263C0.998222 27.4285 1.35672 27.061 1.7539 26.7405C2.03567 26.5129 2.04663 26.3388 1.86158 26.028C-1.47579 20.434 -0.214603 12.8901 4.74889 8.67452C4.79789 8.63325 4.85012 8.59779 4.94683 8.52557Z" fill="#3FA9F5"/>
<path d="M30.6843 5.49833C29.9809 6.04253 29.3103 6.55964 28.6423 7.07997C28.4669 7.21666 28.3953 7.06578 28.3057 6.96778C27.4578 6.03995 26.4991 5.24494 25.3836 4.66464C21.9418 2.87409 18.4722 2.83992 14.9872 4.546C14.9021 4.58791 14.8228 4.64207 14.6925 4.71944C15.1129 5.19916 15.5178 5.66082 15.9898 6.19921C14.0768 6.33848 12.245 6.47195 10.3435 6.60993C10.673 4.77941 10.9928 3.00176 11.3242 1.16092C11.4325 1.25764 11.5118 1.31889 11.5789 1.39111C11.8936 1.72962 12.2172 2.06039 12.5125 2.41566C12.6808 2.61747 12.8104 2.61102 13.0232 2.48207C14.4424 1.61871 15.9718 1.03519 17.6108 0.763096C21.3453 0.142821 24.7827 0.917197 27.9227 3.01917C28.9447 3.70328 29.8467 4.52795 30.6843 5.49833Z" fill="#3FA9F5"/>
</g>
<defs>
<clipPath id="clip0_192_340">
<rect width="40" height="39.7634" fill="white" transform="translate(0 0.555481)"/>
</clipPath>
</defs>
</svg>
