<svg width="41" height="41" viewBox="0 0 41 41" fill="none" xmlns="http://www.w3.org/2000/svg">
<g clip-path="url(#clip0_192_374)">
<path d="M0.976318 19.5425C1.01636 19.1217 1.0477 18.6995 1.09732 18.2796C1.30058 16.5622 1.77544 14.9169 2.46401 13.3325C3.64571 10.6127 5.41631 8.33235 7.71313 6.44902C9.49157 4.99039 11.4772 3.9042 13.6687 3.18915C15.078 2.72944 16.5217 2.44774 18.0012 2.34016C19.1106 2.25936 20.2175 2.28399 21.323 2.3933C24.5661 2.71302 27.4988 3.85193 30.1508 5.71625C33.0931 7.7845 35.1979 10.5116 36.562 13.8117C37.1087 15.1338 37.453 16.5116 37.668 17.9231C37.7185 18.2558 37.7811 18.5868 37.8443 18.9514C38.8819 18.9514 39.9156 18.9514 40.9493 18.9514C40.958 18.9717 40.9672 18.9921 40.9759 19.0124C39.4112 20.6028 37.846 22.1932 36.2891 23.7758C34.6634 22.1608 33.046 20.5539 31.4282 18.9467C31.4569 18.9445 31.5157 18.9372 31.574 18.9359C32.5089 18.9216 33.4439 18.9052 34.3788 18.8961C34.5751 18.8944 34.6199 18.8279 34.5916 18.6339C34.2534 16.341 33.5679 14.1681 32.3209 12.1941C30.0489 8.5985 26.8872 6.19324 22.7019 5.18093C21.1702 4.81066 19.6138 4.67672 18.0429 4.81973C14.5322 5.13902 11.4794 6.49309 8.90093 8.8802C6.615 10.9964 5.14689 13.5926 4.3247 16.5751C3.8703 18.2234 3.81633 19.9007 3.90208 21.5818C4.11796 25.8198 5.86549 29.3688 8.9475 32.2774C10.6981 33.93 12.7459 35.0939 15.0724 35.7546C16.7785 36.2389 18.5178 36.4463 20.2941 36.3115C23.9436 36.0345 27.0822 34.623 29.7412 32.1391C29.857 32.0311 29.974 31.9248 30.0685 31.8375C30.7553 32.4999 31.4334 33.1544 32.1377 33.8336C31.7803 34.1283 31.4391 34.4139 31.0935 34.6943C29.4017 36.0691 27.5188 37.1073 25.4574 37.8263C24.1208 38.2924 22.7493 38.6454 21.3378 38.7461C20.1913 38.8278 19.0314 38.8368 17.8841 38.769C15.535 38.6299 13.3235 37.9446 11.2178 36.9168C8.83565 35.7541 6.79693 34.1572 5.11381 32.1179C3.28837 29.9067 2.04442 27.4038 1.4107 24.6192C1.20091 23.6984 1.14433 22.7432 1.01854 21.8034C1.00243 21.6838 0.990246 21.5637 0.976318 21.4435C0.976318 20.8097 0.976318 20.1763 0.976318 19.5425Z" fill="#3FA9F5"/>
<path d="M28.082 20.7091C28.082 21.8216 28.082 22.8927 28.082 23.9814C24.1613 23.9814 20.2497 23.9814 16.3028 23.9814C16.3028 23.8955 16.3024 23.8056 16.3028 23.7153C16.3172 20.016 16.3085 16.3163 16.3655 12.6175C16.3772 11.8584 16.7903 11.1813 17.4562 10.7415C17.925 10.4322 18.6889 10.6322 18.9913 11.1044C19.3561 11.6739 19.5611 12.2909 19.5637 12.9752C19.5728 15.4941 19.5911 18.0134 19.6059 20.5323C19.6064 20.582 19.6059 20.6317 19.6059 20.7091C22.4329 20.7091 25.2485 20.7091 28.082 20.7091Z" fill="#3FA9F5"/>
</g>
<defs>
<clipPath id="clip0_192_374">
<rect width="40" height="36.5217" fill="white" transform="translate(0.976318 2.29266)"/>
</clipPath>
</defs>
</svg>
