<svg width="59" height="58" viewBox="0 0 59 58" fill="none" xmlns="http://www.w3.org/2000/svg">
<g clip-path="url(#clip0_578_2371)">
<path d="M4.95496 28.9831C5.05511 41.1842 14.0654 51.7333 25.9747 53.4842C39.4963 55.4726 52.2152 46.1649 54.1745 32.7526C54.4667 30.7504 54.3295 28.6769 54.2993 26.6376C54.2801 25.3948 54.9826 24.3443 56.1132 24.2194C57.3247 24.0848 58.2097 24.8483 58.3661 26.1625C60.1058 40.8258 49.2941 54.9288 34.6982 57.3897C18.9526 60.0455 3.94787 49.5581 1.33275 33.6122C-1.21515 18.0755 9.24124 3.56739 24.3571 0.733051C31.8403 -0.670387 38.7677 0.713826 45.2013 4.71129C46.8505 5.73572 46.9602 7.79968 45.3577 8.38742C44.6785 8.63597 43.6097 8.43823 42.9566 8.04549C38.5345 5.38005 33.7845 4.15101 28.6255 4.2746C17.2417 4.5465 6.70295 14.0506 5.34187 25.3578C5.19781 26.5635 5.08256 27.7746 4.95496 28.9831Z" fill="#004B81"/>
<path d="M26.9173 38.358C27.484 37.5698 27.7447 37.0809 28.1206 36.7033C35.3541 29.4417 42.5944 22.1869 49.8539 14.9514C50.3574 14.4502 50.9556 13.9105 51.606 13.721C52.7517 13.3859 53.8369 13.6825 54.5435 14.7811C55.2296 15.8481 55.0951 17.2598 54.1059 18.2732C52.0272 20.4045 49.9033 22.4904 47.7986 24.5956C41.7272 30.6707 35.6573 36.7472 29.5846 42.8196C27.4511 44.9523 26.3287 44.9509 24.2062 42.8293C20.9956 39.6214 17.7864 36.4108 14.5771 33.2002C14.3356 32.9585 14.0846 32.7251 13.8637 32.4655C12.836 31.2557 12.8676 29.6586 13.9281 28.6452C14.975 27.6455 16.594 27.6702 17.7287 28.7894C20.4056 31.4274 23.0536 34.0942 25.699 36.7637C26.0392 37.1098 26.2958 37.5382 26.9173 38.358Z" fill="#004B81"/>
</g>
<defs>
<clipPath id="clip0_578_2371">
<rect width="57.6" height="57.6" fill="white" transform="translate(0.949951 0.200195)"/>
</clipPath>
</defs>
</svg>
