<svg width="49" height="46" viewBox="0 0 49 46" fill="none" xmlns="http://www.w3.org/2000/svg">
<g clip-path="url(#clip0_578_2362)">
<path d="M0.25 14.7368C0.327333 14.2393 0.3844 13.7375 0.4852 13.2447C0.964133 10.9079 2.1044 8.91667 3.71827 7.18779C5.86973 4.88297 8.5092 3.34073 11.4601 2.29818C14.5487 1.20709 17.7391 0.790072 21.0009 0.931924C24.7092 1.09351 28.2335 1.96861 31.4911 3.79295C33.7156 5.03868 35.6292 6.64331 37.082 8.75775C38.7113 11.1287 39.4169 13.7503 39.2057 16.623C38.8756 21.1154 36.7199 24.5481 33.1017 27.119C30.6559 28.8569 27.9012 29.859 24.9695 30.4093C22.8185 30.813 20.6452 30.8829 18.4655 30.8338C18.0313 30.8242 17.5993 30.7549 17.1652 30.725C17.0809 30.7191 16.9673 30.7415 16.9097 30.7959C15.2132 32.4011 13.2831 33.6804 11.2617 34.828C9.91507 35.5928 8.51933 36.2561 6.99027 36.5772C6.7172 36.6348 6.418 36.6721 6.14867 36.6225C5.3844 36.4828 5.03987 35.6797 5.4132 34.9891C5.88627 34.1145 6.38067 33.2506 6.82173 32.36C7.3236 31.3473 7.722 30.2936 7.85533 29.1572C7.91933 28.6148 7.92627 28.6159 7.4004 28.3119C4.1572 26.4407 2.06867 23.6602 0.948133 20.1187C0.590267 18.9881 0.3844 17.8283 0.297467 16.646C0.291067 16.5601 0.266533 16.4753 0.25 16.39C0.25 15.8391 0.25 15.2877 0.25 14.7368ZM9.83027 32.304C9.84893 32.3206 9.86707 32.3376 9.88573 32.3542C10.5791 31.8465 11.2964 31.3687 11.9599 30.8247C13.1759 29.8286 14.3609 28.7951 15.5551 27.7728C15.6927 27.6549 15.8228 27.6053 16.0095 27.624C16.8575 27.7093 17.706 27.7947 18.5561 27.8474C20.2095 27.9504 21.858 27.8864 23.4996 27.6512C25.9903 27.2944 28.3407 26.5335 30.4809 25.1933C32.8623 23.7028 34.6873 21.7265 35.626 19.0377C36.5492 16.3943 36.5124 13.7876 35.1417 11.2807C34.0313 9.24943 32.3759 7.75519 30.4052 6.59639C27.6169 4.95709 24.5759 4.16358 21.3641 3.9572C18.7705 3.79028 16.2185 4.02493 13.7129 4.71872C11.1641 5.42424 8.8228 6.53826 6.8212 8.29594C5.25267 9.67339 4.0772 11.3153 3.5268 13.3573C3.0804 15.0131 3.1844 16.6737 3.57587 18.3157C4.36627 21.6316 6.14387 24.2313 9.19667 25.8722C9.69693 26.141 10.2105 26.3863 10.7119 26.654C10.7881 26.695 10.8831 26.8038 10.8793 26.8769C10.8079 28.2522 10.7177 29.6254 10.2596 30.9431C10.1039 31.3927 9.97267 31.8502 9.83027 32.304Z" fill="#004B81"/>
<path d="M48.25 28.4426C48.1903 28.8634 48.1412 29.2857 48.0692 29.7038C47.6212 32.3057 46.3012 34.3855 44.2223 35.9773C43.4921 36.5362 42.682 36.9916 41.8996 37.4806C41.7615 37.567 41.7007 37.6417 41.7119 37.8102C41.8505 39.8638 42.3817 41.8145 43.2569 43.6725C43.5977 44.3961 43.1364 45.1315 42.3401 45.0942C41.682 45.0633 41.0719 44.8372 40.4761 44.5812C38.994 43.9439 37.6708 43.0464 36.4425 42.0156C35.6612 41.3597 34.9375 40.636 34.1828 39.9481C34.1129 39.8846 34.0057 39.8228 33.9177 39.8249C32.9332 39.8489 31.9481 39.9214 30.9641 39.9129C27.9487 39.8857 25.0564 39.29 22.3439 37.9339C20.5103 37.0172 18.9076 35.7981 17.5737 34.2351C17.5188 34.1706 17.4697 34.1007 17.3865 33.9924C17.6596 33.9743 17.8852 33.9476 18.1113 33.946C19.2313 33.9365 20.3513 33.93 21.4708 33.9343C21.5828 33.9348 21.7129 33.9892 21.8036 34.0586C23.7855 35.5768 26.0383 36.4226 28.4964 36.7521C30.1407 36.9729 31.7935 36.9788 33.4447 36.8561C33.9561 36.8183 34.4623 36.7058 34.9695 36.6188C35.1263 36.5922 35.2255 36.6199 35.3231 36.7633C36.3156 38.2229 37.6164 39.3737 39.0116 40.4296C39.0303 40.444 39.0596 40.4446 39.0831 40.4515C39.018 39.6889 38.946 38.9317 38.8905 38.1733C38.8383 37.4555 38.8111 36.7362 38.7556 36.0189C38.738 35.7923 38.8089 35.6819 39.0137 35.572C39.9908 35.0478 40.9919 34.5561 41.9145 33.9466C43.3455 33.0011 44.4276 31.7271 44.8943 30.0462C45.4665 27.9835 45.4505 25.9314 44.4569 23.9759C43.9423 22.9627 43.1177 22.2129 42.2041 21.5623C42.0153 21.4279 41.9812 21.3165 42.0388 21.0861C42.2676 20.1667 42.4607 19.2383 42.6681 18.313C42.6793 18.2629 42.6991 18.2144 42.7369 18.0939C43.3876 18.5664 44.034 18.9892 44.6287 19.4756C46.6303 21.1133 47.7919 23.2293 48.1359 25.7928C48.178 26.1069 48.2127 26.4221 48.2505 26.7372C48.25 27.3052 48.25 27.8742 48.25 28.4426Z" fill="#004B81"/>
</g>
<defs>
<clipPath id="clip0_578_2362">
<rect width="48" height="44.1905" fill="white" transform="translate(0.25 0.905273)"/>
</clipPath>
</defs>
</svg>
