<svg width="49" height="48" viewBox="0 0 49 48" fill="none" xmlns="http://www.w3.org/2000/svg">
<path d="M31.0578 0C33.0529 1.9011 35.0781 3.77253 37.0227 5.72198C37.6027 6.3022 37.4985 7.11209 36.9108 7.70439C35.2248 9.4022 33.5208 11.0835 31.7844 12.7308C31.1138 13.367 30.3089 13.4011 29.5868 12.767C28.8792 12.1462 28.8759 11.2967 29.5868 10.5451C30.2921 9.8011 31.0523 9.10769 31.9434 8.24176C31.4889 8.19121 31.2291 8.13846 30.9694 8.13736C28.3307 8.13077 25.6908 8.13846 23.052 8.13077C21.8038 8.12747 21.0402 7.52308 21.0559 6.57912C21.0705 5.62967 21.8239 5.05165 23.0979 5.04725C25.9584 5.03846 28.8188 5.04505 31.9781 5.04505C31.2023 4.27912 30.5921 3.68022 29.9853 3.07912C28.6867 1.79011 28.7292 1.06264 30.1645 0C30.4623 0 30.7601 0 31.0578 0Z" fill="#004B81"/>
<path d="M20.1675 47.9996C18.3472 47.37 16.8783 46.3985 16.3387 44.4249C15.6592 41.9359 17.0272 39.3788 19.507 38.5843C21.998 37.7865 24.6826 39.0348 25.6074 41.4205C26.5668 43.8942 25.4081 46.5821 22.9518 47.5854C22.6182 47.7216 22.2868 47.8612 21.9532 47.9996C21.3587 47.9996 20.7631 47.9996 20.1675 47.9996ZM21.0934 44.9106C22.0114 44.8821 22.86 44.0084 22.8309 43.1205C22.8007 42.1909 21.951 41.4007 21.0117 41.4271C20.0522 41.4535 19.2562 42.2711 19.2842 43.2007C19.3122 44.1227 20.1754 44.9392 21.0934 44.9106Z" fill="#004B81"/>
<path d="M36.6953 47.9991C35.4705 47.5716 34.2917 47.098 33.5091 45.9738C32.3146 44.2584 32.3123 41.8661 33.5561 40.2584C34.8425 38.5958 37.1331 37.9222 39.1359 38.6167C41.1455 39.3134 42.4441 41.2167 42.368 43.3551C42.2919 45.5013 40.9059 47.2024 38.7586 47.7958C38.5862 47.843 38.425 47.931 38.2593 48.0002C37.7376 47.9991 37.2159 47.9991 36.6953 47.9991ZM39.2311 43.1958C39.2423 42.2364 38.4463 41.4266 37.4924 41.4266C36.5699 41.4266 35.7885 42.1705 35.7605 43.076C35.7292 44.0573 36.4714 44.8727 37.4309 44.9101C38.3589 44.9463 39.2199 44.1277 39.2311 43.1958Z" fill="#004B81"/>
<path d="M28.6775 37.2944C24.8019 37.2944 20.9251 37.2955 17.0495 37.2944C15.0065 37.2933 14.744 37.1141 14.2312 35.3218C12.1797 28.1493 10.1162 20.979 8.10239 13.7977C7.83624 12.8504 7.46678 12.3812 6.26242 12.4867C4.86238 12.6097 3.43926 12.5064 2.02586 12.5163C0.945453 12.524 0.331723 12.0042 0.256374 11.0878C0.178595 10.1427 0.819061 9.50425 1.82533 9.47238C4.24501 9.39656 6.66954 9.41084 9.09043 9.457C9.99827 9.47458 10.5184 10.0515 10.7432 10.8328C11.0775 11.9922 11.5356 13.1361 11.7143 14.3152C11.8941 15.5021 12.5273 15.6999 13.7232 15.6944C24.1797 15.6526 34.6374 15.6702 45.0939 15.6702C45.4171 15.6702 45.7404 15.6658 46.0625 15.6713C47.8794 15.6999 48.5648 16.4669 48.1175 18.046C47.2207 21.2119 46.2909 24.3713 45.3758 27.5328C44.6029 30.2031 43.8275 32.8724 43.0582 35.5427C42.6159 37.0801 42.3315 37.2911 40.5486 37.2933C36.5904 37.2977 32.6346 37.2944 28.6775 37.2944ZM17.4286 34.1339C17.6559 34.1812 17.7349 34.2108 17.8127 34.2108C24.9161 34.2163 32.0184 34.2141 39.1206 34.2339C39.7806 34.2361 40.0017 34.0031 40.1585 33.4471C41.1648 29.8592 42.2245 26.2823 43.2551 22.6999C43.6221 21.4229 43.9551 20.1383 44.3197 18.801C33.8158 18.801 23.5003 18.801 13.0268 18.801C14.5107 23.9691 15.9678 29.0449 17.4286 34.1339Z" fill="#004B81"/>
<path d="M25.4424 29.8547C25.4604 30.7184 24.8491 31.5052 24.015 31.5228C23.1642 31.5404 22.4779 31.1569 22.3648 30.2426C22.0715 27.8613 21.7827 25.4766 21.5767 23.0876C21.5028 22.2338 22.0312 21.6063 22.9324 21.503C23.8796 21.3942 24.5267 21.8525 24.6442 22.8085C24.9319 25.1536 25.1782 27.5052 25.4424 29.8547Z" fill="#004B81"/>
<path d="M34.6651 23.4912C34.4345 25.733 34.2419 27.9792 33.9542 30.2132C33.8434 31.0704 33.1728 31.5847 32.3018 31.5154C31.4487 31.4473 30.8083 30.9077 30.8788 30C31.0692 27.5737 31.2908 25.1473 31.6065 22.7341C31.7151 21.9088 32.3757 21.4121 33.297 21.488C34.2453 21.5649 34.6998 22.2561 34.6651 23.4912Z" fill="#004B81"/>
</svg>
