<svg width="41" height="41" viewBox="0 0 41 41" fill="none" xmlns="http://www.w3.org/2000/svg">
<g clip-path="url(#clip0_214_143)">
<path d="M39.4431 23.7518C39.423 23.8449 39.4084 23.938 39.3828 24.0292C39.3007 24.3268 39.14 24.5732 38.9118 24.7795C36.7194 26.7711 34.5288 28.7646 32.3383 30.7562C29.5361 33.3027 26.7359 35.8511 23.9337 38.3976C23.2966 38.9781 22.6596 39.5586 22.0188 40.1373C21.4054 40.6923 20.5237 40.6868 19.9104 40.1282C16.5515 37.0742 13.1908 34.0201 9.83188 30.9661C7.56646 28.9069 5.30468 26.8423 3.03561 24.7886C2.09731 23.938 2.50439 22.5031 3.55222 22.1709C3.74572 22.1088 3.96113 22.0888 4.16558 22.0869C5.60771 22.0796 7.04802 22.0833 8.49015 22.0833C8.54309 22.0833 8.59603 22.0833 8.66175 22.0833C8.66175 22.0048 8.66175 21.9445 8.66175 21.8825C8.66175 15.3162 8.66175 8.74995 8.65992 2.18368C8.65992 1.72914 8.78406 1.32936 9.10899 1.00442C9.40472 0.712345 9.76252 0.553528 10.1842 0.553528C17.3748 0.553528 24.5654 0.553528 31.7541 0.553528C32.5573 0.553528 33.22 1.18149 33.2711 1.98288C33.2766 2.07416 33.2784 2.16543 33.2784 2.25853C33.2784 8.79924 33.2784 15.3399 33.2784 21.8807C33.2784 21.9427 33.2784 22.0048 33.2784 22.0851C33.3423 22.0851 33.3952 22.0851 33.4463 22.0851C34.8994 22.0851 36.3543 22.0833 37.8074 22.0851C38.5486 22.0851 39.109 22.4593 39.3372 23.1074C39.3846 23.2425 39.4084 23.3867 39.4431 23.5272C39.4431 23.6021 39.4431 23.6769 39.4431 23.7518ZM8.03743 25.172C12.3657 29.1059 16.6665 33.0161 20.971 36.9299C25.2791 33.0143 29.5781 29.1041 33.9045 25.172C33.8206 25.172 33.7767 25.172 33.7311 25.172C33.0812 25.172 32.4314 25.1757 31.7815 25.1702C31.63 25.1684 31.473 25.1501 31.3251 25.1099C30.6387 24.9201 30.197 24.3177 30.197 23.582C30.197 16.992 30.197 10.4002 30.197 3.81019C30.197 3.7536 30.197 3.69701 30.197 3.63494C24.0396 3.63494 17.8987 3.63494 11.745 3.63494C11.745 3.69884 11.745 3.75725 11.745 3.81384C11.745 10.3874 11.745 16.9628 11.7432 23.5364C11.7432 23.6769 11.7359 23.8211 11.7048 23.9581C11.5387 24.6828 10.9272 25.1684 10.1806 25.172C9.52155 25.1738 8.86438 25.172 8.20538 25.172C8.16157 25.172 8.11775 25.172 8.03743 25.172Z" fill="#3FA9F5"/>
<path d="M19.4357 20.5663C19.4411 20.8054 19.4959 21.0336 19.6237 21.2399C19.8756 21.6488 20.2553 21.8587 20.7208 21.9153C21.2283 21.9774 21.7047 21.8861 22.0899 21.5228C22.8238 20.8328 22.5554 19.6097 21.5989 19.2793C21.4218 19.2173 21.2265 19.1826 21.0384 19.1771C20.2589 19.1588 19.5069 19.0238 18.8113 18.6587C17.5061 17.9741 16.6755 16.919 16.4291 15.4586C16.168 13.9088 16.6007 12.567 17.7726 11.4936C18.2126 11.0902 18.7274 10.8 19.2914 10.6028C19.4028 10.5645 19.432 10.5134 19.432 10.3983C19.4265 9.81054 19.4284 9.22274 19.4284 8.63676C19.4284 8.35198 19.5361 8.24063 19.819 8.24063C20.5894 8.2388 21.3597 8.2388 22.1319 8.24063C22.4057 8.24063 22.5152 8.35381 22.5171 8.63128C22.5171 9.1771 22.5189 9.72292 22.5152 10.2687C22.5152 10.36 22.5353 10.402 22.6284 10.4385C24.1564 11.0354 25.1366 12.1161 25.5054 13.7262C25.5419 13.8868 25.5602 14.0548 25.5711 14.2191C25.5839 14.3998 25.4506 14.5458 25.2699 14.5458C24.3626 14.5495 23.4535 14.5458 22.5463 14.5458C22.539 14.5458 22.5298 14.5422 22.5116 14.5367C22.5043 14.4674 22.5025 14.3943 22.4879 14.3213C22.3802 13.7372 21.9311 13.2972 21.3415 13.2005C20.8705 13.1238 20.4178 13.1658 20.0143 13.4469C19.5744 13.7536 19.3918 14.1881 19.4484 14.7138C19.5032 15.2085 19.7788 15.5572 20.2243 15.7726C20.4397 15.8766 20.6715 15.9277 20.9125 15.9277C21.9274 15.935 22.8712 16.1851 23.7091 16.7748C24.7022 17.4721 25.3466 18.4086 25.5364 19.6134C25.792 21.2308 25.1512 22.8974 23.6215 23.8649C23.3148 24.0584 22.9716 24.1972 22.6394 24.3487C22.5518 24.3889 22.5134 24.4235 22.5134 24.5258C22.5189 25.1136 22.5171 25.7014 22.5171 26.2874C22.5171 26.6032 22.4167 26.7017 22.0972 26.7017C21.3342 26.7017 20.5729 26.7017 19.8099 26.7017C19.5434 26.7017 19.4302 26.5904 19.4302 26.3239C19.4302 25.8237 19.4284 25.3235 19.432 24.8233C19.432 24.7375 19.4119 24.6974 19.3243 24.6627C17.7927 24.0657 16.807 22.9832 16.4382 21.3659C16.4017 21.2052 16.3853 21.0373 16.3743 20.8712C16.3634 20.6959 16.4966 20.5517 16.6701 20.5517C17.5773 20.548 18.4864 20.5499 19.3937 20.5499C19.4028 20.5535 19.4138 20.5608 19.4357 20.5663Z" fill="#3FA9F5"/>
</g>
<defs>
<clipPath id="clip0_214_143">
<rect width="36.9332" height="40" fill="white" transform="translate(2.50977 0.553528)"/>
</clipPath>
</defs>
</svg>
