<svg width="49" height="40" viewBox="0 0 49 40" fill="none" xmlns="http://www.w3.org/2000/svg">
<path d="M0.75 10.6158C0.855339 9.5438 1.01496 8.48437 1.37827 7.47143C2.58805 4.09572 4.7706 1.73869 7.98558 0.617284C11.6826 -0.67228 15.082 0.0824048 18.1072 2.68851C18.5361 3.0581 18.9053 3.50804 19.2874 3.93617C19.4084 4.07162 19.5207 4.13474 19.6986 4.13417C22.3761 4.12843 25.0537 4.15541 27.7301 4.11982C29.2145 4.10031 30.4969 5.43005 30.4963 7.08634C30.4963 7.85078 30.4963 8.61522 30.4963 9.32858C33.2856 9.13919 36.0637 9.29816 38.8385 9.23389C40.0381 9.20634 41.0479 9.65685 41.9535 10.458C42.7258 11.1415 43.3224 11.9869 43.9146 12.838C45.104 14.5471 46.3283 16.2292 47.4768 17.9687C48.3372 19.2726 48.7634 20.747 48.7495 22.3717C48.7226 25.4851 48.7409 28.5991 48.7419 31.7132C48.7425 33.234 47.8224 34.5259 46.4331 34.7927C45.7495 34.9242 45.0325 34.8587 44.3306 34.8805C44.2151 34.884 44.0995 34.8811 43.9662 34.8811C43.9592 34.7388 43.9528 34.6079 43.9463 34.4771C43.7432 36.0352 43.1117 37.3581 42.0191 38.4112C40.9195 39.4712 39.6103 39.994 38.1328 39.994C35.7837 39.9946 33.1164 38.2534 32.4994 34.9052C31.9893 34.8765 31.4664 34.9201 30.98 34.7985C30.499 34.6779 30.0546 34.391 29.5461 34.1545C29.2022 34.4679 28.7405 34.7669 28.1929 34.8231C27.6705 34.8771 27.1416 34.8765 26.616 34.8788C25.2219 34.8857 23.8272 34.8811 22.4331 34.8817C21.3034 34.8817 20.1742 34.8817 19.0445 34.8817C19.0015 34.8817 18.9585 34.8817 18.9188 34.8817C18.2437 38.4858 15.2921 40.1478 12.9231 39.9889C10.5648 39.831 8.17583 38.1271 7.5438 34.8794C7.15201 34.8794 6.7543 34.8782 6.35713 34.8794C5.66007 34.8817 4.95709 34.915 4.31001 34.5632C3.25125 33.9875 2.68909 33.0653 2.6821 31.7918C2.67082 29.7929 2.67942 27.7945 2.67888 25.7956C2.67888 23.2228 2.6821 20.6506 2.67189 18.0778C2.67135 17.8924 2.60794 17.6823 2.51281 17.5257C1.54326 15.9308 0.953153 14.1976 0.797295 12.2997C0.787083 12.1769 0.766661 12.0558 0.750537 11.9335C0.75 11.4962 0.75 11.056 0.75 10.6158ZM4.59163 20.0055C4.59163 20.2735 4.59163 20.4991 4.59163 20.724C4.59163 24.3505 4.59378 27.977 4.58787 31.6041C4.58733 31.9134 4.68192 32.1562 4.87325 32.3772C5.13445 32.6796 5.42628 32.8535 5.83635 32.83C6.40496 32.7967 6.97626 32.8219 7.5395 32.8219C8.1151 29.7246 10.4825 27.6941 13.0854 27.7142C16.2676 27.7383 18.1255 29.6196 18.9483 32.8219C18.9784 32.8219 19.023 32.8219 19.0676 32.8219C21.9585 32.8231 24.8494 32.826 27.7403 32.8242C28.2509 32.8237 28.5895 32.4277 28.5889 31.8618C28.5863 28.1808 28.5841 24.4998 28.5836 20.8182C28.5825 16.286 28.5836 11.7539 28.583 7.22178C28.583 6.51415 28.2762 6.18186 27.6253 6.18014C25.8749 6.1767 24.125 6.17268 22.3745 6.16924C21.8295 6.16809 21.2846 6.16924 20.7047 6.16924C21.8435 8.63932 22.1687 11.18 21.5941 13.8217C21.0169 16.4748 19.6932 18.6316 17.6692 20.2856C14.1113 23.1924 8.7423 23.554 4.59163 20.0055ZM11.3252 20.5174C16.102 20.5174 19.9136 16.3681 19.9426 11.3671C19.9721 6.27828 16.174 2.10083 11.3699 2.07385C6.52696 2.04688 2.67888 6.15661 2.67673 11.2908C2.67458 16.4175 6.51783 20.5174 11.3252 20.5174ZM43.9619 32.8254C44.5359 32.8254 45.0986 32.826 45.6608 32.8254C46.2885 32.8248 46.8163 32.2641 46.8163 31.5926C46.8174 29.0296 46.8168 26.4665 46.8163 23.9035C46.8163 23.803 46.8071 23.7026 46.8018 23.5878C46.654 23.5878 46.5384 23.5878 46.4223 23.5878C43.3793 23.589 40.3363 23.5918 37.2928 23.5901C35.6837 23.5895 34.3417 22.1531 34.339 20.4354C34.3374 19.1251 34.353 17.8149 34.3353 16.5047C34.3106 14.694 35.7047 13.3138 37.2778 13.3511C38.7036 13.3849 40.13 13.362 41.5563 13.3631C41.6461 13.3631 41.7364 13.3545 41.8724 13.3471C41.3645 12.6343 40.8012 12.0862 40.137 11.6558C39.7624 11.413 39.3641 11.2936 38.918 11.2954C36.5221 11.3057 34.1257 11.2994 31.7298 11.2994C30.9816 11.2994 30.4969 11.8182 30.4969 12.6193C30.4969 18.9122 30.4969 25.2051 30.4969 31.4979C30.4969 31.5938 30.4926 31.6896 30.5001 31.7849C30.5404 32.2739 30.9542 32.768 31.4078 32.8116C31.7695 32.8466 32.1361 32.8185 32.4967 32.8185C33.0626 29.6184 35.6063 27.7194 38.1344 27.6872C40.8093 27.6534 43.6207 29.8566 43.941 33.2598C43.948 33.11 43.9539 32.9901 43.9619 32.8254ZM46.7093 21.5499C46.4911 20.4738 46.1257 19.4993 45.5673 18.6339C44.8879 17.5802 44.1409 16.5764 43.4132 15.5595C43.3503 15.4711 43.2144 15.3942 43.1117 15.3942C41.1801 15.3844 39.248 15.3913 37.3165 15.3844C36.7957 15.3827 36.2432 15.9727 36.2572 16.5276C36.2889 17.8275 36.2652 19.1292 36.2701 20.4296C36.2706 20.5593 36.2878 20.7016 36.3389 20.817C36.5528 21.2997 36.9064 21.5527 37.4213 21.5516C40.4218 21.5476 43.4229 21.5493 46.4234 21.5493C46.5035 21.5499 46.5836 21.5499 46.7093 21.5499ZM38.1946 37.9343C40.3095 37.9326 42.0175 36.1161 42.0191 33.8676C42.0202 31.5697 40.3138 29.7211 38.1613 29.7406C35.9562 29.7602 34.3261 31.6391 34.3396 33.8756C34.3525 36.1644 36.1147 37.9727 38.1946 37.9343ZM9.39475 33.8268C9.36573 36.1362 11.1635 38.0003 13.3654 37.9435C15.3921 37.8912 17.0689 36.0559 17.0619 33.8148C17.0549 31.5289 15.319 29.689 13.1531 29.7424C10.9028 29.7975 9.38239 31.7246 9.39475 33.8268Z" fill="#004B81"/>
<path d="M12.2576 6.94886C12.2576 7.89523 12.2517 8.8416 12.264 9.78797C12.2657 9.92226 12.328 10.0818 12.4108 10.1845C12.8375 10.7137 12.9402 11.3008 12.687 11.9372C12.4366 12.568 11.9599 12.8693 11.3262 12.918C11.2166 12.9267 11.0876 12.9863 11.0091 13.0678C10.3878 13.7158 9.77784 14.3758 9.16247 15.03C8.71854 15.5018 8.12037 15.5328 7.73448 15.1075C7.34269 14.6759 7.37332 14.0469 7.80919 13.5809C8.4165 12.9318 9.02811 12.2867 9.62789 11.6296C9.71066 11.5389 9.76601 11.3915 9.78053 11.2629C9.82675 10.8537 9.95466 10.4939 10.2051 10.1736C10.2857 10.0703 10.3373 9.90734 10.3379 9.77132C10.3465 7.96467 10.3427 6.15802 10.3454 4.35137C10.3459 4.17059 10.347 3.9835 10.3894 3.81132C10.5055 3.33441 10.9667 3.03254 11.4482 3.09509C11.8964 3.15363 12.2538 3.58291 12.256 4.08106C12.2608 5.03661 12.2576 5.99274 12.2576 6.94886Z" fill="#004B81"/>
</svg>
