<svg width="40" height="41" viewBox="0 0 40 41" fill="none" xmlns="http://www.w3.org/2000/svg">
<g clip-path="url(#clip0_215_148)">
<path d="M0 27.1868C0.29636 26.5188 0.812246 26.3048 1.53119 26.3173C3.48262 26.3511 5.43484 26.3228 7.38627 26.3346C7.69125 26.3362 7.92254 26.2656 8.14912 26.05C9.13777 25.1092 10.2354 24.3236 11.5588 23.9245C14.5397 23.0252 17.2422 23.5678 19.6005 25.6047C20.1909 26.1143 20.7758 26.3856 21.5645 26.3417C22.55 26.2868 23.5418 26.3401 24.5305 26.3252C25.683 26.3079 26.6316 26.725 27.3827 27.5961C27.4251 27.6455 27.4541 27.7058 27.4925 27.7647C28.8834 26.8481 30.2232 25.9543 31.5741 25.0762C33.9113 23.556 36.7714 23.7175 38.8444 25.4918C39.1486 25.7521 39.4167 26.0602 39.6684 26.373C40.1874 27.0175 40.0933 27.7035 39.423 28.1982C37.205 29.8353 34.9823 31.4668 32.7603 33.0983C29.6689 35.3697 26.5611 37.619 23.4956 39.9256C22.8582 40.4054 22.2184 40.4603 21.523 40.3435C17.9384 39.7414 14.3421 39.1965 10.7811 38.4752C8.08013 37.9287 5.37368 38.0863 2.66332 38.0416C2.28621 38.0353 1.90596 38.0134 1.53198 38.0463C0.812246 38.1114 0.29636 37.8519 0 37.1839C0 33.851 0 30.5189 0 27.1868ZM2.35991 35.7013C3.92873 35.7013 5.45209 35.6707 6.97309 35.7123C7.96958 35.7397 8.97313 35.8048 9.95551 35.9671C13.8756 36.6139 17.7887 37.3015 21.7017 37.9899C21.9651 38.0361 22.1392 37.9804 22.3383 37.8338C27.1264 34.3104 31.9175 30.7918 36.7071 27.2715C36.7965 27.2056 36.8772 27.1296 36.9839 27.0402C36.9039 26.983 36.8561 26.9414 36.802 26.9116C35.4605 26.1629 34.1426 26.2178 32.8623 27.0512C31.3805 28.0163 29.9049 28.9916 28.4388 29.9803C28.2906 30.0806 28.1644 30.2923 28.1299 30.4719C27.8179 32.1019 26.4599 33.3288 24.8049 33.3445C21.6296 33.3743 18.4535 33.3586 15.2774 33.3524C14.6353 33.3508 14.1453 32.8373 14.1375 32.2061C14.1296 31.5538 14.6197 31.0395 15.2767 31.0183C15.5495 31.0097 15.8231 31.016 16.0967 31.016C18.8949 31.016 21.6939 31.0168 24.4921 31.0152C25.1397 31.0144 25.5897 30.7384 25.7684 30.2453C26.0577 29.4495 25.4838 28.6812 24.5736 28.6733C23.3372 28.6616 22.1008 28.6702 20.8644 28.6694C20.0545 28.6686 19.3332 28.4162 18.7052 27.905C18.3618 27.6259 18.0364 27.3232 17.6789 27.0637C15.9007 25.774 13.9815 25.5192 11.9242 26.2985C10.8603 26.7015 10.0739 27.491 9.24675 28.2202C8.89629 28.5283 8.51604 28.6788 8.04406 28.6757C6.28707 28.6624 4.53008 28.6702 2.7723 28.6702C2.6351 28.6702 2.49789 28.6702 2.35912 28.6702C2.35991 31.0372 2.35991 33.3492 2.35991 35.7013Z" fill="#3FA9F5"/>
<path d="M19.9823 21.6398C14.1712 21.6336 9.4451 16.8973 9.45216 11.0853C9.45843 5.22399 14.2065 0.460276 20.0247 0.477525C25.8288 0.494773 30.5415 5.26162 30.5361 11.1081C30.5306 16.9192 25.7943 21.6461 19.9823 21.6398ZM21.1639 2.93621C21.1639 3.78061 21.1764 4.59912 21.1568 5.41764C21.1505 5.69362 21.2462 5.81828 21.4908 5.9398C22.7837 6.58113 23.4454 7.64896 23.4963 9.08216C23.5191 9.72505 23.0228 10.2268 22.3901 10.266C21.7597 10.3052 21.2438 9.8599 21.1639 9.21073C21.1482 9.08216 21.1309 8.95201 21.1004 8.82578C20.8926 7.95787 19.8326 7.63799 19.1905 8.2558C18.8439 8.58901 18.7232 8.99748 18.8879 9.46476C19.0556 9.94223 19.3943 10.2182 19.9 10.2449C21.1717 10.3123 22.2356 10.7882 22.9287 11.8819C24.1039 13.7369 23.4101 16.0294 21.4281 16.9859C21.3199 17.0384 21.1795 17.1693 21.1756 17.2673C21.1529 17.9016 21.1639 18.5374 21.1639 19.1764C24.6724 18.7554 28.1268 15.6577 28.1903 11.1339C28.2475 7.08447 25.1036 3.40741 21.1639 2.93621ZM18.8228 2.94092C15.152 3.3933 11.7227 6.71206 11.8074 11.2312C11.896 15.9635 15.6796 18.8691 18.8236 19.1592C18.8236 18.6119 18.8055 18.0655 18.8306 17.5221C18.8447 17.2203 18.7475 17.08 18.4684 16.9404C17.1685 16.2889 16.488 15.2195 16.4793 13.7573C16.4746 12.978 17.214 12.4448 17.9604 12.6589C18.4731 12.8055 18.7632 13.1998 18.8196 13.8263C18.8792 14.4927 19.3536 14.9396 19.9949 14.9349C20.6135 14.9302 21.1043 14.4613 21.1443 13.8365C21.1827 13.2375 20.7452 12.7349 20.1 12.6393C19.9455 12.6165 19.791 12.5906 19.6358 12.5805C18.3704 12.4974 17.1215 11.5448 16.702 10.3397C16.063 8.50198 16.8118 6.72147 18.5703 5.87551C18.6699 5.82768 18.8102 5.71635 18.8118 5.63246C18.8298 4.73711 18.8228 3.84097 18.8228 2.94092Z" fill="#3FA9F5"/>
</g>
<defs>
<clipPath id="clip0_215_148">
<rect width="40" height="39.9192" fill="white" transform="translate(0 0.477539)"/>
</clipPath>
</defs>
</svg>
