<svg width="21" height="20" viewBox="0 0 21 20" fill="none" xmlns="http://www.w3.org/2000/svg">
<path d="M15.2687 17.1913C15.3134 17.6814 15.3545 18.1714 15.4044 18.6606C15.429 18.9052 15.4281 18.9148 15.2048 19.0305C14.3299 19.4823 13.4104 19.807 12.4409 19.9906C12.2964 20.0185 12.2097 19.9871 12.1292 19.8583C11.8612 19.4275 11.5792 19.0053 11.3068 18.5762C11.2447 18.4778 11.1737 18.4491 11.0555 18.4534C10.4188 18.4787 9.78304 18.4569 9.15425 18.342C8.96597 18.3081 8.82585 18.369 8.70675 18.5144C8.409 18.8773 8.10424 19.2351 7.80649 19.5981C7.72504 19.6982 7.64097 19.7225 7.51486 19.6816C6.55242 19.3717 5.65391 18.9348 4.81757 18.369C4.68183 18.2767 4.67658 18.1688 4.70723 18.0304C4.81407 17.5412 4.91303 17.0503 5.02337 16.5611C5.04614 16.4602 5.02075 16.3957 4.94981 16.3322C4.43575 15.87 3.98737 15.3495 3.59153 14.7854C3.52498 14.6914 3.44441 14.6941 3.34895 14.7028C2.83139 14.7506 2.31382 14.7941 1.79713 14.8464C1.68504 14.8577 1.62899 14.8159 1.57995 14.7245C1.09742 13.808 0.762882 12.8418 0.57197 11.8251C0.550952 11.7111 0.590361 11.6545 0.675308 11.5997C1.10705 11.3203 1.53441 11.0356 1.96878 10.7606C2.08613 10.6866 2.13167 10.5987 2.12641 10.4629C2.10102 9.82051 2.11766 9.17987 2.23939 8.54533C2.26741 8.3991 2.22975 8.28942 2.10715 8.19107C1.74459 7.89947 1.39079 7.59743 1.03436 7.298C0.849581 7.14394 0.842575 7.11347 0.916137 6.88803C1.22703 5.93752 1.66928 5.05055 2.22888 4.22103C2.29018 4.13051 2.35411 4.10701 2.46095 4.13051C2.97676 4.2454 3.49433 4.35073 4.00926 4.46649C4.1091 4.48912 4.17478 4.47085 4.24046 4.39773C4.70285 3.88505 5.21866 3.43155 5.78177 3.03028C5.83344 2.99373 5.87635 2.90146 5.87197 2.83879C5.82993 2.29999 5.77651 1.76294 5.72397 1.22501C5.71346 1.11969 5.76688 1.07007 5.8527 1.02394C6.71356 0.565225 7.62433 0.242295 8.58064 0.0499296C8.95371 -0.0249274 8.87139 -0.058004 9.08244 0.266667C9.33291 0.651397 9.58424 1.03613 9.82945 1.42434C9.88988 1.52009 9.95644 1.56274 10.0755 1.56013C10.7612 1.54185 11.4452 1.561 12.1213 1.69243C12.2404 1.71593 12.3096 1.63847 12.3761 1.55839C12.6835 1.19019 12.9961 0.827224 13.2956 0.452939C13.4051 0.316281 13.5111 0.291909 13.6731 0.345876C14.6136 0.658361 15.4973 1.07965 16.3161 1.63847C16.4361 1.72029 16.4781 1.80124 16.4422 1.95095C16.3266 2.43839 16.2311 2.93018 16.1225 3.41937C16.0963 3.536 16.1208 3.61434 16.2119 3.6979C16.7014 4.14966 17.1419 4.64493 17.5255 5.18808C17.592 5.28296 17.6533 5.32387 17.7856 5.3082C18.3163 5.2464 18.8487 5.20375 19.3812 5.16545C19.4346 5.16197 19.5178 5.22029 19.5458 5.27251C20.0196 6.1647 20.3576 7.1039 20.5538 8.09532C20.5923 8.28942 20.545 8.39039 20.3769 8.49049C19.9565 8.74118 19.5502 9.01449 19.136 9.27562C19.058 9.32524 19.0221 9.38181 19.0265 9.47582C19.0537 10.1678 19.0134 10.8546 18.8916 11.537C18.8724 11.6423 18.9127 11.7224 18.995 11.7903C19.3768 12.1045 19.7534 12.4248 20.1387 12.7356C20.2569 12.8313 20.2911 12.9219 20.2438 13.0716C19.9425 14.0264 19.5003 14.9125 18.9459 15.7464C18.8636 15.8709 18.7708 15.9039 18.6272 15.8717C18.1262 15.7586 17.6236 15.6507 17.12 15.5506C17.0587 15.5384 16.9624 15.568 16.9195 15.6132C16.4483 16.1181 15.9281 16.5663 15.3703 16.9737C15.3099 17.0172 15.2792 17.1008 15.2354 17.1661C15.2468 17.1756 15.2582 17.1835 15.2687 17.1913Z" fill="white"/>
<ellipse cx="10.5657" cy="9.9993" rx="6.27664" ry="6.23856" fill="#3FA9F5"/>
</svg>
