<svg width="33" height="32" viewBox="0 0 33 32" fill="none" xmlns="http://www.w3.org/2000/svg">
<path d="M23.5 23H9.225L5.7375 3.825C5.6967 3.59537 5.57691 3.38722 5.39887 3.23657C5.22082 3.08592 4.99572 3.00223 4.7625 3H2.5" stroke="currentColor" stroke-width="2" stroke-linecap="round" stroke-linejoin="round"/>
<path d="M10.5 28C11.8807 28 13 26.8807 13 25.5C13 24.1193 11.8807 23 10.5 23C9.11929 23 8 24.1193 8 25.5C8 26.8807 9.11929 28 10.5 28Z" stroke="currentColor" stroke-width="2" stroke-linecap="round" stroke-linejoin="round"/>
<path d="M23.5 28C24.8807 28 26 26.8807 26 25.5C26 24.1193 24.8807 23 23.5 23C22.1193 23 21 24.1193 21 25.5C21 26.8807 22.1193 28 23.5 28Z" stroke="currentColor" stroke-width="2" stroke-linecap="round" stroke-linejoin="round"/>
<path d="M8.3125 18H24.0125C24.48 18.0014 24.933 17.838 25.2919 17.5386C25.6508 17.2391 25.8927 16.8227 25.975 16.3625L27.5 8H6.5" stroke="currentColor" stroke-width="2" stroke-linecap="round" stroke-linejoin="round"/>
</svg>
