<svg width="60" height="60" viewBox="0 0 60 60" fill="none" xmlns="http://www.w3.org/2000/svg">
<path d="M55.9986 29.9911C56.0763 44.1347 44.4436 55.8825 30.2439 55.999C15.8788 56.1169 4.04326 44.4482 4.00012 30.1248C3.95698 15.7252 15.5379 4.08382 29.9864 4.00041C44.2149 3.91988 55.921 15.6144 55.9986 29.9911ZM30.0353 52.9962C42.5065 53.0336 52.9441 42.6678 52.9873 30.1967C53.0319 17.4912 42.7581 7.03766 30.1935 7.00459C17.5369 6.97151 7.0575 17.2222 7.00717 29.6833C6.9554 42.6161 17.1702 52.956 30.0353 52.9962Z" fill="#1697F3"/>
<path d="M45.4142 42.7838C45.0158 43.1491 44.5873 43.861 44.1185 43.8883C43.5633 43.9199 42.6962 43.5086 42.4459 43.0341C41.1488 40.5764 39.9724 38.0539 38.8263 35.5215C38.438 34.6629 37.962 34.3422 36.9869 34.3537C32.2714 34.4127 27.5545 34.3983 22.8376 34.3624C22.0624 34.3566 21.6554 34.5781 21.3074 35.2942C20.0764 37.8282 18.7663 40.3233 17.4735 42.8255C16.8954 43.9444 16.2094 44.2507 15.3321 43.8308C14.4477 43.408 14.2435 42.5322 14.8144 41.4162C19.4638 32.3131 24.106 23.2056 28.81 14.1298C29.0961 13.5776 29.877 12.988 30.4479 12.9679C30.9369 12.9506 31.6646 13.6236 31.9263 14.1643C36.301 23.2229 40.621 32.3088 44.9454 41.3918C45.1107 41.7383 45.1956 42.1223 45.4142 42.7838ZM30.3041 17.738C27.9356 22.383 25.6907 26.7851 23.3869 31.3021C27.9356 31.3021 32.2772 31.3021 36.7756 31.3021C34.6184 26.7822 32.5087 22.36 30.3041 17.738Z" fill="#1697F3"/>
</svg>
