<svg width="60" height="60" viewBox="0 0 60 60" fill="none" xmlns="http://www.w3.org/2000/svg">
<g clip-path="url(#clip0_952_2310)">
<path d="M9.58833 56.0005C8.90426 55.6772 8.68364 55.1097 8.70445 54.391C8.73775 53.2074 8.71417 52.0224 8.78216 50.8416C8.9112 48.5841 10.7969 46.7761 13.0128 46.5707C13.1432 46.5582 13.2751 46.5485 13.4541 46.5346C13.4541 46.3099 13.4541 46.1114 13.4541 45.9116C13.4541 40.6639 13.4513 35.4176 13.4554 30.1698C13.4582 27.0062 14.2297 24.0479 15.9156 21.3561C18.2827 17.575 21.6059 15.0122 25.9518 13.9854C32.3081 12.484 37.807 14.1588 42.2708 18.9362C45.1916 22.0609 46.5472 25.8545 46.5625 30.1185C46.5819 35.3829 46.5667 40.6472 46.5667 45.9116C46.5667 46.11 46.5667 46.3099 46.5667 46.536C47.6143 46.5777 48.537 46.8635 49.3459 47.4629C50.7141 48.4786 51.2968 49.88 51.3107 51.5465C51.319 52.4942 51.2982 53.4419 51.3176 54.3896C51.3315 55.1083 51.1165 55.6759 50.4324 55.9992C36.8149 56.0005 23.2016 56.0005 9.58833 56.0005ZM44.1787 46.5222C44.1787 46.296 44.1787 46.1295 44.1787 45.9616C44.1787 40.7485 44.1842 35.5341 44.1717 30.3211C44.1704 29.5454 44.1315 28.7628 44.0205 27.9955C43.4974 24.356 41.7976 21.3436 38.9573 19.0305C35.7673 16.433 32.0778 15.4326 27.9998 15.9848C24.8445 16.4122 22.136 17.7984 19.9159 20.0698C17.1477 22.9018 15.8282 26.336 15.8351 30.2919C15.8448 35.523 15.8365 40.7527 15.8393 45.9838C15.8393 46.1614 15.8615 46.3376 15.8726 46.5208C25.3232 46.5222 34.7128 46.5222 44.1787 46.5222ZM48.8908 53.6001C48.8908 52.6926 48.9533 51.8101 48.8728 50.9415C48.7951 50.0965 48.2942 49.4457 47.4963 49.1363C47.069 48.9698 46.5736 48.9171 46.1088 48.9171C35.3746 48.906 24.6391 48.9074 13.905 48.9101C13.6525 48.9101 13.3972 48.9282 13.1474 48.9629C12.079 49.1113 11.2367 49.887 11.141 50.9429C11.0619 51.8115 11.1243 52.694 11.1243 53.6001C23.7247 53.6001 36.2946 53.6001 48.8908 53.6001Z" fill="#1697F3"/>
<path d="M4 17.9108C4.48981 16.9604 5.04067 16.7814 6.0175 17.267C7.43697 17.9733 8.85505 18.6782 10.269 19.3955C10.9322 19.7313 11.1945 20.2378 11.0418 20.8136C10.8476 21.5435 10.1524 21.9542 9.47668 21.6336C7.83243 20.8525 6.21176 20.0241 4.59804 19.1804C4.35105 19.0514 4.19703 18.7448 4 18.52C4 18.316 4 18.1134 4 17.9108Z" fill="#1697F3"/>
<path d="M55.9962 18.4157C55.9671 18.7736 55.659 19.0942 55.2317 19.3092C53.7248 20.0682 52.2179 20.8244 50.7027 21.5654C50.0505 21.8831 49.379 21.6819 49.0765 21.1214C48.7435 20.5039 48.9516 19.8129 49.6384 19.4549C50.8498 18.8222 52.0777 18.2228 53.3016 17.615C53.6942 17.4208 54.0828 17.2071 54.4963 17.0725C55.2983 16.8116 56.0586 17.4305 55.9962 18.4157Z" fill="#1697F3"/>
<path d="M19.4358 11.0264C19.3595 11.5454 19.1389 11.8909 18.7393 12.1101C18.3397 12.3293 17.9317 12.3127 17.5432 12.0588C17.4724 12.013 17.3975 11.9686 17.3392 11.9089C16.164 10.7378 14.9846 9.57088 13.8218 8.38729C13.4985 8.05705 13.3556 7.64495 13.5248 7.17318C13.6886 6.71529 14.0188 6.38783 14.485 6.39615C14.8389 6.40309 15.2759 6.53768 15.5257 6.77357C16.6968 7.87528 17.8249 9.02279 18.9432 10.1786C19.1653 10.4076 19.2749 10.742 19.4358 11.0264Z" fill="#1697F3"/>
<path d="M40.5693 11.0241C40.7428 10.73 40.8677 10.3886 41.0994 10.15C42.1914 9.0219 43.3056 7.91463 44.4253 6.8143C45.0109 6.23847 45.731 6.21627 46.2194 6.72134C46.7065 7.22363 46.6787 7.90214 46.1098 8.47937C44.9956 9.61022 43.8675 10.7258 42.7422 11.8456C42.3482 12.2369 41.8778 12.3853 41.3589 12.1578C40.9121 11.9607 40.6554 11.593 40.5693 11.0241Z" fill="#1697F3"/>
<path d="M31.2102 7.58409C31.2102 8.31117 31.231 9.03964 31.2046 9.76672C31.17 10.7449 30.3888 11.3208 29.5729 10.9919C29.0331 10.7755 28.8194 10.3204 28.8139 9.78198C28.7972 8.29314 28.7931 6.80429 28.8139 5.31544C28.825 4.53148 29.3301 4.00559 30.0016 4.00004C30.6913 3.99449 31.1894 4.53703 31.2074 5.35013C31.2227 6.09525 31.2102 6.83898 31.2102 7.58409Z" fill="#1697F3"/>
<path d="M18.224 29.2872C18.4321 23.78 22.8418 19.0373 28.3129 18.3158C28.7972 18.252 29.287 18.2159 29.7754 18.1896C30.5857 18.1452 31.1422 18.5919 31.1921 19.3051C31.2393 19.9823 30.687 20.5137 29.8823 20.547C26.7297 20.6774 24.1863 21.9776 22.3201 24.5321C21.1601 26.1208 20.6259 27.9274 20.5551 29.8852C20.5218 30.808 19.8669 31.3339 19.0552 31.1146C18.5875 30.9884 18.2948 30.6817 18.2309 30.2016C18.1949 29.9366 18.224 29.6646 18.224 29.2872Z" fill="#1697F3"/>
</g>
<defs>
<clipPath id="clip0_952_2310">
<rect width="52" height="52" fill="white" transform="translate(4 4)"/>
</clipPath>
</defs>
</svg>
