<svg width="60" height="60" viewBox="0 0 60 60" fill="none" xmlns="http://www.w3.org/2000/svg">
<g clip-path="url(#clip0_953_2360)">
<path d="M27.5977 42.8136C26.667 42.8136 25.7929 42.9186 24.9569 42.7835C24.1383 42.6508 23.3589 42.2732 22.5044 41.9845C21.9213 43.242 21.3174 44.5444 20.7135 45.8481C19.4964 48.4784 18.2817 51.1111 17.0601 53.7403C16.3846 55.1952 15.0717 55.686 13.6249 55.0232C12.0199 54.2877 10.4183 53.5429 8.81795 52.7958C7.28799 52.0811 6.82612 50.767 7.54318 49.2209C9.29483 45.4393 11.0419 41.6566 12.7912 37.8738C12.8386 37.7711 12.879 37.6648 12.9448 37.5066C12.7554 37.405 12.5799 37.3046 12.3975 37.2157C9.83522 35.964 8.60779 32.9272 9.77287 30.336C12.1353 25.0822 14.559 19.8561 17.0173 14.6462C18.1004 12.3507 20.6846 11.3346 23.1129 12.099C23.2572 12.144 23.4027 12.1879 23.614 12.2525C24.0101 9.05523 25.5123 6.58998 28.3679 5.06233C30.362 3.9954 32.4855 3.73329 34.6851 4.2783C39.0799 5.36601 42.5023 9.87159 41.1352 15.4533C41.3927 15.4533 41.6329 15.4533 41.8719 15.4533C43.3926 15.4533 44.9122 15.4452 46.4329 15.4556C49.8796 15.4799 52.7571 18.2627 52.7663 21.7129C52.7986 32.8001 52.7825 43.8863 52.7825 54.9735C52.7825 55.6975 52.4811 55.9989 51.7675 56C44.0508 56.0035 36.334 56.0035 28.6173 56C27.8725 56 27.6058 55.6964 27.6035 54.8535C27.5977 51.0418 27.6 47.2314 27.5989 43.4198C27.5977 43.1923 27.5977 42.966 27.5977 42.8136ZM29.347 54.238C36.5892 54.238 43.7944 54.238 51.032 54.238C51.0458 54.0902 51.0678 53.9609 51.0678 53.8316C51.0701 52.0995 51.0689 50.3675 51.0689 48.6343C51.0689 39.8183 51.0412 31.0035 51.0851 22.1874C51.1013 19.0098 48.5737 17.108 46.0957 17.1623C42.3257 17.2466 38.5522 17.1842 34.781 17.1854C34.6032 17.1854 34.4265 17.2038 34.0939 17.2223C34.7694 17.6068 35.2994 17.9105 35.8317 18.2119C38.4252 19.6806 39.3073 22.4299 38.051 25.1273C37.282 26.7796 36.5118 28.432 35.7463 30.0866C34.3203 33.172 32.9 36.2607 31.4705 39.3437C31.0606 40.2282 30.5063 41.0146 29.6969 41.5757C29.3875 41.7905 29.3066 42.0295 29.3078 42.384C29.3193 46.1379 29.3136 49.8906 29.3159 53.6445C29.3159 53.8339 29.3355 54.0209 29.347 54.238ZM24.0355 15.7385C23.9385 15.2697 23.8554 14.8183 23.7445 14.3737C23.7168 14.2605 23.6187 14.1116 23.5205 14.0793C22.9755 13.9026 22.4282 13.6705 21.867 13.6162C20.3047 13.465 19.12 14.1901 18.4503 15.6381C16.134 20.639 13.8281 25.6446 11.5084 30.6432C10.565 32.6766 11.2786 34.7781 13.2981 35.7284C15.9735 36.987 18.657 38.226 21.3462 39.4534C23.2907 40.3414 25.3715 39.5689 26.2964 37.6406C26.6116 36.9836 26.9107 36.3173 27.2167 35.6557C28.4083 33.0796 29.5999 30.5035 30.7904 27.9274C31.6599 26.0452 32.549 24.1712 33.3873 22.274C34.1182 20.6205 33.5212 18.9162 31.952 18.019C31.1518 17.5618 30.362 17.0803 29.5387 16.6681C28.294 16.0445 27.0227 15.4718 25.6174 14.8079C25.8518 15.6196 25.9765 16.2223 26.7721 16.4787C27.4199 16.6877 28.0596 17.0225 28.5988 17.4382C29.2581 17.9463 29.9221 18.5202 30.3793 19.2037C31.1022 20.2845 30.5606 21.4242 29.287 21.6955C28.8448 21.7891 28.3656 21.8133 27.9175 21.7544C26.2652 21.5397 24.7491 20.9208 23.4501 19.8908C22.8358 19.4035 22.2688 18.7707 21.8924 18.0883C21.3878 17.1727 21.8924 16.2235 22.9039 15.9221C23.2469 15.8194 23.6164 15.8032 24.0355 15.7385ZM35.065 15.451C36.2774 15.451 37.491 15.4233 38.7023 15.4637C39.1919 15.4799 39.3558 15.2871 39.4725 14.854C40.8662 9.68799 36.3964 4.86719 31.1345 5.87523C28.0815 6.4595 25.5955 9.21111 25.3726 12.2121C25.3357 12.704 25.45 12.95 25.9361 13.1474C27.2698 13.6867 28.5919 14.2605 29.8782 14.9037C30.638 15.2824 31.3781 15.5122 32.2349 15.4626C33.1771 15.4095 34.1228 15.451 35.065 15.451ZM35.3422 19.9878C35.5442 21.1494 35.3422 22.2048 34.8699 23.2244C32.5328 28.2715 30.2015 33.3221 27.8656 38.3703C27.3841 39.4119 26.6474 40.2259 25.6555 40.809C25.5412 40.876 25.4373 40.9626 25.293 41.0665C27.2952 41.4049 29.0838 40.406 29.9648 38.5008C31.2615 35.6972 32.5582 32.8937 33.8526 30.0889C34.7764 28.0867 35.7186 26.0926 36.6077 24.0754C37.2739 22.5627 36.7439 20.8723 35.3422 19.9878ZM14.6018 38.2399C14.5406 38.3034 14.5036 38.3265 14.4886 38.3588C12.6711 42.2778 10.8525 46.1968 9.04311 50.1204C8.80409 50.6377 8.93226 50.9379 9.4588 51.1896C10.1862 51.5372 10.9206 51.8709 11.6562 52.2011C12.3524 52.5129 12.5972 52.4228 12.9182 51.7312C13.6549 50.147 14.3847 48.5581 15.119 46.9727C16.1917 44.6564 17.2656 42.3401 18.3579 39.9823C17.082 39.3911 15.835 38.8126 14.6018 38.2399ZM19.9283 40.7167C17.9746 44.9313 16.0359 49.1147 14.096 53.3004C14.9112 53.7773 15.1733 53.6999 15.5798 52.8258C16.9931 49.7821 18.403 46.7372 19.8117 43.6923C20.1962 42.8621 20.5715 42.0284 20.9606 41.1762C20.5969 41.0134 20.2863 40.876 19.9283 40.7167ZM23.5979 17.5479C24.1983 18.8227 27.3899 20.3007 28.9591 19.9554C28.376 19.4647 27.8656 19.0352 27.3714 18.6183C26.525 19.3227 26.1751 19.2869 25.5689 18.5156C25.4973 18.4255 25.4119 18.34 25.3645 18.2384C24.9893 17.4521 24.3161 17.4833 23.5979 17.5479Z" fill="#1697F3"/>
<path d="M23.5977 17.5481C24.317 17.4834 24.9902 17.4522 25.3632 18.2374C25.4117 18.339 25.4971 18.4244 25.5675 18.5145C26.1738 19.2858 26.5236 19.3216 27.37 18.6173C27.8642 19.0341 28.3746 19.4637 28.9577 19.9544C27.3885 20.3008 24.1969 18.824 23.5977 17.5481Z" fill="#1697F3"/>
<path d="M16.6425 40.8332C16.601 40.9521 16.5479 41.1565 16.4601 41.3459C15.2742 43.922 14.0849 46.4969 12.891 49.0707C12.6139 49.6677 12.1959 49.8663 11.7074 49.6539C11.1832 49.4264 11.0273 48.9599 11.3068 48.3548C12.518 45.7279 13.7397 43.1045 14.9532 40.4787C15.1518 40.0492 15.4636 39.7905 15.9463 39.8864C16.392 39.9718 16.6356 40.2755 16.6425 40.8332Z" fill="#1697F3"/>
<path d="M42.858 49.6374C42.3188 49.6524 41.8212 49.1859 41.7911 48.6374C41.7634 48.1224 42.2657 47.5947 42.7969 47.5809C43.3453 47.567 43.8395 48.0347 43.8534 48.5797C43.8661 49.1305 43.4042 49.6212 42.858 49.6374Z" fill="#1697F3"/>
<path d="M35.2442 42.5025C35.7846 42.5094 36.2488 43.0025 36.2384 43.559C36.228 44.1248 35.7696 44.5694 35.205 44.5613C34.6611 44.5532 34.1692 44.0498 34.1911 43.5209C34.2131 42.9794 34.7142 42.4956 35.2442 42.5025Z" fill="#1697F3"/>
</g>
<defs>
<clipPath id="clip0_953_2360">
<rect width="45.573" height="52" fill="white" transform="translate(7.21289 4)"/>
</clipPath>
</defs>
</svg>
