<svg width="32" height="33" viewBox="0 0 32 33" fill="none" xmlns="http://www.w3.org/2000/svg">
<path d="M0 16.3174C0 7.48083 7.16344 0.317383 16 0.317383C24.8366 0.317383 32 7.48083 32 16.3174C32 25.1539 24.8366 32.3174 16 32.3174C7.16344 32.3174 0 25.1539 0 16.3174Z" fill="#090A0B"/>
<path d="M24.1767 12.3662C23.9804 11.6122 23.4021 11.0184 22.6677 10.8169C21.3369 10.4507 16 10.4507 16 10.4507C16 10.4507 10.6631 10.4507 9.33218 10.8169C8.59783 11.0184 8.0195 11.6122 7.82323 12.3662C7.46667 13.7327 7.46667 16.584 7.46667 16.584C7.46667 16.584 7.46667 19.4352 7.82323 20.8019C8.0195 21.5559 8.59783 22.1496 9.33218 22.3512C10.6631 22.7174 16 22.7174 16 22.7174C16 22.7174 21.3369 22.7174 22.6677 22.3512C23.4021 22.1496 23.9804 21.5559 24.1767 20.8019C24.5333 19.4352 24.5333 16.584 24.5333 16.584C24.5333 16.584 24.5333 13.7327 24.1767 12.3662Z" fill="white"/>
<path d="M14.4 19.5174V14.1841L18.6667 16.8509L14.4 19.5174Z" fill="#090A0B"/>
</svg>
