<svg width="32" height="32" viewBox="0 0 32 32" fill="none" xmlns="http://www.w3.org/2000/svg">
<path d="M15.2241 0.010931C19.4901 -0.132285 23.2874 1.12931 26.5078 3.94155C29.8576 6.86618 31.6914 10.5972 31.9657 15.0338C32.2439 19.5329 30.8211 23.4939 27.7886 26.8139C24.8924 29.9851 21.241 31.7154 16.9476 31.9688C12.6122 32.2253 8.76198 30.9064 5.49206 28.0556C2.10062 25.0997 0.268609 21.3171 0.0255564 16.8314C-0.212722 12.4295 1.2113 8.56003 4.1301 5.26564C7.02763 1.99642 11.2867 0.163694 15.2241 0.010931ZM9.8657 22.7353C9.8683 22.7084 9.87134 22.682 9.87395 22.655C9.92212 22.6264 9.97073 22.5991 10.018 22.5687C10.6027 22.1911 11.143 21.7675 11.4885 21.1435C11.64 20.8701 11.6161 20.4643 11.4178 20.2369C11.1821 19.9661 10.9186 19.7187 10.6947 19.4388C10.4347 19.1141 10.1812 18.78 9.9677 18.4241C9.72855 18.0257 9.50633 17.6104 9.33402 17.1799C9.173 16.7771 9.07752 16.3466 8.97205 15.9239C8.90651 15.6609 8.85356 15.391 8.83446 15.121C8.81016 14.7843 8.8349 14.4445 8.82318 14.1064C8.80061 13.4515 8.90391 12.8079 9.09054 12.1908C9.27803 11.5702 9.51284 10.9617 9.86179 10.3988C10.2507 9.77215 10.6734 9.17803 11.1869 8.649C11.7068 8.11216 12.3066 7.67991 12.9433 7.29322C13.0293 7.24115 13.0814 7.13308 13.1491 7.05106C13.1326 7.02155 13.1157 6.99204 13.0992 6.96253C12.8774 6.96253 12.6556 6.96122 12.4338 6.96296C11.8644 6.96643 11.2949 6.97511 10.7255 6.97468C10.1704 6.97424 9.61397 6.93866 9.06102 6.97034C8.7086 6.99074 8.331 7.04064 8.01763 7.1895C6.85923 7.73936 6.39353 8.66549 6.43866 9.8902C6.4595 10.4518 6.44083 11.0147 6.4404 11.5771C6.43997 12.1682 6.44083 12.7588 6.43997 13.3499C6.4391 13.9267 6.43649 14.5035 6.43563 15.0798C6.43476 15.6492 6.43432 16.219 6.43519 16.7884C6.43606 17.3652 6.43953 17.9419 6.4404 18.5183C6.44127 19.1094 6.43997 19.7 6.43997 20.2911C6.43953 20.8605 6.44865 21.4303 6.43693 21.9997C6.42174 22.7371 6.48814 23.4414 6.93866 24.0746C7.29282 24.5728 7.76156 24.8849 8.33404 25.0133C8.71467 25.0984 9.12005 25.0884 9.51458 25.0932C10.3514 25.1036 11.1886 25.0967 12.0258 25.0962C12.8418 25.0958 13.6578 25.0945 14.4737 25.094C15.2897 25.0936 16.1056 25.0927 16.9216 25.0949C17.7371 25.0971 18.5526 25.104 19.3682 25.1071C19.9311 25.1092 20.494 25.1092 21.057 25.1084C21.6411 25.1075 22.2258 25.1019 22.81 25.1036C23.1941 25.1049 23.5686 25.0793 23.9302 24.9226C24.6923 24.5932 25.1888 24.0447 25.4167 23.2414C25.5261 22.8564 25.5751 22.4728 25.5651 22.0726C25.5495 21.4316 25.5612 20.7898 25.5565 20.1479C25.556 20.0906 25.5326 20.0012 25.4953 19.9856C25.4514 19.9669 25.3672 19.9969 25.323 20.0333C25.1068 20.2113 24.8993 20.3996 24.6871 20.5823C23.984 21.1877 23.2097 21.6859 22.343 22.0149C21.708 22.2558 21.0543 22.4528 20.399 22.6333C19.9936 22.7449 19.5722 22.826 19.1533 22.8542C18.6299 22.8894 18.1008 22.872 17.5757 22.8477C17.2619 22.833 16.9489 22.7714 16.639 22.7136C16.2102 22.6333 15.7827 22.5439 15.3578 22.4446C15.0453 22.3716 14.7424 22.2441 14.4268 22.1985C13.909 22.123 13.4451 22.3842 12.9664 22.5188C12.1148 22.7579 11.2615 22.9272 10.3744 22.8473C10.2021 22.8312 10.0345 22.7735 9.8657 22.7353ZM12.9954 15.7751C12.9868 15.7555 12.9781 15.736 12.9698 15.7165C13.1174 15.5325 13.2663 15.3497 13.4121 15.1644C13.7676 14.7127 14.1269 14.2635 14.475 13.8056C14.6881 13.5253 14.8947 13.2384 15.0826 12.9411C15.2484 12.679 15.0844 12.3153 14.7754 12.2572C14.5514 12.2151 14.3201 12.2073 14.0913 12.1994C13.7606 12.1886 13.4286 12.1816 13.0979 12.1916C12.6834 12.2038 12.2676 12.2185 11.8561 12.265C11.6382 12.2897 11.5315 12.5128 11.5606 12.771C11.5823 12.9637 11.755 13.1112 11.9681 13.1117C12.2498 13.1125 12.5315 13.1065 12.8127 13.1073C13.0367 13.1082 13.2606 13.1099 13.4841 13.1221C13.5328 13.1247 13.5913 13.1638 13.6204 13.2041C13.633 13.2219 13.5892 13.2896 13.5601 13.3265C12.9277 14.1285 12.2919 14.9275 11.6617 15.7312C11.5033 15.933 11.4113 16.1791 11.5124 16.4204C11.6014 16.6326 11.801 16.755 12.0497 16.7567C12.6986 16.7619 13.347 16.768 13.9959 16.7724C14.2194 16.7737 14.4429 16.7737 14.666 16.7693C14.9802 16.7632 15.2137 16.5918 15.2432 16.3514C15.2793 16.0611 15.1603 15.8927 14.8248 15.7963C14.7176 15.7655 14.597 15.7768 14.4824 15.7764C13.9863 15.7738 13.4907 15.7751 12.9954 15.7751ZM16.7923 16.8431C17.054 16.8913 17.3153 16.8262 17.5379 16.6404C17.6577 16.5406 17.7367 16.5688 17.8543 16.656C17.9619 16.7359 18.1225 16.8188 18.2397 16.7962C18.5409 16.7385 18.7197 16.6356 18.7267 16.265C18.7419 15.4587 18.7523 14.6519 18.7458 13.8456C18.7441 13.6442 18.6664 13.4359 18.4472 13.3564C18.2258 13.2762 18.0014 13.2887 17.8209 13.4623C17.7224 13.5569 17.6468 13.5405 17.5353 13.4827C17.3582 13.3912 17.172 13.3018 16.9793 13.2588C16.5323 13.1586 16.1508 13.3551 15.8183 13.6168C15.5041 13.8638 15.2597 14.1867 15.2259 14.6046C15.2024 14.8949 15.2137 15.1909 15.2367 15.4825C15.2949 16.2116 15.9893 16.9216 16.7923 16.8431ZM22.3169 16.8466C23.4284 16.8531 24.1355 16.1548 24.1159 14.9943C24.0986 13.9731 23.4966 13.2631 22.3148 13.2575C21.1885 13.2523 20.6264 14.0061 20.5808 14.9444C20.5227 16.1518 21.1945 16.8401 22.3169 16.8466ZM19.1902 14.2787C19.1928 14.2787 19.1954 14.2787 19.1976 14.2787C19.1976 14.4011 19.1985 14.5239 19.1976 14.6463C19.1937 15.2013 19.1846 15.7564 19.1876 16.3115C19.1894 16.6053 19.4077 16.8162 19.6937 16.824C19.9554 16.8314 20.1985 16.597 20.2063 16.3188C20.2141 16.0376 20.2123 15.7564 20.2137 15.4752C20.2176 14.6675 20.2232 13.8599 20.2236 13.0522C20.2236 12.7784 20.2267 12.5032 20.1998 12.2316C20.175 11.9807 19.8946 11.8019 19.6182 11.8292C19.3912 11.8514 19.1915 12.0402 19.1907 12.245C19.1885 12.9233 19.1902 13.6012 19.1902 14.2787Z" fill="black"/>
<path d="M9.86569 22.7353C10.035 22.7735 10.2025 22.8308 10.3735 22.8464C11.2606 22.9258 12.1139 22.757 12.9655 22.5179C13.4442 22.3833 13.9082 22.1221 14.426 22.1976C14.7415 22.2436 15.044 22.3707 15.3569 22.4436C15.7818 22.543 16.2094 22.6324 16.6382 22.7127C16.9481 22.7709 17.261 22.8325 17.5748 22.8468C18.1 22.8711 18.629 22.8889 19.1525 22.8533C19.5713 22.8251 19.9927 22.744 20.3981 22.6324C21.0535 22.4519 21.7071 22.2549 22.3421 22.014C23.2093 21.6855 23.9831 21.1873 24.6862 20.5814C24.8985 20.3987 25.1059 20.2108 25.3221 20.0324C25.3664 19.996 25.4501 19.9664 25.4944 19.9847C25.5317 20.0003 25.5551 20.0901 25.5556 20.147C25.5604 20.7884 25.5482 21.4303 25.5643 22.0717C25.5742 22.4719 25.5248 22.8555 25.4158 23.2404C25.188 24.0438 24.6914 24.5923 23.9293 24.9217C23.5673 25.0779 23.1932 25.1035 22.8091 25.1027C22.2249 25.1009 21.6403 25.1066 21.0561 25.1075C20.4932 25.1083 19.9302 25.1083 19.3673 25.1061C18.5518 25.1031 17.7362 25.0962 16.9207 25.094C16.1048 25.0918 15.2888 25.0927 14.4728 25.0931C13.6569 25.0936 12.8409 25.0949 12.0249 25.0953C11.1877 25.0957 10.3505 25.1027 9.5137 25.0923C9.11917 25.0871 8.71379 25.0975 8.33316 25.0124C7.76068 24.8844 7.29194 24.5719 6.93778 24.0737C6.48726 23.4405 6.42086 22.7361 6.43605 21.9988C6.44777 21.4294 6.43865 20.8596 6.43909 20.2902C6.43952 19.6991 6.44039 19.1085 6.43952 18.5174C6.43865 17.9406 6.43518 17.3638 6.43431 16.7875C6.43344 16.2181 6.43388 15.6483 6.43474 15.0789C6.43561 14.5021 6.43865 13.9254 6.43909 13.349C6.43995 12.7579 6.43909 12.1673 6.43952 11.5762C6.43995 11.0137 6.45818 10.4509 6.43778 9.88928C6.39265 8.66457 6.85835 7.73801 8.01676 7.18858C8.33012 7.03973 8.70772 6.98982 9.06014 6.96942C9.61309 6.93774 10.1695 6.97333 10.7246 6.97376C11.2941 6.97419 11.8635 6.96551 12.4329 6.96204C12.6547 6.96074 12.8765 6.96161 13.0983 6.96161C13.1148 6.99112 13.1317 7.02063 13.1482 7.05014C13.0805 7.13217 13.0284 7.24023 12.9425 7.29231C12.3058 7.67899 11.7064 8.11124 11.186 8.64808C10.673 9.17754 10.2498 9.77124 9.86091 10.3979C9.51196 10.9604 9.27759 11.5688 9.08966 12.1898C8.90303 12.807 8.79973 13.4506 8.8223 14.1055C8.83402 14.4435 8.80928 14.7833 8.83358 15.1201C8.85312 15.3896 8.90563 15.66 8.97117 15.923C9.07664 16.3457 9.17212 16.7762 9.33314 17.179C9.50545 17.6099 9.72767 18.0248 9.96682 18.4232C10.1804 18.7791 10.4338 19.1132 10.6938 19.4379C10.9178 19.7173 11.1812 19.9651 11.4169 20.236C11.6152 20.4638 11.6387 20.8691 11.4876 21.1426C11.1421 21.7671 10.6018 22.1902 10.0172 22.5678C9.97029 22.5981 9.92124 22.6255 9.87307 22.6541C9.8709 22.6819 9.86829 22.7088 9.86569 22.7353Z" fill="white"/>
<path d="M12.9954 15.775C13.4911 15.775 13.9863 15.7741 14.482 15.7758C14.5965 15.7763 14.7172 15.765 14.8244 15.7958C15.1599 15.8921 15.2788 16.0605 15.2428 16.3509C15.2133 16.5913 14.9798 16.7627 14.6655 16.7688C14.442 16.7731 14.2185 16.7736 13.9954 16.7718C13.3466 16.7675 12.6981 16.7614 12.0493 16.7562C11.8006 16.7545 11.6005 16.6316 11.5119 16.4199C11.4108 16.1786 11.5028 15.9329 11.6613 15.7307C12.2915 14.927 12.9273 14.128 13.5597 13.326C13.5887 13.2891 13.6326 13.2214 13.62 13.2036C13.5913 13.1632 13.5323 13.1242 13.4837 13.1216C13.2602 13.1094 13.0362 13.1077 12.8123 13.1068C12.5306 13.1059 12.2489 13.112 11.9677 13.1112C11.7546 13.1107 11.5814 12.9632 11.5601 12.7705C11.5315 12.5127 11.6382 12.2892 11.8557 12.2644C12.2671 12.218 12.6829 12.2037 13.0974 12.1911C13.4282 12.1811 13.7597 12.1881 14.0909 12.1989C14.3196 12.2063 14.551 12.2145 14.7749 12.2566C15.0839 12.3144 15.248 12.6785 15.0822 12.9406C14.8943 13.2383 14.6877 13.5247 14.4746 13.8051C14.1265 14.263 13.7676 14.7121 13.4117 15.1639C13.2658 15.3492 13.117 15.5319 12.9694 15.7159C12.9781 15.7355 12.9868 15.7554 12.9954 15.775Z" fill="white"/>
<path d="M16.7923 16.8432C15.9893 16.9217 15.2949 16.2117 15.2367 15.4826C15.2133 15.1914 15.202 14.8954 15.2259 14.6047C15.2598 14.1867 15.5041 13.8638 15.8183 13.6169C16.1508 13.3556 16.5323 13.159 16.9793 13.2589C17.1721 13.3018 17.3583 13.3912 17.5353 13.4828C17.6469 13.5405 17.7224 13.557 17.8209 13.4624C18.0015 13.2888 18.2259 13.2762 18.4472 13.3565C18.666 13.4359 18.7441 13.6442 18.7458 13.8456C18.7528 14.652 18.7419 15.4587 18.7267 16.2651C18.7198 16.6357 18.5414 16.7386 18.2398 16.7963C18.1226 16.8189 17.962 16.736 17.8543 16.6561C17.7367 16.5689 17.6577 16.5407 17.5379 16.6405C17.3153 16.8262 17.054 16.8909 16.7923 16.8432ZM17.702 15.0833C17.6486 14.9215 17.6013 14.757 17.5414 14.5973C17.419 14.2714 17.1378 14.2319 16.8478 14.2436C16.6 14.2536 16.4325 14.4111 16.3452 14.6298C16.2853 14.7804 16.2519 14.9488 16.2424 15.1111C16.2198 15.4896 16.6204 15.9071 16.9828 15.9023C17.3366 15.8979 17.6894 15.4852 17.702 15.0833Z" fill="white"/>
<path d="M22.317 16.8467C21.1946 16.8397 20.5227 16.1519 20.5809 14.9445C20.626 14.0058 21.1885 13.2524 22.3148 13.2576C23.4962 13.2628 24.0982 13.9732 24.116 14.9944C24.1355 16.1549 23.4285 16.8536 22.317 16.8467ZM21.6421 14.9506C21.6538 15.0868 21.656 15.1958 21.6733 15.3017C21.7284 15.6441 22.0787 15.9544 22.4467 15.8745C22.9324 15.7691 23.2154 15.1719 22.9867 14.7206C22.9177 14.5843 22.8291 14.4363 22.7085 14.3517C22.4728 14.1863 22.2124 14.1881 21.9606 14.3534C21.7332 14.5036 21.6698 14.7305 21.6421 14.9506Z" fill="white"/>
<path d="M19.1903 14.2786C19.1903 13.6008 19.1885 12.9233 19.1911 12.2454C19.192 12.0406 19.3917 11.8518 19.6187 11.8297C19.8951 11.8023 20.1751 11.9816 20.2003 12.232C20.2272 12.5036 20.2241 12.7788 20.2241 13.0526C20.2237 13.8603 20.218 14.6679 20.2141 15.4756C20.2128 15.7568 20.215 16.038 20.2068 16.3193C20.199 16.5974 19.9559 16.8318 19.6942 16.8244C19.4082 16.8166 19.1894 16.6057 19.1881 16.3119C19.1851 15.7568 19.1942 15.2017 19.1981 14.6467C19.199 14.5243 19.1981 14.4015 19.1981 14.2791C19.1955 14.2786 19.1929 14.2786 19.1903 14.2786Z" fill="white"/>
<path d="M17.7019 15.0833C17.6894 15.4856 17.3365 15.8979 16.9828 15.9026C16.6208 15.9074 16.2202 15.4903 16.2423 15.1115C16.2519 14.9492 16.2853 14.7808 16.3452 14.6302C16.4324 14.4115 16.6 14.2539 16.8478 14.2439C17.1382 14.2322 17.4194 14.2717 17.5414 14.5976C17.6013 14.7569 17.6486 14.921 17.7019 15.0833Z" fill="black"/>
<path d="M21.6421 14.9506C21.6703 14.7306 21.7332 14.5036 21.9607 14.3539C22.2124 14.1885 22.4728 14.1868 22.7085 14.3522C22.8291 14.4368 22.9177 14.5843 22.9867 14.721C23.215 15.1724 22.9324 15.7695 22.4468 15.875C22.0787 15.9549 21.7285 15.6446 21.6733 15.3021C21.656 15.1958 21.6534 15.0869 21.6421 14.9506Z" fill="black"/>
</svg>
